{
.appVersion = "3202";
.formatVersion = 3;
axes = (
{
name = Weight;
tag = wght;
}
);
classes = (
{
automatic = 1;
code = "A Aacute Abreve Acaron Acircumflex Adieresis Agrave Amacron Aogonek Aring Aringacute Atilde AE B C Cacute Ccaron Ccedilla Cdotaccent D Dcaron Dcroat Eth E Eacute Ecaron Ecircumflex Edieresis Edotaccent Egrave Emacron Eogonek F Fhook G Gbreve Gcommaaccent Gdotaccent H Hbar I Iacute Icaron Icircumflex Idieresis Idotaccent Igrave Imacron Iogonek J K Kcommaaccent L Lacute Lcaron Lcommaaccent Ldot Lslash M N Nacute Ncaron Ncommaaccent Ntilde Eng O Oacute Ocaron Ocircumflex Odieresis Ograve Ohungarumlaut Omacron Oslash Otilde OE P Thorn Q R Racute Rcaron Rcommaaccent S Sacute Scaron Scedilla Scommaaccent Germandbls T Tbar Tcaron Tcedilla Tcommaaccent U Uacute Ubreve Ucaron Ucircumflex Udieresis Udieresisacute Udieresiscaron Udieresisgrave Udieresismacron Ugrave Uhungarumlaut Umacron Uogonek Uring Utilde V W Wacute Wcircumflex Wdieresis Wgrave X Y Yacute Ycircumflex Ydieresis Ygrave Ytilde Z Zacute Zcaron Zdotaccent";
name = Uppercase;
}
);
customParameters = (
{
name = fsType;
value = (
);
},
{
name = "Use Typo Metrics";
value = 1;
},
{
name = "Write lastChange";
value = 0;
},
{
name = "Use Line Breaks";
value = 1;
},
{
name = panose;
value = (
0,
0,
0,
0,
0,
0,
0,
0,
0,
0
);
}
);
date = "2018-11-14 11:04:06 +0000";
familyName = Baskervville;
featurePrefixes = (
{
automatic = 1;
code = "languagesystem DFLT dflt;

languagesystem latn dflt;
languagesystem latn AZE;
languagesystem latn CRT;
languagesystem latn KAZ;
languagesystem latn TAT;
languagesystem latn TRK;
languagesystem latn ROM;
languagesystem latn MOL;
languagesystem latn CAT;
";
name = Languagesystems;
}
);
features = (
{
automatic = 1;
code = "feature locl;
feature subs;
feature sinf;
feature sups;
feature numr;
feature dnom;
feature frac;
feature ordn;
feature lnum;
feature onum;
feature case;
feature calt;
";
tag = aalt;
},
{
code = "lookup ccmp_Other_1 {

glyphs = (
{
color = 6;
glyphname = A;
kernLeft = A;
kernRight = A;
layers = (
{
anchors = (
{
name = bottom;
pos = (241,0);
},
{
name = ogonek;
pos = (500,0);
},
{
name = top;
pos = (514,710);
}
);
guides = (
{
angle = 90;
pos = (530,363);
}
);
layerId = "9372F035-DA38-4B54-966C-CEBA9B53DD02";
shapes = (
{
closed = 1;
nodes = (
(53,0,l),
(171,-3,l),
(179,22,l),
(160,24,ls),
(117,28,o),
(95,39,o),
(95,60,cs),
(95,73,o),
(102,89,o),
(117,111,cs),
(496,659,l),
(448,621,l),
(448,116,ls),
(448,44,o),
(414,30,o),
(355,24,cs),
(334,22,l),
(326,-3,l),
(471,0,l),
(616,-3,l),
(624,22,l),
(605,24,ls),
(533,32,o),
(530,59,o),
(530,114,cs),
(530,710,l),
(508,724,l),
(84,112,ls),
(56,71,o),
(28,31,o),
(-41,24,cs),
(-62,22,l),
(-70,-3,l)
);
},
{
closed = 1;
nodes = (
(467,258,l),
(479,284,l),
(219,284,l),
(200,258,l)
);
}
);
width = 662;
}
);
unicode = 65;
},
{
color = 6;
glyphname = AE;
kernLeft = A;
kernRight = E;
layers = (
{
layerId = "9372F035-DA38-4B54-966C-CEBA9B53DD02";
shapes = (
{
closed = 1;
nodes = (
(52,0,l),
(170,-3,l),
(179,22,l),
(160,24,ls),
(117,28,o),
(94,38,o),
(94,61,cs),
(94,73,o),
(101,89,o),
(116,111,cs),
(483,649,l),
(472,657,l),
(465,116,ls),
(464,44,o),
(429,30,o),
(369,24,cs),
(348,22,l),
(339,-3,l),
(484,0,l),
(621,25,l),
(547,25,o),
(548,59,o),
(548,114,cs),
(548,710,l),
(494,710,l),
(80,112,ls),
(50,69,o),
(31,31,o),
(-41,24,cs),
(-62,22,l),
(-71,-3,l)
);
},
{
closed = 1;
nodes = (
(481,258,l),
(494,284,l),
(217,284,l),
(204,258,l)
);
},
{
closed = 1;
nodes = (
(851,0,l),
(875,74,l),
(925,210,l),
(899,210,l),
(847,90,o),
(798,25,o),
(682,25,cs),
(494,25,l),
(484,0,l)
);
},
{
closed = 1;
nodes = (
(675,362,l),
(684,388,l),
(508,388,l),
(499,362,l)
);
},
{
closed = 1;
nodes = (
(680,226,l),
(729,371,l),
(780,508,l),
(754,508,l),
(711,399,o),
(685,388,o),
(641,388,c),
(632,362,l),
(658,362,o),
(675,349,o),
(675,316,cs),
(675,295,o),
(668,265,o),
(654,226,c)
);
},
{
closed = 1;
nodes = (
(920,526,l),
(921,649,l),
(923,709,l),
(523,710,l),
(536,685,l),
(770,685,ls),
(866,685,o),
(894,615,o),
(894,526,c)
);
}
);
width = 944;
}
);
metricLeft = A;
metricRight = E;
unicode = 198;
},
{
color = 6;
glyphname = B;
kernLeft = I;
kernRight = B;
layers = (
{
anchors = (
{
name = bottom;
pos = (253,0);
},
{
name = top;
pos = (487,710);
}
);
layerId = "9372F035-DA38-4B54-966C-CEBA9B53DD02";
shapes = (
{
closed = 1;
nodes = (
(126,0,l),
(277,0,ls),
(402,0,o),
(501,31,o),
(560,90,cs),
(596,126,o),
(618,170,o),
(618,223,cs),
(618,319,o),
(545,372,o),
(426,385,c),
(432,376,l),
(500,384,o),
(568,408,o),
(612,451,cs),
(641,480,o),
(662,518,o),
(661,566,cs),
(657,676,o),
(557,713,o),
(418,711,cs),
(356,710,l),
(211,713,l),
(203,688,l),
(222,686,ls),
(276,681,o),
(296,673,o),
(296,649,cs),
(296,640,o),
(293,630,o),
(289,616,cs),
(126,124,ls),
(104,59,o),
(79,30,o),
(6,24,cs),
(-15,22,l),
(-23,-3,l)
);
},
{
closed = 1;
nodes = (
(219,26,o),
(192,37,o),
(192,72,cs),
(192,81,o),
(195,97,o),
(198,106,cs),
(389,685,l),
(398,685,ls),
(508,687,o),
(574,653,o),
(576,572,cs),
(580,465,o),
(502,397,o),
(386,397,cs),
(287,397,l),
(279,372,l),
(375,372,ls),
(475,372,o),
(534,337,o),
(534,235,cs),
(534,112,o),
(421,26,o),
(269,26,cs)
);
}
);
width = 665;
}
);
metricLeft = I;
unicode = 66;
},
{
color = 6;
glyphname = C;
kernLeft = O;
kernRight = C;
layers = (
{
anchors = (
{
name = bottom;
pos = (350,0);
},
{
name = top;
pos = (524,710);
}
);
guides = (
{
angle = 70;
pos = (688,240);
}
);
layerId = "9372F035-DA38-4B54-966C-CEBA9B53DD02";
shapes = (
{
closed = 1;
nodes = (
(442,-11,o),
(508,44,o),
(528,44,cs),
(539,44,o),
(542,35,o),
(542,23,cs),
(542,16,o),
(541,8,o),
(540,0,c),
(566,0,l),
(594,106,l),
(644,247,l),
(618,247,l),
(569,127,o),
(444,20,o),
(340,20,cs),
(233,20,o),
(174,110,o),
(174,249,cs),
(174,474,o),
(350,694,o),
(526,694,cs),
(613,694,o),
(673,640,o),
(673,535,cs),
(673,519,o),
(672,503,o),
(669,485,c),
(695,485,l),
(730,594,l),
(768,697,l),
(742,697,l),
(732,683,o),
(716,663,o),
(705,663,cs),
(679,663,o),
(635,724,o),
(518,724,cs),
(274,724,o),
(85,468,o),
(85,228,cs),
(85,59,o),
(203,-11,o),
(325,-11,cs)
);
}
);
width = 700;
}
);
metricLeft = O;
unicode = 67;
},
{
color = 6;
glyphname = D;
kernLeft = I;
kernRight = O;
layers = (
{
anchors = (
{
name = bottom;
pos = (302,0);
},
{
name = center;
pos = (232,355);
},
{
name = top;
pos = (460,710);
}
);
guides = (
{
angle = 270;
pos = (2938,356);
}
);
layerId = "9372F035-DA38-4B54-966C-CEBA9B53DD02";
shapes = (
{
closed = 1;
nodes = (
(100,0,l),
(285,0,ls),
(454,0,o),
(610,72,o),
(704,190,cs),
(762,262,o),
(796,353,o),
(796,450,cs),
(796,623,o),
(654,721,o),
(441,713,cs),
(359,710,l),
(358,710,l),
(211,713,l),
(202,688,l),
(221,686,ls),
(274,681,o),
(293,673,o),
(293,651,cs),
(293,643,o),
(290,631,o),
(285,617,cs),
(93,88,ls),
(76,41,o),
(58,31,o),
(-19,24,cs),
(-40,22,l),
(-49,-3,l)
);
},
{
closed = 1;
nodes = (
(223,26,o),
(177,25,o),
(177,77,cs),
(177,91,o),
(181,110,o),
(189,133,cs),
(389,683,l),
(424,684,ls),
(636,689,o),
(706,588,o),
(706,453,cs),
(706,237,o),
(531,26,o),
(286,26,cs),
(252,26,ls)
);
}
);
width = 789;
}
);
metricLeft = I;
metricRight = O;
unicode = 68;
},
{
color = 6;
glyphname = E;
kernLeft = I;
kernRight = E;
layers = (
{
anchors = (
{
name = bottom;
pos = (269,0);
},
{
name = ogonek;
pos = (533,0);
},
{
name = top;
pos = (503,710);
},
{
name = topleft;
pos = (185,710);
}
);
layerId = "9372F035-DA38-4B54-966C-CEBA9B53DD02";
shapes = (
{
closed = 1;
nodes = (
(126,0,l),
(602,0,l),
(624,74,l),
(669,210,l),
(643,210,l),
(595,90,o),
(548,26,o),
(433,25,cs),
(295,24,ls),
(235,23,o),
(204,42,o),
(204,89,cs),
(204,108,o),
(210,135,o),
(220,165,cs),
(391,685,l),
(542,685,ls),
(638,685,o),
(669,616,o),
(672,527,c),
(698,527,l),
(695,650,l),
(695,710,l),
(358,710,l),
(211,713,l),
(203,688,l),
(222,686,ls),
(276,681,o),
(295,673,o),
(295,650,cs),
(295,642,o),
(292,631,o),
(288,617,cs),
(113,81,ls),
(100,40,o),
(78,30,o),
(6,24,cs),
(-15,22,l),
(-23,-3,l)
);
},
{
closed = 1;
nodes = (
(479,226,l),
(522,371,l),
(569,508,l),
(543,508,l),
(503,399,o),
(477,388,o),
(434,388,cs),
(261,388,l),
(253,362,l),
(426,362,ls),
(453,362,o),
(470,348,o),
(470,312,cs),
(470,291,o),
(465,263,o),
(453,226,c)
);
}
);
width = 695;
}
);
metricLeft = H;
unicode = 69;
},
{
color = 6;
glyphname = F;
kernLeft = I;
kernRight = F;
layers = (
{
anchors = (
{
name = bottom;
pos = (238,0);
},
{
name = top;
pos = (472,710);
}
);
backgroundImage = {
imagePath = "../../FONT/Glyphs/Workshop Baskerville/1878 Limprimerie Berger Levrault Notice historique/Romain/JACOB-notice-187504.jpg";
locked = 1;
pos = (-8304,-3085);
scale = (2.612,2.75);
slant = (55.934,0);
};
layerId = "9372F035-DA38-4B54-966C-CEBA9B53DD02";
shapes = (
{
closed = 1;
nodes = (
(125,0,l),
(294,-3,l),
(303,22,l),
(284,24,ls),
(212,32,o),
(188,35,o),
(188,60,cs),
(188,67,o),
(190,76,o),
(194,87,cs),
(390,685,l),
(534,685,ls),
(630,685,o),
(662,615,o),
(664,526,c),
(690,526,l),
(684,709,l),
(358,710,l),
(211,713,l),
(203,688,l),
(222,686,ls),
(276,681,o),
(295,673,o),
(295,650,cs),
(295,645,o),
(294,638,o),
(292,631,cs),
(118,100,ls),
(92,35,o),
(71,30,o),
(10,24,cs),
(-11,22,l),
(-20,-3,l)
);
},
{
closed = 0;
nodes = (
(282,377,l)
);
},
{
closed = 1;
nodes = (
(460,196,l),
(499,341,l),
(550,478,l),
(524,478,l),
(485,369,o),
(458,358,o),
(415,358,cs),
(252,358,l),
(244,332,l),
(407,332,ls),
(434,332,o),
(451,318,o),
(451,282,cs),
(451,261,o),
(446,233,o),
(434,196,c)
);
}
);
width = 599;
}
);
metricLeft = I;
unicode = 70;
},
{
color = 6;
glyphname = Fhook;
kernLeft = I;
kernRight = F;
layers = (
{
anchors = (
{
name = bottom;
pos = (238,0);
},
{
name = top;
pos = (472,710);
}
);
layerId = "9372F035-DA38-4B54-966C-CEBA9B53DD02";
shapes = (
{
closed = 1;
nodes = (
(25,-294,o),
(80,-260,o),
(122,-131,cs),
(390,685,l),
(534,685,ls),
(630,685,o),
(662,615,o),
(664,526,c),
(690,526,l),
(684,709,l),
(358,710,l),
(211,713,l),
(203,688,l),
(222,686,ls),
(275,681,o),
(296,673,o),
(296,651,cs),
(296,645,o),
(294,639,o),
(292,631,cs),
(43,-128,ls),
(13,-219,o),
(-12,-272,o),
(-44,-272,cs),
(-88,-272,o),
(-65,-174,o),
(-124,-174,cs),
(-152,-174,o),
(-173,-194,o),
(-173,-221,cs),
(-173,-257,o),
(-144,-294,o),
(-62,-294,cs)
);
},
{
closed = 0;
nodes = (
(282,377,l)
);
},
{
closed = 1;
nodes = (
(460,196,l),
(499,341,l),
(550,478,l),
(524,478,l),
(485,369,o),
(458,358,o),
(415,358,cs),
(252,358,l),
(244,332,l),
(407,332,ls),
(434,332,o),
(451,318,o),
(451,282,cs),
(451,261,o),
(446,233,o),
(434,196,c)
);
}
);
width = 599;
}
);
metricRight = F;
unicode = 401;
},
{
color = 6;
glyphname = G;
kernLeft = O;
kernRight = G;
layers = (
{
anchors = (
{
name = bottom;
pos = (301,0);
},
{
name = top;
pos = (535,710);
}
);
layerId = "9372F035-DA38-4B54-966C-CEBA9B53DD02";
shapes = (
{
closed = 1;
nodes = (
(483,-14,o),
(551,73,o),
(583,73,cs),
(604,73,o),
(621,48,o),
(634,32,c),
(659,58,l),
(652,68,o),
(634,81,o),
(634,104,cs),
(634,109,o),
(635,114,o),
(637,120,cs),
(668,208,ls),
(677,235,o),
(698,257,o),
(731,261,cs),
(768,265,l),
(775,290,l),
(644,286,l),
(505,290,l),
(498,264,l),
(543,260,ls),
(571,258,o),
(590,245,o),
(590,222,cs),
(590,218,o),
(589,213,o),
(587,207,cs),
(565,144,ls),
(546,85,o),
(446,16,o),
(351,16,cs),
(246,16,o),
(175,96,o),
(175,248,cs),
(175,459,o),
(340,694,o),
(526,694,cs),
(621,694,o),
(672,632,o),
(672,535,cs),
(672,519,o),
(671,503,o),
(668,485,c),
(694,485,l),
(729,593,l),
(769,696,l),
(743,696,l),
(730,679,o),
(718,663,o),
(706,663,cs),
(681,663,o),
(636,724,o),
(520,724,cs),
(261,724,o),
(86,457,o),
(86,235,cs),
(86,96,o),
(164,-14,o),
(334,-14,cs)
);
}
);
width = 762;
}
);
metricLeft = O;
unicode = 71;
},
{
color = 6;
glyphname = H;
kernLeft = I;
kernRight = I;
layers = (
{
anchors = (
{
name = bottom;
pos = (346,0);
},
{
name = center;
pos = (535,535);
},
{
name = top;
pos = (580,710);
},
{
name = topleft;
pos = (189,710);
}
);
backgroundImage = {
angle = -1.11573;
imagePath = "../../FONT/Glyphs/Workshop Baskerville/1878 Limprimerie Berger Levrault Notice historique/Romain/JACOB-notice-187537.jpg";
locked = 1;
pos = (-8935,-3827);
scale = (2.3624,2.7617);
slant = (58.5112,0);
};
guides = (
{
angle = 70;
pos = (774,355);
},
{
angle = 70;
pos = (329,353);
},
{
angle = 70;
pos = (252,355);
},
{
pos = (725,472);
}
);
layerId = "9372F035-DA38-4B54-966C-CEBA9B53DD02";
shapes = (
{
closed = 1;
nodes = (
(126,0,l),
(275,-3,l),
(283,22,l),
(264,24,ls),
(209,29,o),
(191,36,o),
(191,60,cs),
(191,69,o),
(193,81,o),
(198,96,cs),
(354,573,l),
(381,655,o),
(407,679,o),
(480,686,cs),
(501,688,l),
(509,713,l),
(360,710,l),
(211,713,l),
(203,688,l),
(222,686,ls),
(276,681,o),
(297,674,o),
(297,651,cs),
(297,644,o),
(295,635,o),
(291,624,cs),
(131,136,ls),
(105,56,o),
(79,31,o),
(6,24,cs),
(-15,22,l),
(-23,-3,l)
);
},
{
closed = 1;
nodes = (
(661,345,l),
(671,376,l),
(281,376,l),
(271,345,l)
);
},
{
closed = 1;
nodes = (
(581,0,l),
(730,-3,l),
(738,22,l),
(719,24,ls),
(665,29,o),
(644,36,o),
(644,61,cs),
(644,71,o),
(647,82,o),
(652,97,cs),
(808,573,ls),
(836,659,o),
(861,679,o),
(934,686,cs),
(955,688,l),
(963,713,l),
(814,710,l),
(665,713,l),
(657,688,l),
(676,686,ls),
(730,681,o),
(750,673,o),
(750,650,cs),
(750,643,o),
(748,634,o),
(745,624,cs),
(580,121,ls),
(556,47,o),
(529,31,o),
(461,24,cs),
(440,22,l),
(432,-3,l)
);
}
);
width = 839;
}
);
metricLeft = I;
metricRight = I;
unicode = 72;
},
{
color = 6;
glyphname = I;
kernLeft = I;
kernRight = I;
layers = (
{
anchors = (
{
name = bottom;
pos = (124,0);
},
{
name = ogonek;
pos = (141,0);
},
{
name = top;
pos = (358,710);
},
{
name = topleft;
pos = (181,710);
}
);
backgroundImage = {
angle = -0.66362;
imagePath = "../../FONT/Glyphs/Workshop Baskerville/1878 Limprimerie Berger Levrault Notice historique/Romain/IMG_3190.JPG";
locked = 1;
pos = (-8289,-3787);
scale = (2.5039,2.807);
slant = (57.5174,0);
};
layerId = "9372F035-DA38-4B54-966C-CEBA9B53DD02";
shapes = (
{
closed = 1;
nodes = (
(126,0,l),
(275,-3,l),
(283,22,l),
(264,24,ls),
(209,29,o),
(191,36,o),
(191,60,cs),
(191,69,o),
(194,81,o),
(198,96,cs),
(354,573,ls),
(383,661,o),
(407,679,o),
(480,686,cs),
(501,688,l),
(509,713,l),
(360,710,l),
(211,713,l),
(203,688,l),
(222,686,ls),
(277,681,o),
(295,674,o),
(295,650,cs),
(295,643,o),
(294,634,o),
(291,624,cs),
(131,136,ls),
(103,51,o),
(79,31,o),
(6,24,cs),
(-15,22,l),
(-23,-3,l)
);
}
);
width = 384;
}
);
unicode = 73;
},
{
color = 6;
glyphname = J;
kernLeft = J;
kernRight = U;
layers = (
{
anchors = (
{
name = bottom;
pos = (133,0);
},
{
name = top;
pos = (366,710);
}
);
backgroundImage = {
imagePath = "../../../../1788-89 Epreuves des caracteres de Rolland et Jacob/p19.jpg";
locked = 1;
pos = (-8660,-14382);
scale = (69.67,66.669);
slant = (53.3483,0);
};
layerId = "9372F035-DA38-4B54-966C-CEBA9B53DD02";
shapes = (
{
closed = 1;
nodes = (
(217,-14,o),
(236,60,o),
(264,147,cs),
(403,574,ls),
(432,664,o),
(460,679,o),
(529,686,cs),
(550,688,l),
(558,713,l),
(409,710,l),
(260,713,l),
(252,688,l),
(271,686,ls),
(326,681,o),
(344,674,o),
(344,650,cs),
(344,641,o),
(341,629,o),
(337,614,cs),
(207,217,ls),
(166,94,o),
(145,9,o),
(90,9,cs),
(53,9,o),
(50,33,o),
(42,63,cs),
(35,93,o),
(24,120,o),
(-11,120,cs),
(-38,120,o),
(-56,101,o),
(-56,75,cs),
(-56,15,o),
(13,-14,o),
(87,-14,cs)
);
}
);
width = 430;
}
);
unicode = 74;
},
{
color = 6;
glyphname = K;
kernLeft = I;
kernRight = K;
layers = (
{
anchors = (
{
name = bottom;
pos = (340,0);
},
{
name = top;
pos = (524,710);
}
);
layerId = "9372F035-DA38-4B54-966C-CEBA9B53DD02";
shapes = (
{
closed = 1;
nodes = (
(116,0,l),
(265,-3,l),
(273,22,l),
(254,24,ls),
(199,29,o),
(181,36,o),
(181,60,cs),
(181,69,o),
(184,81,o),
(188,96,cs),
(346,580,ls),
(378,673,o),
(396,678,o),
(465,686,c),
(478,713,l),
(350,710,l),
(211,713,l),
(202,688,l),
(221,686,ls),
(258,682,o),
(288,678,o),
(288,653,cs),
(288,648,o),
(287,642,o),
(284,635,cs),
(121,136,ls),
(93,50,o),
(69,31,o),
(-4,24,cs),
(-25,22,l),
(-33,-3,l)
);
},
{
closed = 1;
nodes = (
(679,22,l),
(618,31,o),
(582,59,o),
(551,139,cs),
(431,434,l),
(371,372,l),
(482,101,ls),
(486,90,o),
(489,80,o),
(489,71,cs),
(489,51,o),
(474,34,o),
(420,26,cs),
(402,23,l),
(393,-2,l),
(559,0,l),
(670,-3,l)
);
},
{
closed = 1;
nodes = (
(655,599,ls),
(719,650,o),
(766,681,o),
(796,685,cs),
(818,688,l),
(827,713,l),
(713,709,l),
(590,713,l),
(581,688,l),
(595,687,ls),
(631,684,o),
(648,672,o),
(648,653,cs),
(648,635,o),
(632,612,o),
(602,587,cs),
(229,286,l),
(225,250,l)
);
}
);
width = 721;
}
);
metricLeft = I;
unicode = 75;
},
{
color = 6;
glyphname = L;
kernLeft = I;
kernRight = L;
layers = (
{
anchors = (
{
name = bottom;
pos = (248,0);
},
{
name = center;
pos = (243,355);
},
{
name = top;
pos = (360,710);
},
{
name = topright;
pos = (538,710);
}
);
layerId = "9372F035-DA38-4B54-966C-CEBA9B53DD02";
shapes = (
{
closed = 1;
nodes = (
(117,0,l),
(552,-3,l),
(630,210,l),
(604,210,l),
(557,88,o),
(488,23,o),
(373,23,cs),
(298,23,ls),
(225,23,o),
(199,38,o),
(199,77,cs),
(199,97,o),
(207,125,o),
(219,161,cs),
(354,574,ls),
(382,660,o),
(407,679,o),
(480,686,cs),
(501,688,l),
(509,713,l),
(360,710,l),
(211,713,l),
(203,688,l),
(222,686,ls),
(276,680,o),
(297,675,o),
(297,651,cs),
(297,644,o),
(295,635,o),
(291,624,cs),
(112,80,ls),
(98,39,o),
(78,31,o),
(6,24,cs),
(-15,22,l),
(-23,-3,l)
);
}
);
width = 646;
}
);
metricLeft = I;
unicode = 76;
},
{
color = 6;
glyphname = M;
kernLeft = M;
kernRight = I;
layers = (
{
anchors = (
{
name = bottom;
pos = (399,0);
},
{
name = top;
pos = (633,710);
}
);
guides = (
{
angle = 70;
pos = (806,452);
},
{
pos = (564,616);
}
);
layerId = "9372F035-DA38-4B54-966C-CEBA9B53DD02";
shapes = (
{
closed = 1;
nodes = (
(686,0,l),
(835,-3,l),
(843,22,l),
(824,24,ls),
(769,29,o),
(751,36,o),
(751,60,cs),
(751,69,o),
(754,81,o),
(758,96,cs),
(874,615,ls),
(887,675,o),
(925,681,o),
(973,686,cs),
(994,688,l),
(1002,713,l),
(857,710,l),
(810,710,l),
(413,85,l),
(436,89,l),
(373,710,l),
(317,710,l),
(199,713,l),
(191,688,l),
(229,683,ls),
(262,679,o),
(278,666,o),
(301,635,c),
(365,7,l),
(395,7,l),
(829,687,l),
(816,693,l),
(691,137,ls),
(668,49,o),
(639,31,o),
(566,24,cs),
(545,22,l),
(537,-3,l)
);
},
{
closed = 1;
nodes = (
(97,0,l),
(215,-3,l),
(223,22,l),
(204,24,ls),
(152,29,o),
(131,33,o),
(131,60,cs),
(131,68,o),
(133,78,o),
(136,90,cs),
(319,661,l),
(290,661,l),
(112,116,ls),
(89,36,o),
(71,31,o),
(3,24,cs),
(-18,22,l),
(-26,-3,l)
);
}
);
width = 916;
}
);
unicode = 77;
},
{
color = 6;
glyphname = N;
kernLeft = I;
kernRight = N;
layers = (
{
anchors = (
{
name = bottom;
pos = (402,0);
},
{
name = top;
pos = (556,710);
}
);
backgroundImage = {
imagePath = "../../FONT/Glyphs/Workshop Baskerville/1878 Limprimerie Berger Levrault Notice historique/Images/B543956101_050370_0013.jpg";
locked = 1;
pos = (-471,0);
scale = (18.05,19);
slant = (55.9254,0);
};
layerId = "9372F035-DA38-4B54-966C-CEBA9B53DD02";
shapes = (
{
closed = 1;
nodes = (
(624,94,l),
(346,710,l),
(318,655,l),
(328,710,l),
(211,713,l),
(202,688,l),
(233,685,ls),
(264,682,o),
(278,660,o),
(297,615,cs),
(574,0,l)
);
},
{
closed = 1;
nodes = (
(110,0,l),
(227,-3,l),
(236,22,l),
(217,24,ls),
(166,29,o),
(147,34,o),
(146,57,cs),
(146,64,o),
(147,71,o),
(150,81,cs),
(346,710,l),
(314,710,l),
(124,103,ls),
(104,40,o),
(79,30,o),
(17,24,cs),
(-4,22,l),
(-13,-3,l)
);
},
{
closed = 1;
nodes = (
(604,0,l),
(794,607,ls),
(814,673,o),
(839,680,o),
(901,686,cs),
(922,688,l),
(931,713,l),
(808,710,l),
(691,713,l),
(682,688,l),
(701,686,ls),
(752,681,o),
(771,676,o),
(772,653,cs),
(772,645,o),
(771,636,o),
(767,624,cs),
(574,0,l)
);
}
);
width = 793;
}
);
metricLeft = I;
unicode = 78;
},
{
color = 6;
glyphname = Eng;
kernLeft = I;
kernRight = N;
layers = (
{
anchors = (
{
name = bottom;
pos = (402,0);
},
{
name = top;
pos = (556,710);
}
);
layerId = "9372F035-DA38-4B54-966C-CEBA9B53DD02";
shapes = (
{
closed = 1;
nodes = (
(484,-294,o),
(513,-247,o),
(554,-136,cs),
(604,0,l),
(794,607,ls),
(814,673,o),
(839,680,o),
(901,686,cs),
(922,688,l),
(931,713,l),
(808,710,l),
(691,713,l),
(682,688,l),
(701,686,ls),
(752,681,o),
(771,676,o),
(772,653,c),
(772,645,o),
(771,636,o),
(767,624,cs),
(574,0,l),
(526,-131,ls),
(487,-237,o),
(456,-262,o),
(429,-262,cs),
(385,-262,o),
(408,-174,o),
(349,-174,cs),
(321,-174,o),
(300,-194,o),
(300,-221,cs),
(300,-257,o),
(329,-294,o),
(411,-294,cs)
);
},
{
closed = 1;
nodes = (
(110,0,l),
(227,-3,l),
(236,22,l),
(217,24,ls),
(166,29,o),
(147,34,o),
(146,57,cs),
(146,64,o),
(147,71,o),
(150,81,cs),
(346,710,l),
(314,710,l),
(124,103,ls),
(104,40,o),
(79,30,o),
(17,24,cs),
(-4,22,l),
(-13,-3,l)
);
},
{
closed = 1;
nodes = (
(624,94,l),
(346,710,l),
(318,655,l),
(328,710,l),
(211,713,l),
(202,688,l),
(233,685,ls),
(264,682,o),
(278,660,o),
(297,615,cs),
(574,0,l)
);
}
);
width = 793;
}
);
metricLeft = N;
metricRight = N;
unicode = 330;
},
{
color = 6;
glyphname = O;
kernLeft = O;
kernRight = O;
layers = (
{
anchors = (
{
name = bottom;
pos = (355,0);
},
{
name = center;
pos = (432,355);
},
{
name = ogonek;
pos = (450,10);
},
{
name = top;
pos = (559,710);
},
{
name = topleft;
pos = (183,710);
},
{
name = topright;
pos = (914,710);
}
);
layerId = "9372F035-DA38-4B54-966C-CEBA9B53DD02";
shapes = (
{
closed = 1;
nodes = (
(592,-14,o),
(790,237,o),
(790,469,cs),
(790,631,o),
(682,724,o),
(540,724,cs),
(283,724,o),
(86,471,o),
(86,241,cs),
(86,73,o),
(201,-14,o),
(342,-14,cs)
);
},
{
closed = 1;
nodes = (
(239,16,o),
(177,93,o),
(177,225,cs),
(177,457,o),
(353,695,o),
(536,695,cs),
(640,695,o),
(700,616,o),
(700,481,cs),
(700,251,o),
(527,16,o),
(345,16,cs)
);
}
);
width = 778;
}
);
unicode = 79;
},
{
color = 6;
glyphname = OE;
kernLeft = O;
kernRight = E;
layers = (
{
layerId = "9372F035-DA38-4B54-966C-CEBA9B53DD02";
shapes = (
{
closed = 1;
nodes = (
(389,-14,o),
(454,5,o),
(512,36,c),
(477,99,l),
(456,43,o),
(387,16,o),
(325,16,cs),
(223,16,o),
(164,87,o),
(164,210,cs),
(164,445,o),
(353,691,o),
(549,691,cs),
(607,691,o),
(668,672,o),
(668,633,cs),
(668,628,o),
(667,623,o),
(665,617,c),
(732,649,l),
(688,700,o),
(622,720,o),
(545,720,cs),
(282,720,o),
(79,459,o),
(79,215,cs),
(79,60,o),
(187,-14,o),
(321,-14,cs)
);
},
{
closed = 1;
nodes = (
(952,0,l),
(976,74,l),
(1026,210,l),
(1000,210,l),
(948,90,o),
(899,26,o),
(783,25,cs),
(645,24,ls),
(588,23,o),
(561,40,o),
(561,81,cs),
(561,104,o),
(569,134,o),
(584,173,c),
(419,0,l)
);
},
{
closed = 0;
nodes = (
(650,377,l)
);
},
{
closed = 1;
nodes = (
(841,226,l),
(890,371,l),
(941,508,l),
(915,508,l),
(872,399,o),
(845,388,o),
(802,388,cs),
(629,388,l),
(620,362,l),
(793,362,ls),
(819,361,o),
(836,348,o),
(836,315,cs),
(836,294,o),
(829,265,o),
(815,226,c)
);
},
{
closed = 1;
nodes = (
(1071,527,l),
(1072,650,l),
(1074,710,l),
(620,710,l),
(650,685,l),
(921,686,ls),
(1017,686,o),
(1045,616,o),
(1045,527,c)
);
},
{
closed = 1;
nodes = (
(521,0,l),
(779,710,l),
(699,710,l),
(441,0,l)
);
}
);
width = 1045;
}
);
metricLeft = O;
metricRight = E;
unicode = 338;
},
{
color = 6;
glyphname = P;
kernLeft = I;
kernRight = D;
layers = (
{
anchors = (
{
name = bottom;
pos = (271,0);
},
{
name = top;
pos = (446,710);
}
);
backgroundImage = {
imagePath = "../../FONT/Glyphs/Workshop Baskerville/1878 Limprimerie Berger Levrault Notice historique/Romain/JACOB-notice-187519.jpg";
locked = 1;
pos = (-8835,-3803);
scale = (2.517,2.65);
slant = (55.9375,0);
};
layerId = "9372F035-DA38-4B54-966C-CEBA9B53DD02";
shapes = (
{
closed = 1;
nodes = (
(124,0,l),
(281,-3,l),
(290,21,l),
(271,23,ls),
(209,30,o),
(189,36,o),
(189,60,cs),
(189,69,o),
(191,82,o),
(196,96,cs),
(389,683,l),
(472,683,ls),
(572,683,o),
(642,632,o),
(642,539,cs),
(642,447,o),
(579,333,o),
(374,333,cs),
(362,333,o),
(335,334,o),
(268,337,c),
(259,310,l),
(328,304,o),
(358,302,o),
(388,302,cs),
(610,302,o),
(728,399,o),
(728,534,cs),
(728,642,o),
(643,713,o),
(466,711,cs),
(369,710,l),
(358,710,l),
(211,713,l),
(202,688,l),
(221,686,ls),
(276,680,o),
(295,673,o),
(295,650,cs),
(295,644,o),
(294,638,o),
(292,630,c),
(125,125,ls),
(101,53,o),
(73,31,o),
(6,24,cs),
(-16,22,l),
(-25,-3,l)
);
}
);
width = 637;
}
);
metricLeft = I;
unicode = 80;
},
{
color = 6;
glyphname = Thorn;
kernLeft = I;
kernRight = Thorn;
layers = (
{
layerId = "9372F035-DA38-4B54-966C-CEBA9B53DD02";
shapes = (
{
closed = 1;
nodes = (
(111,0,l),
(268,-3,l),
(277,21,l),
(258,23,ls),
(198,29,o),
(178,36,o),
(178,59,cs),
(178,68,o),
(181,80,o),
(186,96,cs),
(360,576,ls),
(389,655,o),
(416,679,o),
(487,686,cs),
(509,688,l),
(518,713,l),
(369,710,l),
(212,713,l),
(203,689,l),
(222,687,ls),
(282,681,o),
(302,674,o),
(302,651,cs),
(302,642,o),
(299,630,o),
(294,614,cs),
(120,134,ls),
(91,53,o),
(64,31,o),
(-7,24,cs),
(-29,22,l),
(-38,-3,l)
);
},
{
closed = 1;
nodes = (
(563,162,o),
(684,251,o),
(684,403,cs),
(684,506,o),
(599,573,o),
(427,571,cs),
(330,570,l),
(341,543,l),
(432,543,ls),
(529,543,o),
(598,495,o),
(598,407,cs),
(598,314,o),
(534,193,o),
(321,193,cs),
(310,193,o),
(299,193,o),
(288,194,cs),
(193,199,l),
(180,171,l),
(263,165,ls),
(288,163,o),
(312,162,o),
(335,162,cs)
);
}
);
width = 683;
}
);
metricLeft = I;
metricRight = O;
unicode = 222;
},
{
color = 3;
glyphname = Q;
kernLeft = O;
kernRight = O;
layers = (
{
anchors = (
{
name = bottom;
pos = (331,0);
},
{
name = center;
pos = (455,355);
},
{
name = ogonek;
pos = (485,10);
},
{
name = top;
pos = (564,710);
},
{
name = topleft;
pos = (193,710);
},
{
name = topright;
pos = (924,710);
}
);
layerId = "9372F035-DA38-4B54-966C-CEBA9B53DD02";
shapes = (
{
closed = 1;
nodes = (
(632,-294,o),
(672,-239,o),
(690,-138,c),
(670,-136,l),
(655,-206,o),
(608,-232,o),
(567,-232,cs),
(511,-232,o),
(462,-187,o),
(431,-154,cs),
(377,-100,o),
(303,-59,o),
(210,-59,cs),
(172,-59,o),
(133,-73,o),
(103,-84,c),
(118,-95,l),
(133,-93,o),
(151,-92,o),
(171,-92,cs),
(226,-92,o),
(294,-118,o),
(350,-174,cs),
(410,-237,o),
(460,-294,o),
(557,-294,cs)
);
},
{
closed = 1;
nodes = (
(53,-150,o),
(72,-139,o),
(91,-124,cs),
(130,-91,o),
(182,-70,o),
(249,-48,cs),
(394,0,l),
(346,3,l),
(159,-58,l),
(143,-56,o),
(127,-55,o),
(113,-55,cs),
(46,-55,o),
(-1,-76,o),
(-1,-117,cs),
(-1,-140,o),
(13,-150,o),
(33,-150,cs)
);
},
{
pos = (20,0);
ref = O;
}
);
width = 804;
}
);
metricLeft = "=O+20";
unicode = 81;
},
{
color = 6;
glyphname = R;
kernLeft = I;
kernRight = R;
layers = (
{
anchors = (
{
name = bottom;
pos = (394,0);
},
{
name = top;
pos = (452,710);
}
);
backgroundImage = {
imagePath = "../../FONT/Glyphs/Workshop Baskerville/1878 Limprimerie Berger Levrault Notice historique/Romain/JACOB-notice-187518.jpg";
locked = 1;
pos = (-8229,-3060);
scale = (2.565,2.7);
slant = (55.9291,0);
};
layerId = "9372F035-DA38-4B54-966C-CEBA9B53DD02";
shapes = (
{
closed = 1;
nodes = (
(125,0,l),
(262,-3,l),
(270,22,l),
(251,24,ls),
(203,29,o),
(187,33,o),
(187,54,cs),
(187,62,o),
(189,73,o),
(194,87,cs),
(389,683,l),
(446,683,ls),
(569,683,o),
(603,619,o),
(603,558,cs),
(603,454,o),
(530,381,o),
(408,382,cs),
(278,383,l),
(271,360,l),
(431,360,ls),
(575,360,o),
(689,412,o),
(689,550,cs),
(689,650,o),
(612,713,o),
(446,711,cs),
(369,710,l),
(358,710,l),
(211,713,l),
(203,688,l),
(222,686,ls),
(276,681,o),
(295,671,o),
(295,650,cs),
(295,645,o),
(294,639,o),
(292,632,cs),
(124,120,ls),
(96,36,o),
(77,32,o),
(9,24,cs),
(-12,22,l),
(-20,-3,l)
);
},
{
closed = 1;
nodes = (
(634,-14,o),
(673,-1,o),
(704,36,c),
(685,53,l),
(672,38,o),
(654,22,o),
(626,22,cs),
(582,22,o),
(570,55,o),
(568,127,cs),
(563,205,ls),
(554,307,o),
(485,362,o),
(367,362,cs),
(354,362,o),
(340,361,o),
(326,360,c),
(264,360,l),
(393,360,o),
(467,299,o),
(471,205,cs),
(472,154,ls),
(476,48,o),
(527,-14,o),
(596,-14,cs)
);
}
);
width = 743;
}
);
metricLeft = I;
unicode = 82;
},
{
color = 6;
glyphname = S;
kernLeft = S;
kernRight = S;
layers = (
{
anchors = (
{
name = bottom;
pos = (295,0);
},
{
name = top;
pos = (408,710);
}
);
layerId = "9372F035-DA38-4B54-966C-CEBA9B53DD02";
shapes = (
{
closed = 1;
nodes = (
(421,-11,o),
(509,77,o),
(509,187,cs),
(509,249,o),
(471,307,o),
(402,373,cs),
(357,417,ls),
(308,463,o),
(265,499,o),
(265,567,cs),
(265,643,o),
(326,692,o),
(395,692,cs),
(507,692,o),
(542,598,o),
(544,501,cs),
(544,471,l),
(570,470,l),
(587,581,l),
(614,693,l),
(587,694,l),
(579,664,o),
(570,653,o),
(560,653,cs),
(536,653,o),
(490,720,o),
(384,720,cs),
(264,720,o),
(181,650,o),
(181,549,cs),
(181,466,o),
(247,415,o),
(294,369,cs),
(340,325,ls),
(398,270,o),
(426,228,o),
(426,154,cs),
(426,78,o),
(369,17,o),
(281,17,cs),
(183,17,o),
(125,84,o),
(121,200,cs),
(121,209,o),
(121,219,o),
(121,229,cs),
(124,269,l),
(97,271,l),
(66,149,l),
(22,19,l),
(48,4,l),
(59,28,o),
(72,56,o),
(92,56,cs),
(126,56,o),
(169,-11,o),
(293,-11,cs)
);
}
);
width = 589;
}
);
unicode = 83;
},
{
color = 6;
glyphname = Germandbls;
kernLeft = Germandbls;
kernRight = Germandbls;
layers = (
{
background = {
shapes = (
{
pos = (210,-74);
ref = S;
}
);
};
layerId = "9372F035-DA38-4B54-966C-CEBA9B53DD02";
shapes = (
{
closed = 1;
nodes = (
(777,675,l),
(704,708,o),
(628,721,o),
(545,721,cs),
(360,721,o),
(261,657,o),
(207,492,cs),
(91,138,ls),
(61,46,o),
(41,31,o),
(-36,24,cs),
(-57,22,l),
(-65,-3,l),
(83,0,l),
(84,0,l),
(132,-1,l),
(170,133,l),
(285,482,ls),
(334,631,o),
(415,692,o),
(548,692,cs),
(616,692,o),
(663,676,o),
(708,638,c),
(725,663,l),
(561,617,o),
(480,548,o),
(480,458,cs),
(480,415,o),
(499,381,o),
(527,346,cs),
(572,290,ls),
(614,238,o),
(624,203,o),
(624,166,cs),
(624,84,o),
(574,18,o),
(474,18,cs),
(378,18,o),
(326,80,o),
(331,162,cs),
(333,195,l),
(307,197,l),
(263,24,l),
(332,0,o),
(416,-11,o),
(471,-11,cs),
(621,-11,o),
(709,72,o),
(709,179,cs),
(709,232,o),
(687,273,o),
(649,321,cs),
(604,378,ls),
(576,413,o),
(563,447,o),
(563,477,cs),
(563,549,o),
(639,612,o),
(772,651,c)
);
}
);
width = 736;
}
);
unicode = 7838;
},
{
color = 6;
glyphname = T;
kernLeft = T;
kernRight = T;
layers = (
{
anchors = (
{
name = bottom;
pos = (315,0);
},
{
name = center;
pos = (432,355);
},
{
name = top;
pos = (549,710);
}
);
layerId = "9372F035-DA38-4B54-966C-CEBA9B53DD02";
shapes = (
{
closed = 1;
nodes = (
(303,0,l),
(314,0,l),
(496,-3,l),
(504,20,l),
(468,23,ls),
(414,27,o),
(381,43,o),
(381,82,cs),
(381,91,o),
(382,100,o),
(386,112,cs),
(582,710,l),
(502,710,l),
(302,100,ls),
(283,43,o),
(231,31,o),
(164,22,cs),
(148,20,l),
(139,-3,l)
);
},
{
closed = 1;
nodes = (
(842,510,l),
(838,632,l),
(840,713,l),
(534,710,l),
(207,713,l),
(135,523,l),
(161,522,l),
(228,644,o),
(254,683,o),
(366,685,cs),
(494,687,l),
(571,688,l),
(697,685,ls),
(776,683,o),
(813,606,o),
(817,510,c)
);
}
);
width = 741;
}
);
unicode = 84;
},
{
color = 6;
glyphname = U;
kernLeft = U;
kernRight = U;
layers = (
{
anchors = (
{
name = bottom;
pos = (311,0);
},
{
name = ogonek;
pos = (473,0);
},
{
name = top;
pos = (575,710);
},
{
name = topright;
pos = (888,710);
}
);
backgroundImage = {
imagePath = "../../FONT/Glyphs/1790 La Constitution Francaise de Jacob/JACOB-constitution-179001.jpg";
locked = 1;
pos = (-11557,0);
scale = (9.479,9.278);
slant = (53.6349,1.0275);
};
layerId = "9372F035-DA38-4B54-966C-CEBA9B53DD02";
shapes = (
{
closed = 1;
nodes = (
(538,-14,o),
(602,91,o),
(672,308,cs),
(769,612,ls),
(789,675,o),
(814,680,o),
(878,686,cs),
(899,688,l),
(907,713,l),
(784,710,l),
(666,713,l),
(658,688,l),
(677,686,ls),
(726,681,o),
(747,677,o),
(747,652,cs),
(747,645,o),
(745,636,o),
(742,625,cs),
(629,274,ls),
(567,81,o),
(489,18,o),
(377,18,cs),
(270,18,o),
(221,78,o),
(221,168,cs),
(221,200,o),
(228,236,o),
(240,275,cs),
(335,574,ls),
(363,663,o),
(387,679,o),
(460,686,cs),
(481,688,l),
(489,713,l),
(340,710,l),
(191,713,l),
(183,688,l),
(202,686,ls),
(257,681,o),
(275,674,o),
(275,650,cs),
(275,641,o),
(272,629,o),
(268,614,cs),
(159,275,ls),
(145,231,o),
(137,191,o),
(137,156,cs),
(137,51,o),
(202,-14,o),
(366,-14,cs)
);
}
);
width = 758;
}
);
unicode = 85;
},
{
color = 6;
glyphname = V;
kernLeft = V;
kernRight = V;
layers = (
{
anchors = (
{
name = bottom;
pos = (311,0);
},
{
name = top;
pos = (539,710);
}
);
backgroundImage = {
imagePath = "../../FONT/Glyphs/1878 Limprimerie Berger Levrault Notice historique/Romain/JACOB-notice-187505.jpg";
locked = 1;
pos = (-7366,-2475);
scale = (2.5,2.632);
slant = (55.9356,0);
};
layerId = "9372F035-DA38-4B54-966C-CEBA9B53DD02";
shapes = (
{
closed = 1;
nodes = (
(313,-8,l),
(721,598,ls),
(756,651,o),
(768,679,o),
(839,686,cs),
(860,688,l),
(868,713,l),
(746,710,l),
(627,713,l),
(619,688,l),
(638,686,ls),
(685,681,o),
(709,670,o),
(709,648,cs),
(709,639,o),
(704,627,o),
(695,613,cs),
(328,67,l),
(356,74,l),
(314,611,ls),
(310,669,o),
(354,680,o),
(409,686,cs),
(430,688,l),
(438,713,l),
(292,710,l),
(149,713,l),
(141,688,l),
(160,686,ls),
(236,678,o),
(231,651,o),
(237,593,cs),
(287,-8,l)
);
}
);
width = 686;
}
);
unicode = 86;
},
{
color = 6;
glyphname = W;
kernLeft = V;
kernRight = V;
layers = (
{
anchors = (
{
name = bottom;
pos = (521,0);
},
{
name = top;
pos = (647,710);
}
);
guides = (
{
pos = (499,713);
}
);
layerId = "9372F035-DA38-4B54-966C-CEBA9B53DD02";
shapes = (
{
closed = 1;
nodes = (
(690,-8,l),
(1030,598,ls),
(1061,653,o),
(1077,679,o),
(1148,686,cs),
(1169,688,l),
(1177,713,l),
(1055,710,l),
(918,713,l),
(910,688,l),
(947,686,ls),
(994,683,o),
(1016,673,o),
(1016,650,cs),
(1016,640,o),
(1012,628,o),
(1004,613,cs),
(697,67,l),
(731,78,l),
(665,587,ls),
(664,595,o),
(663,602,o),
(663,609,cs),
(663,656,o),
(696,679,o),
(745,683,cs),
(785,687,l),
(786,713,l),
(759,711,ls),
(707,707,o),
(664,701,o),
(630,655,c),
(643,599,l),
(597,522,l),
(664,-8,l)
);
},
{
closed = 1;
nodes = (
(318,-8,l),
(627,536,ls),
(643,565,o),
(665,605,o),
(665,642,cs),
(665,677,o),
(644,702,o),
(574,710,cs),
(547,713,l),
(543,687,l),
(581,681,ls),
(619,676,o),
(632,658,o),
(632,635,cs),
(632,613,o),
(619,586,o),
(606,562,cs),
(325,68,l),
(361,77,l),
(314,613,ls),
(309,668,o),
(352,679,o),
(395,686,cs),
(407,688,l),
(415,713,l),
(288,710,l),
(149,713,l),
(141,688,l),
(160,686,ls),
(236,678,o),
(231,651,o),
(237,593,cs),
(292,-8,l)
);
}
);
width = 1019;
}
);
metricLeft = V;
unicode = 87;
},
{
color = 6;
glyphname = X;
kernRight = X;
layers = (
{
anchors = (
{
name = bottom;
pos = (299,0);
},
{
name = top;
pos = (533,710);
}
);
backgroundImage = {
imagePath = "../../FONT/Glyphs/1878 Limprimerie Berger Levrault Notice historique/Romain/JACOB-notice-187513.jpg";
locked = 1;
pos = (-8841,-3852);
scale = (2.487,2.618);
slant = (55.9268,0);
};
layerId = "9372F035-DA38-4B54-966C-CEBA9B53DD02";
shapes = (
{
closed = 1;
nodes = (
(567,0,l),
(693,-2,l),
(702,23,l),
(683,25,ls),
(630,30,o),
(608,61,o),
(571,146,cs),
(380,581,ls),
(372,601,o),
(370,617,o),
(370,631,cs),
(370,665,o),
(394,682,o),
(435,686,cs),
(456,688,l),
(465,713,l),
(316,710,l),
(187,713,l),
(178,688,l),
(197,686,ls),
(248,681,o),
(270,648,o),
(294,593,cs),
(507,104,ls),
(511,94,o),
(513,85,o),
(513,76,cs),
(513,48,o),
(489,30,o),
(445,25,cs),
(424,23,l),
(415,-2,l)
);
},
{
closed = 1;
nodes = (
(86,1,l),
(207,-2,l),
(216,23,l),
(197,25,ls),
(153,29,o),
(126,41,o),
(125,61,cs),
(125,72,o),
(132,87,o),
(152,104,cs),
(433,364,l),
(412,386,l),
(107,102,ls),
(58,58,o),
(19,31,o),
(-17,26,cs),
(-38,23,l),
(-47,-2,l)
);
},
{
closed = 1;
nodes = (
(718,609,ls),
(767,653,o),
(807,680,o),
(842,685,cs),
(863,688,l),
(872,713,l),
(746,710,l),
(618,713,l),
(609,688,l),
(628,686,ls),
(677,681,o),
(704,672,o),
(705,654,cs),
(705,642,o),
(695,628,o),
(675,609,cs),
(427,382,l),
(448,360,l)
);
}
);
width = 744;
}
);
unicode = 88;
},
{
color = 6;
glyphname = Y;
kernLeft = Y;
kernRight = Y;
layers = (
{
anchors = (
{
name = bottom;
pos = (287,0);
},
{
name = top;
pos = (521,710);
},
{
name = topleft;
pos = (221,710);
}
);
backgroundImage = {
imagePath = "../../FONT/Glyphs/1788-89 Epreuves des caracteres de Rolland et Jacob/p19.jpg";
locked = 1;
pos = (-7057,-12922);
scale = (62.544,65.836);
slant = (55.9258,0);
};
layerId = "9372F035-DA38-4B54-966C-CEBA9B53DD02";
shapes = (
{
closed = 1;
nodes = (
(670,601,ls),
(713,654,o),
(754,680,o),
(790,685,cs),
(811,688,l),
(820,713,l),
(694,710,l),
(566,713,l),
(557,688,l),
(576,686,ls),
(626,681,o),
(654,672,o),
(654,648,cs),
(654,635,o),
(646,618,o),
(628,595,cs),
(393,299,l),
(414,280,l)
);
},
{
closed = 1;
nodes = (
(295,0,l),
(468,-3,l),
(477,22,l),
(458,24,ls),
(399,30,o),
(361,35,o),
(361,70,cs),
(361,76,o),
(362,82,o),
(364,89,cs),
(421,292,l),
(341,292,l),
(288,102,ls),
(265,33,o),
(241,31,o),
(180,24,cs),
(159,22,l),
(150,-3,l)
);
},
{
closed = 1;
nodes = (
(416,279,l),
(338,581,ls),
(334,598,o),
(331,613,o),
(331,626,cs),
(331,664,o),
(352,682,o),
(397,686,cs),
(418,688,l),
(427,713,l),
(281,710,l),
(150,713,l),
(141,688,l),
(160,686,ls),
(236,678,o),
(243,650,o),
(257,593,cs),
(340,259,l)
);
}
);
width = 663;
}
);
unicode = 89;
},
{
color = 6;
glyphname = Z;
kernLeft = I;
kernRight = I;
layers = (
{
anchors = (
{
name = bottom;
pos = (244,0);
},
{
name = top;
pos = (478,710);
}
);
layerId = "9372F035-DA38-4B54-966C-CEBA9B53DD02";
shapes = (
{
closed = 1;
nodes = (
(586,1,l),
(607,107,l),
(644,260,l),
(618,260,l),
(556,99,o),
(513,29,o),
(327,29,cs),
(78,29,l),
(85,9,l),
(762,703,l),
(759,710,l),
(236,710,l),
(159,506,l),
(185,506,l),
(237,613,o),
(262,685,o),
(415,685,cs),
(710,685,l),
(661,703,l),
(-16,9,l),
(-9,0,l)
);
}
);
width = 675;
}
);
unicode = 90;
},
{
color = 6;
glyphname = a;
kernLeft = a;
kernRight = u;
layers = (
{
anchors = (
{
name = bottom;
pos = (191,0);
},
{
name = ogonek;
pos = (440,0);
},
{
name = top;
pos = (327,440);
}
);
backgroundImage = {
imagePath = "../../../../1878 Limprimerie Berger Levrault Notice historique/Italique/La Rehab.jpg";
locked = 1;
pos = (-3662,-249);
scale = (12.739,12.739);
slant = (20,0);
};
guides = (
{
angle = 69.8938;
pos = (357,215);
}
);
layerId = "9372F035-DA38-4B54-966C-CEBA9B53DD02";
shapes = (
{
closed = 1;
nodes = (
(233,-14,o),
(296,37,o),
(343,120,c),
(416,318,l),
(420,395,o),
(390,454,o),
(319,454,cs),
(189,454,o),
(27,296,o),
(27,127,cs),
(27,52,o),
(68,-14,o),
(162,-14,cs)
);
},
{
closed = 1;
nodes = (
(129,12,o),
(102,44,o),
(102,107,cs),
(102,242,o),
(219,428,o),
(325,428,cs),
(372,428,o),
(394,390,o),
(394,336,cs),
(394,306,o),
(387,270,o),
(374,234,cs),
(327,103,o),
(253,12,o),
(172,12,cs)
);
},
{
closed = 1;
nodes = (
(427,-14,o),
(467,33,o),
(492,75,c),
(474,87,l),
(457,57,o),
(426,19,o),
(397,19,cs),
(386,19,o),
(381,26,o),
(381,39,cs),
(381,50,o),
(385,65,o),
(391,85,cs),
(516,440,l),
(450,440,l),
(329,113,ls),
(320,87,o),
(314,62,o),
(314,41,cs),
(314,8,o),
(329,-14,o),
(370,-14,cs)
);
}
);
width = 533;
}
);
metricLeft = o;
unicode = 97;
},
{
color = 3;
glyphname = ae;
kernLeft = a;
kernRight = e;
layers = (
{
layerId = "9372F035-DA38-4B54-966C-CEBA9B53DD02";
shapes = (
{
closed = 1;
nodes = (
(365,247,o),
(375,301,o),
(375,353,cs),
(375,418,o),
(335,454,o),
(251,454,cs),
(136,454,o),
(96,394,o),
(96,354,cs),
(96,330,o),
(108,311,o),
(136,311,cs),
(165,311,o),
(179,332,o),
(181,357,cs),
(184,392,o),
(199,432,o),
(255,432,cs),
(298,432,o),
(314,404,o),
(314,367,cs),
(314,336,o),
(303,290,o),
(294,260,c),
(332,118,l)
);
},
{
closed = 1;
nodes = (
(189,-11,o),
(256,32,o),
(296,93,c),
(290,130,l),
(269,78,o),
(204,24,o),
(161,24,cs),
(125,24,o),
(101,44,o),
(101,75,cs),
(101,165,o),
(236,222,o),
(319,247,c),
(322,270,l),
(226,244,o),
(26,174,o),
(26,62,cs),
(26,14,o),
(70,-11,o),
(132,-11,cs)
);
},
{
pos = (234,0);
ref = e;
}
);
width = 652;
}
);
metricLeft = a;
metricRight = e;
unicode = 230;
},
{
color = 6;
glyphname = b;
kernLeft = l;
kernRight = b;
layers = (
{
anchors = (
{
name = bottom;
pos = (157,0);
},
{
name = top;
pos = (317,440);
}
);
backgroundImage = {
imagePath = "../../../../1878 Limprimerie Berger Levrault Notice historique/Italique/La Rehab.jpg";
locked = 1;
pos = (-4227,-249);
scale = (12.739,12.739);
slant = (20,0);
};
layerId = "9372F035-DA38-4B54-966C-CEBA9B53DD02";
shapes = (
{
closed = 1;
nodes = (
(320,-14,o),
(460,128,o),
(460,300,cs),
(460,397,o),
(409,454,o),
(333,454,cs),
(297,454,o),
(261,438,o),
(231,414,cs),
(209,398,o),
(193,379,o),
(177,354,c),
(179,343,l),
(296,713,l),
(134,710,l),
(127,686,l),
(164,686,o),
(202,689,o),
(202,653,cs),
(202,644,o),
(200,633,o),
(195,619,cs),
(71,233,ls),
(55,184,o),
(46,142,o),
(46,108,cs),
(46,26,o),
(94,-14,o),
(179,-14,cs)
);
},
{
closed = 1;
nodes = (
(140,8,o),
(113,38,o),
(113,91,cs),
(113,125,o),
(119,169,o),
(137,221,cs),
(156,274,ls),
(185,353,o),
(258,426,o),
(312,426,cs),
(355,426,o),
(384,394,o),
(384,317,cs),
(384,183,o),
(283,8,o),
(179,8,cs)
);
}
);
width = 493;
}
);
metricRight = o;
unicode = 98;
},
{
color = 6;
glyphname = c;
kernLeft = o;
kernRight = o;
layers = (
{
anchors = (
{
name = bottom;
pos = (204,0);
},
{
name = top;
pos = (304,440);
}
);
backgroundImage = {
angle = -1.01281;
imagePath = "../../../../1878 Limprimerie Berger Levrault Notice historique/Italique/Nancy.JPG";
locked = 1;
pos = (-6434,-3916);
scale = (2.698,2.7681);
slant = (20.4524,0);
};
layerId = "9372F035-DA38-4B54-966C-CEBA9B53DD02";
shapes = (
{
closed = 1;
nodes = (
(284,-14,o),
(339,33,o),
(368,90,c),
(350,103,l),
(339,84,o),
(327,68,o),
(311,53,cs),
(284,26,o),
(249,11,o),
(217,11,cs),
(144,11,o),
(114,73,o),
(114,148,cs),
(114,275,o),
(217,432,o),
(326,432,cs),
(363,432,o),
(358,409,o),
(358,367,cs),
(358,343,o),
(374,327,o),
(399,327,cs),
(429,327,o),
(444,354,o),
(444,379,cs),
(444,405,o),
(431,454,o),
(332,454,cs),
(188,454,o),
(36,318,o),
(36,155,cs),
(36,56,o),
(92,-14,o),
(200,-14,cs)
);
}
);
width = 438;
}
);
metricLeft = o;
unicode = 99;
},
{
color = 6;
glyphname = d;
kernLeft = o;
kernRight = l;
layers = (
{
anchors = (
{
name = bottom;
pos = (183,0);
},
{
name = center;
pos = (513,531);
},
{
name = top;
pos = (322,440);
},
{
name = topright;
pos = (619,710);
}
);
layerId = "9372F035-DA38-4B54-966C-CEBA9B53DD02";
shapes = (
{
closed = 1;
nodes = (
(233,-14,o),
(296,37,o),
(343,120,c),
(416,318,l),
(420,395,o),
(390,454,o),
(319,454,cs),
(189,454,o),
(27,296,o),
(27,127,cs),
(27,52,o),
(68,-14,o),
(162,-14,cs)
);
},
{
closed = 1;
nodes = (
(129,12,o),
(102,44,o),
(102,107,cs),
(102,242,o),
(219,428,o),
(325,428,cs),
(372,428,o),
(394,390,o),
(394,336,cs),
(394,306,o),
(387,270,o),
(374,234,cs),
(328,103,o),
(253,12,o),
(172,12,cs)
);
},
{
closed = 1;
nodes = (
(433,-14,o),
(473,33,o),
(498,75,c),
(480,87,l),
(463,57,o),
(432,19,o),
(403,19,cs),
(392,19,o),
(387,26,o),
(387,39,cs),
(387,50,o),
(391,65,o),
(397,85,cs),
(602,713,l),
(440,710,l),
(433,686,l),
(470,686,o),
(506,689,o),
(506,652,cs),
(506,643,o),
(504,630,o),
(499,615,cs),
(335,113,ls),
(326,87,o),
(320,62,o),
(320,41,cs),
(320,8,o),
(335,-14,o),
(376,-14,cs)
);
}
);
width = 539;
}
);
metricLeft = o;
unicode = 100;
},
{
color = 6;
glyphname = eth;
kernLeft = o;
kernRight = O;
layers = (
{
anchors = (
{
name = bottom;
pos = (177,0);
},
{
name = center;
pos = (257,220);
},
{
name = ogonek;
pos = (320,0);
},
{
name = top;
pos = (321,440);
},
{
name = topright;
pos = (531,440);
}
);
layerId = "9372F035-DA38-4B54-966C-CEBA9B53DD02";
shapes = (
{
closed = 1;
nodes = (
(393,-14,o),
(504,202,o),
(504,384,cs),
(504,522,o),
(420,659,o),
(322,724,c),
(300,724,l),
(404,606,o),
(438,530,o),
(438,387,c),
(449,394,l),
(423,430,o),
(378,454,o),
(318,454,cs),
(168,454,o),
(36,308,o),
(36,149,cs),
(36,62,o),
(89,-14,o),
(196,-14,cs)
);
},
{
closed = 1;
nodes = (
(138,8,o),
(107,47,o),
(107,121,cs),
(107,233,o),
(198,432,o),
(320,432,cs),
(377,432,o),
(408,394,o),
(408,322,cs),
(408,209,o),
(317,8,o),
(195,8,cs)
);
},
{
closed = 1;
nodes = (
(543,619,l),
(543,643,l),
(270,595,l),
(270,570,l)
);
}
);
width = 518;
}
);
metricLeft = o;
metricRight = o;
unicode = 240;
},
{
color = 6;
glyphname = e;
kernLeft = o;
kernRight = o;
layers = (
{
anchors = (
{
name = bottom;
pos = (187,0);
},
{
name = ogonek;
pos = (281,0);
},
{
name = top;
pos = (299,440);
}
);
layerId = "9372F035-DA38-4B54-966C-CEBA9B53DD02";
shapes = (
{
closed = 1;
nodes = (
(262,-14,o),
(310,33,o),
(341,76,c),
(324,90,l),
(298,54,o),
(253,12,o),
(201,12,cs),
(136,12,o),
(112,76,o),
(112,134,cs),
(112,275,o),
(218,432,o),
(307,432,cs),
(339,432,o),
(351,411,o),
(351,381,cs),
(350,347,o),
(329,271,o),
(187,251,cs),
(122,242,l),
(119,221,l),
(208,230,ls),
(331,243,o),
(408,287,o),
(410,366,cs),
(410,418,o),
(371,452,o),
(308,452,cs),
(181,452,o),
(37,318,o),
(37,154,cs),
(37,66,o),
(82,-14,o),
(188,-14,cs)
);
}
);
width = 418;
}
);
metricLeft = o;
unicode = 101;
},
{
color = 6;
glyphname = f;
kernLeft = f;
kernRight = f;
layers = (
{
guides = (
{
angle = 72;
pos = (72,54);
}
);
layerId = "9372F035-DA38-4B54-966C-CEBA9B53DD02";
shapes = (
{
closed = 1;
nodes = (
(-12,-290,o),
(41,-260,o),
(85,-127,cs),
(327,611,ls),
(351,684,o),
(392,702,o),
(418,702,cs),
(444,702,o),
(453,689,o),
(453,651,cs),
(453,622,o),
(463,601,o),
(494,601,cs),
(527,601,o),
(540,627,o),
(540,654,cs),
(540,689,o),
(509,724,o),
(436,724,cs),
(350,724,o),
(277,683,o),
(234,552,cs),
(13,-127,ls),
(-15,-213,o),
(-46,-268,o),
(-81,-268,cs),
(-125,-268,o),
(-102,-170,o),
(-161,-170,cs),
(-189,-170,o),
(-210,-190,o),
(-210,-217,cs),
(-210,-253,o),
(-181,-290,o),
(-99,-290,cs)
);
},
{
closed = 1;
nodes = (
(370,416,l),
(378,440,l),
(111,440,l),
(103,416,l)
);
}
);
width = 342;
}
);
unicode = 102;
},
{
color = 6;
glyphname = g;
kernLeft = g;
kernRight = g;
layers = (
{
anchors = (
{
name = top;
pos = (286,440);
}
);
layerId = "9372F035-DA38-4B54-966C-CEBA9B53DD02";
shapes = (
{
closed = 1;
nodes = (
(363,-290,o),
(400,-167,o),
(400,-111,cs),
(400,-48,o),
(365,7,o),
(251,21,cs),
(131,36,ls),
(82,42,o),
(64,61,o),
(64,81,cs),
(64,110,o),
(97,140,o),
(167,164,c),
(152,181,l),
(60,150,o),
(21,107,o),
(21,56,cs),
(21,9,o),
(60,-25,o),
(136,-35,cs),
(265,-52,ls),
(332,-61,o),
(355,-99,o),
(355,-135,cs),
(355,-204,o),
(292,-268,o),
(170,-268,cs),
(57,-268,o),
(27,-224,o),
(27,-197,cs),
(27,-170,o),
(46,-149,o),
(46,-124,cs),
(46,-106,o),
(35,-83,o),
(5,-83,cs),
(-24,-83,o),
(-47,-112,o),
(-47,-148,cs),
(-47,-206,o),
(19,-290,o),
(167,-290,cs)
);
},
{
closed = 1;
nodes = (
(352,134,o),
(447,212,o),
(447,315,cs),
(447,384,o),
(399,453,o),
(293,453,cs),
(180,453,o),
(91,374,o),
(91,272,cs),
(91,208,o),
(131,134,o),
(251,134,cs)
);
},
{
closed = 1;
nodes = (
(192,158,o),
(159,197,o),
(159,250,cs),
(159,330,o),
(209,429,o),
(295,429,cs),
(347,429,o),
(379,391,o),
(379,338,cs),
(379,267,o),
(334,158,o),
(241,158,cs)
);
},
{
closed = 1;
nodes = (
(560,378,o),
(575,399,o),
(575,419,cs),
(575,452,o),
(546,478,o),
(502,478,cs),
(460,478,o),
(407,452,o),
(384,413,c),
(402,403,l),
(435,439,o),
(453,449,o),
(469,449,cs),
(488,449,o),
(492,435,o),
(492,417,cs),
(492,391,o),
(512,378,o),
(534,378,cs)
);
}
);
width = 534;
}
);
unicode = 103;
},
{
color = 6;
glyphname = h;
kernLeft = l;
kernRight = n;
layers = (
{
anchors = (
{
name = bottom;
pos = (182,0);
},
{
name = center;
pos = (225,521);
},
{
name = top;
pos = (431,710);
}
);
backgroundImage = {
imagePath = "../../../../1878 Limprimerie Berger Levrault Notice historique/Italique/La Rehab.jpg";
locked = 1;
pos = (-3540,-264);
scale = (12.7392,12.7392);
slant = (36.0524,0);
};
guides = (
{
angle = 72;
pos = (2,-13);
},
{
angle = 72;
pos = (73,-13);
}
);
layerId = "9372F035-DA38-4B54-966C-CEBA9B53DD02";
shapes = (
{
closed = 1;
nodes = (
(161,257,l),
(186,326,o),
(283,429,o),
(359,429,cs),
(380,429,o),
(397,417,o),
(397,391,cs),
(397,381,o),
(395,370,o),
(390,356,cs),
(303,110,ls),
(294,84,o),
(288,60,o),
(288,40,cs),
(288,8,o),
(303,-14,o),
(344,-14,cs),
(401,-14,o),
(441,31,o),
(466,72,c),
(448,84,l),
(431,55,o),
(400,19,o),
(371,19,cs),
(360,19,o),
(355,26,o),
(355,39,cs),
(355,49,o),
(358,63,o),
(364,80,cs),
(454,331,ls),
(461,351,o),
(465,370,o),
(465,388,cs),
(465,426,o),
(444,454,o),
(378,454,cs),
(289,454,o),
(217,386,o),
(173,322,c)
);
},
{
closed = 1;
nodes = (
(305,702,l),
(309,713,l),
(147,710,l),
(140,686,l),
(178,686,o),
(213,690,o),
(213,652,cs),
(213,643,o),
(211,631,o),
(206,616,cs),
(5,0,l),
(77,0,l)
);
}
);
width = 518;
}
);
metricRight = n;
unicode = 104;
},
{
color = 6;
glyphname = idotless;
kernLeft = n;
kernRight = u;
layers = (
{
anchors = (
{
name = bottom;
pos = (65,0);
},
{
name = ogonek;
pos = (176,0);
},
{
name = top;
pos = (203,440);
}
);
layerId = "9372F035-DA38-4B54-966C-CEBA9B53DD02";
shapes = (
{
closed = 1;
nodes = (
(157,-14,o),
(197,33,o),
(222,75,c),
(204,87,l),
(187,57,o),
(156,19,o),
(127,19,cs),
(116,19,o),
(111,26,o),
(111,39,cs),
(111,50,o),
(115,65,o),
(121,85,cs),
(247,443,l),
(85,440,l),
(78,416,l),
(116,416,o),
(154,418,o),
(154,382,cs),
(154,373,o),
(151,361,o),
(146,347,cs),
(59,113,ls),
(50,87,o),
(44,62,o),
(44,41,cs),
(44,8,o),
(59,-14,o),
(100,-14,cs)
);
}
);
width = 279;
}
);
unicode = 305;
},
{
color = 6;
glyphname = jdotless;
kernLeft = f;
kernRight = j;
layers = (
{
anchors = (
{
name = bottom;
pos = (72,0);
},
{
name = top;
pos = (218,440);
}
);
layerId = "9372F035-DA38-4B54-966C-CEBA9B53DD02";
shapes = (
{
closed = 1;
nodes = (
(-24,-290,o),
(29,-249,o),
(67,-132,cs),
(254,443,l),
(92,440,l),
(85,416,l),
(122,416,o),
(161,417,o),
(161,384,cs),
(161,378,o),
(159,370,o),
(156,360,cs),
(-2,-127,ls),
(-30,-214,o),
(-57,-268,o),
(-93,-268,cs),
(-137,-268,o),
(-114,-170,o),
(-173,-170,cs),
(-201,-170,o),
(-222,-190,o),
(-222,-217,cs),
(-222,-253,o),
(-193,-290,o),
(-111,-290,cs)
);
}
);
width = 270;
}
);
unicode = 567;
},
{
color = 6;
glyphname = k;
kernLeft = l;
kernRight = k;
layers = (
{
anchors = (
{
name = bottom;
pos = (174,0);
},
{
name = top;
pos = (334,440);
}
);
guides = (
{
angle = 72;
pos = (-1350,212);
}
);
layerId = "9372F035-DA38-4B54-966C-CEBA9B53DD02";
shapes = (
{
closed = 1;
nodes = (
(370,-14,o),
(418,9,o),
(453,72,c),
(436,84,l),
(409,39,o),
(379,19,o),
(362,19,cs),
(335,19,o),
(335,37,o),
(333,136,cs),
(331,249,o),
(298,284,o),
(163,284,c),
(161,269,l),
(245,269,o),
(265,236,o),
(265,132,cs),
(265,22,o),
(275,-14,o),
(332,-14,cs)
);
},
{
closed = 1;
nodes = (
(233,270,o),
(255,295,o),
(298,340,cs),
(339,383,ls),
(357,403,o),
(369,414,o),
(383,414,cs),
(387,414,o),
(391,412,o),
(393,409,cs),
(397,404,o),
(398,396,o),
(398,373,cs),
(398,348,o),
(417,337,o),
(435,337,cs),
(461,337,o),
(478,362,o),
(478,392,cs),
(478,411,o),
(471,454,o),
(418,454,cs),
(384,454,o),
(360,433,o),
(323,394,cs),
(286,355,ls),
(243,310,o),
(214,284,o),
(143,284,c),
(143,270,l)
);
},
{
closed = 1;
nodes = (
(308,713,l),
(147,710,l),
(140,686,l),
(178,686,o),
(213,690,o),
(213,652,cs),
(213,643,o),
(211,631,o),
(206,616,cs),
(5,0,l),
(77,0,l)
);
}
);
visible = 1;
width = 486;
}
);
metricLeft = h;
unicode = 107;
},
{
color = 6;
glyphname = l;
kernLeft = l;
kernRight = l;
layers = (
{
anchors = (
{
name = bottom;
pos = (90,0);
},
{
name = center;
pos = (191,398);
},
{
name = top;
pos = (274,710);
},
{
name = topright;
pos = (332,710);
}
);
backgroundImage = {
imagePath = "../../../../1878 Limprimerie Berger Levrault Notice historique/Italique/Reglu.jpg";
locked = 1;
pos = (-2298,-389);
scale = (12.998,12.998);
slant = (20,0);
};
layerId = "9372F035-DA38-4B54-966C-CEBA9B53DD02";
shapes = (
{
closed = 1;
nodes = (
(147,-14,o),
(187,33,o),
(212,75,c),
(194,87,l),
(177,57,o),
(146,19,o),
(117,19,cs),
(106,19,o),
(101,26,o),
(101,39,cs),
(101,50,o),
(105,65,o),
(111,85,cs),
(316,713,l),
(154,710,l),
(147,686,l),
(184,686,o),
(220,689,o),
(220,652,cs),
(220,643,o),
(218,630,o),
(213,615,cs),
(49,113,ls),
(40,87,o),
(34,62,o),
(34,41,cs),
(34,8,o),
(49,-14,o),
(90,-14,cs)
);
}
);
width = 265;
}
);
unicode = 108;
},
{
color = 6;
glyphname = m;
kernLeft = n;
kernRight = n;
layers = (
{
anchors = (
{
name = bottom;
pos = (304,0);
},
{
name = top;
pos = (464,440);
}
);
backgroundImage = {
imagePath = "../../../../1878 Limprimerie Berger Levrault Notice historique/Italique/jamais.JPG";
locked = 1;
pos = (-4775,-3929);
scale = (2.774,2.7492);
slant = (19.6714,0);
};
layerId = "9372F035-DA38-4B54-966C-CEBA9B53DD02";
shapes = (
{
closed = 1;
nodes = (
(662,-14,o),
(701,31,o),
(726,72,c),
(708,84,l),
(691,55,o),
(660,19,o),
(637,19,cs),
(624,19,o),
(619,30,o),
(619,45,cs),
(619,61,o),
(624,82,o),
(631,103,cs),
(714,331,ls),
(721,349,o),
(724,366,o),
(724,383,cs),
(724,423,o),
(701,454,o),
(638,454,cs),
(566,454,o),
(505,405,o),
(464,351,c),
(466,362,o),
(467,372,o),
(467,382,cs),
(467,423,o),
(448,454,o),
(384,454,cs),
(309,454,o),
(248,402,o),
(206,346,c),
(235,443,l),
(88,440,l),
(80,416,l),
(117,416,o),
(148,419,o),
(148,386,cs),
(148,376,o),
(145,362,o),
(138,344,cs),
(14,0,l),
(86,0,l),
(179,257,ls),
(205,328,o),
(294,429,o),
(365,429,cs),
(386,429,o),
(403,418,o),
(403,391,cs),
(403,381,o),
(401,370,o),
(396,356,cs),
(266,0,l),
(340,0,l),
(437,267,ls),
(463,339,o),
(551,429,o),
(619,429,cs),
(640,429,o),
(657,418,o),
(657,392,cs),
(657,382,o),
(655,370,o),
(650,356,cs),
(569,135,ls),
(557,100,o),
(549,70,o),
(549,45,cs),
(549,9,o),
(566,-14,o),
(613,-14,cs)
);
}
);
width = 778;
}
);
metricLeft = n;
metricRight = n;
unicode = 109;
},
{
color = 6;
glyphname = n;
kernLeft = n;
kernRight = n;
layers = (
{
anchors = (
{
name = bottom;
pos = (183,0);
},
{
name = top;
pos = (334,440);
}
);
layerId = "9372F035-DA38-4B54-966C-CEBA9B53DD02";
shapes = (
{
closed = 1;
nodes = (
(419,-14,o),
(459,31,o),
(484,72,c),
(466,84,l),
(449,55,o),
(421,19,o),
(391,19,cs),
(368,19,o),
(372,52,o),
(382,80,cs),
(472,331,ls),
(500,410,o),
(477,454,o),
(396,454,cs),
(309,454,o),
(237,388,o),
(194,323,c),
(196,312,l),
(235,443,l),
(88,440,l),
(80,416,l),
(143,416,o),
(161,409,o),
(138,344,cs),
(14,0,l),
(86,0,l),
(179,257,ls),
(205,329,o),
(301,429,o),
(374,429,cs),
(413,429,o),
(423,398,o),
(408,356,cs),
(321,110,ls),
(312,84,o),
(306,60,o),
(306,40,cs),
(306,8,o),
(321,-14,o),
(362,-14,cs)
);
}
);
width = 536;
}
);
unicode = 110;
},
{
color = 6;
glyphname = eng;
kernLeft = n;
kernRight = n;
layers = (
{
anchors = (
{
name = bottom;
pos = (183,0);
},
{
name = top;
pos = (323,440);
}
);
layerId = "9372F035-DA38-4B54-966C-CEBA9B53DD02";
shapes = (
{
closed = 1;
nodes = (
(207,-290,o),
(259,-247,o),
(301,-132,cs),
(472,331,ls),
(479,351,o),
(483,370,o),
(483,388,cs),
(483,426,o),
(462,454,o),
(396,454,cs),
(272,454,o),
(181,323,o),
(156,255,c),
(179,257,l),
(206,329,o),
(301,429,o),
(377,429,cs),
(398,429,o),
(415,417,o),
(415,391,cs),
(415,381,o),
(413,370,o),
(408,356,cs),
(233,-127,ls),
(203,-210,o),
(173,-268,o),
(138,-268,cs),
(94,-268,o),
(117,-170,o),
(58,-170,cs),
(30,-170,o),
(9,-190,o),
(9,-217,cs),
(9,-253,o),
(38,-290,o),
(120,-290,cs)
);
},
{
closed = 1;
nodes = (
(86,0,l),
(209,340,l),
(205,342,l),
(235,443,l),
(88,440,l),
(80,416,l),
(117,416,o),
(148,419,o),
(148,386,cs),
(148,376,o),
(145,362,o),
(138,344,cs),
(14,0,l)
);
}
);
width = 507;
}
);
metricLeft = n;
metricRight = j;
unicode = 331;
},
{
color = 6;
glyphname = o;
kernLeft = o;
kernRight = o;
layers = (
{
anchors = (
{
name = bottom;
pos = (177,0);
},
{
name = center;
pos = (257,220);
},
{
name = ogonek;
pos = (320,0);
},
{
name = top;
pos = (334,440);
},
{
name = topright;
pos = (531,440);
}
);
layerId = "9372F035-DA38-4B54-966C-CEBA9B53DD02";
shapes = (
{
closed = 1;
nodes = (
(348,-14,o),
(479,133,o),
(479,294,cs),
(479,379,o),
(426,454,o),
(318,454,cs),
(168,454,o),
(36,308,o),
(36,149,cs),
(36,62,o),
(89,-14,o),
(196,-14,cs)
);
},
{
closed = 1;
nodes = (
(138,8,o),
(107,47,o),
(107,121,cs),
(107,233,o),
(198,432,o),
(320,432,cs),
(377,432,o),
(408,394,o),
(408,322,cs),
(408,209,o),
(317,8,o),
(195,8,cs)
);
}
);
width = 514;
}
);
unicode = 111;
},
{
color = 6;
glyphname = p;
kernLeft = p;
kernRight = o;
layers = (
{
anchors = (
{
name = bottom;
pos = (177,0);
},
{
name = top;
pos = (337,440);
}
);
backgroundImage = {
imagePath = "../../../../1878 Limprimerie Berger Levrault Notice historique/Italique/reotypie.JPG";
locked = 1;
pos = (-2364,-373);
scale = (12.6307,12.6307);
slant = (20,0);
};
guides = (
{
angle = 72;
pos = (150,374);
}
);
layerId = "9372F035-DA38-4B54-966C-CEBA9B53DD02";
shapes = (
{
closed = 1;
nodes = (
(80,-280,l),
(87,-256,l),
(53,-256,ls),
(21,-256,o),
(21,-243,o),
(34,-201,cs),
(136,120,l),
(120,118,l),
(119,33,o),
(163,-14,o),
(224,-14,cs),
(351,-14,o),
(494,130,o),
(494,300,cs),
(494,391,o),
(442,454,o),
(361,454,cs),
(331,454,o),
(294,442,o),
(256,413,cs),
(239,400,o),
(222,383,o),
(205,361,c),
(224,443,l),
(90,440,l),
(82,416,l),
(120,416,o),
(151,420,o),
(151,386,cs),
(151,376,o),
(148,363,o),
(142,345,cs),
(-37,-200,ls),
(-53,-249,o),
(-65,-256,o),
(-94,-256,cs),
(-118,-256,l),
(-126,-280,l)
);
},
{
closed = 1;
nodes = (
(173,12,o),
(142,48,o),
(142,112,cs),
(142,142,o),
(149,179,o),
(164,221,cs),
(183,274,ls),
(214,357,o),
(287,427,o),
(345,427,cs),
(389,427,o),
(419,395,o),
(419,320,cs),
(419,182,o),
(320,12,o),
(223,12,cs)
);
}
);
width = 527;
}
);
metricLeft = "=i+5";
metricRight = o;
unicode = 112;
},
{
color = 6;
glyphname = thorn;
kernLeft = l;
kernRight = o;
layers = (
{
anchors = (
{
name = bottom;
pos = (177,0);
},
{
name = top;
pos = (337,440);
}
);
layerId = "9372F035-DA38-4B54-966C-CEBA9B53DD02";
shapes = (
{
closed = 1;
nodes = (
(60,-280,l),
(67,-256,l),
(33,-256,ls),
(15,-256,o),
(6,-253,o),
(6,-239,cs),
(6,-231,o),
(9,-219,o),
(15,-201,cs),
(121,90,l),
(129,23,o),
(170,-14,o),
(224,-14,cs),
(351,-14,o),
(494,130,o),
(494,300,cs),
(494,391,o),
(442,454,o),
(361,454,cs),
(331,454,o),
(294,442,o),
(256,413,cs),
(244,404,o),
(232,393,o),
(220,379,c),
(348,713,l),
(182,710,l),
(175,686,l),
(212,686,o),
(250,689,o),
(250,652,cs),
(250,643,o),
(248,630,o),
(242,615,cs),
(-57,-200,ls),
(-75,-248,o),
(-85,-256,o),
(-114,-256,cs),
(-138,-256,l),
(-146,-280,l)
);
},
{
closed = 1;
nodes = (
(173,12,o),
(142,48,o),
(142,112,cs),
(142,142,o),
(149,179,o),
(164,221,cs),
(183,274,ls),
(214,357,o),
(287,427,o),
(345,427,cs),
(389,427,o),
(419,395,o),
(419,320,cs),
(419,182,o),
(320,12,o),
(223,12,cs)
);
}
);
width = 527;
}
);
unicode = 254;
},
{
color = 6;
glyphname = q;
kernLeft = o;
kernRight = u;
layers = (
{
anchors = (
{
name = bottom;
pos = (185,0);
},
{
name = top;
pos = (335,440);
}
);
backgroundImage = {
imagePath = "../../../../1878 Limprimerie Berger Levrault Notice historique/Italique/ilboquet.JPG";
locked = 1;
pos = (-5713,-3929);
scale = (3.0573,2.7567);
slant = (16.4834,0);
};
layerId = "9372F035-DA38-4B54-966C-CEBA9B53DD02";
shapes = (
{
closed = 1;
nodes = (
(343,-280,l),
(350,-256,l),
(316,-256,ls),
(286,-256,o),
(285,-237,o),
(297,-201,cs),
(507,440,l),
(437,440,l),
(404,329,l),
(417,334,l),
(415,403,o),
(385,454,o),
(319,454,cs),
(189,454,o),
(27,296,o),
(27,127,cs),
(27,52,o),
(68,-14,o),
(162,-14,cs),
(225,-14,o),
(281,26,o),
(325,93,c),
(328,109,l),
(226,-200,ls),
(212,-242,o),
(186,-256,o),
(155,-256,cs),
(125,-256,l),
(117,-280,l)
);
},
{
closed = 1;
nodes = (
(129,12,o),
(102,44,o),
(102,107,cs),
(102,242,o),
(219,428,o),
(325,428,cs),
(372,428,o),
(394,390,o),
(394,336,cs),
(394,306,o),
(387,270,o),
(374,234,cs),
(327,103,o),
(253,12,o),
(172,12,cs)
);
}
);
width = 508;
}
);
metricLeft = o;
unicode = 113;
},
{
color = 6;
glyphname = r;
kernLeft = n;
kernRight = r;
layers = (
{
anchors = (
{
name = bottom;
pos = (39,0);
},
{
name = top;
pos = (263,440);
}
);
guides = (
{
pos = (-89,430);
}
);
layerId = "9372F035-DA38-4B54-966C-CEBA9B53DD02";
shapes = (
{
closed = 1;
nodes = (
(81,0,l),
(147,182,ls),
(172,250,o),
(198,301,o),
(221,338,cs),
(255,392,o),
(283,415,o),
(309,415,cs),
(327,415,o),
(335,405,o),
(339,385,cs),
(345,356,o),
(357,342,o),
(383,342,cs),
(413,342,o),
(425,367,o),
(425,387,cs),
(425,433,o),
(383,454,o),
(349,454,cs),
(274,454,o),
(219,380,o),
(176,296,c),
(220,443,l),
(83,440,l),
(75,416,l),
(138,416,o),
(157,410,o),
(133,344,cs),
(9,0,l)
);
}
);
width = 390;
}
);
metricLeft = "=n-5";
unicode = 114;
},
{
color = 6;
glyphname = s;
kernLeft = s;
kernRight = s;
layers = (
{
anchors = (
{
name = bottom;
pos = (139,0);
},
{
name = top;
pos = (239,440);
}
);
backgroundImage = {
angle = -0.40204;
imagePath = "../../../../1878 Limprimerie Berger Levrault Notice historique/Italique/Puissan.JPG";
locked = 1;
pos = (-6140,-4049);
scale = (2.9415,2.9717);
slant = (20.1847,0);
};
layerId = "9372F035-DA38-4B54-966C-CEBA9B53DD02";
shapes = (
{
closed = 1;
nodes = (
(228,-14,o),
(292,56,o),
(292,124,cs),
(292,181,o),
(260,213,o),
(235,238,cs),
(197,278,ls),
(173,304,o),
(163,330,o),
(163,357,cs),
(163,396,o),
(192,432,o),
(241,432,cs),
(288,432,o),
(281,393,o),
(281,371,cs),
(281,345,o),
(300,334,o),
(316,334,cs),
(343,334,o),
(360,355,o),
(360,380,cs),
(360,407,o),
(339,454,o),
(242,454,cs),
(150,454,o),
(106,388,o),
(106,327,cs),
(106,289,o),
(120,249,o),
(150,217,cs),
(187,178,ls),
(216,144,o),
(225,127,o),
(225,96,cs),
(225,56,o),
(192,8,o),
(131,8,cs),
(94,8,o),
(67,28,o),
(67,55,cs),
(67,78,o),
(81,90,o),
(81,112,cs),
(81,132,o),
(67,147,o),
(46,147,cs),
(15,147,o),
(-2,124,o),
(-2,93,cs),
(-2,50,o),
(32,-14,o),
(136,-14,cs)
);
}
);
width = 363;
}
);
unicode = 115;
},
{
color = 6;
glyphname = germandbls;
kernLeft = f;
layers = (
{
layerId = "9372F035-DA38-4B54-966C-CEBA9B53DD02";
shapes = (
{
closed = 1;
nodes = (
(464,-14,o),
(550,62,o),
(550,157,cs),
(550,233,o),
(506,277,o),
(473,317,cs),
(451,343,o),
(431,363,o),
(431,399,cs),
(431,449,o),
(473,477,o),
(508,502,cs),
(556,543,o),
(618,572,o),
(618,638,cs),
(618,687,o),
(569,724,o),
(493,724,cs),
(379,724,o),
(285,675,o),
(220,498,cs),
(82,121,ls),
(49,31,o),
(35,30,o),
(-26,22,cs),
(-42,20,l),
(-51,-3,l),
(73,0,l),
(119,0,l),
(126,33,o),
(133,65,o),
(153,121,cs),
(308,550,l),
(338,633,o),
(391,701,o),
(470,701,cs),
(511,701,o),
(540,681,o),
(540,620,cs),
(540,567,o),
(496,525,o),
(475,509,cs),
(425,471,o),
(360,435,o),
(360,373,cs),
(360,324,o),
(399,293,o),
(430,258,cs),
(459,225,o),
(478,192,o),
(478,143,cs),
(478,65,o),
(425,8,o),
(341,8,cs),
(299,8,o),
(274,29,o),
(274,54,cs),
(274,78,o),
(289,88,o),
(289,114,cs),
(289,133,o),
(275,147,o),
(254,147,cs),
(219,147,o),
(205,118,o),
(205,84,cs),
(205,35,o),
(254,-14,o),
(342,-14,cs)
);
},
{
closed = 1;
nodes = (
(209,416,l),
(217,440,l),
(111,440,l),
(103,416,l)
);
}
);
width = 593;
}
);
unicode = 223;
},
{
color = 6;
glyphname = t;
kernLeft = t;
kernRight = t;
layers = (
{
anchors = (
{
name = bottom;
pos = (114,0);
},
{
name = center;
pos = (192,306);
},
{
name = top;
pos = (224,440);
},
{
name = topright;
pos = (336,665);
}
);
layerId = "9372F035-DA38-4B54-966C-CEBA9B53DD02";
shapes = (
{
closed = 1;
nodes = (
(167,-14,o),
(210,31,o),
(235,72,c),
(217,84,l),
(200,55,o),
(169,19,o),
(139,19,cs),
(124,19,o),
(115,28,o),
(115,46,cs),
(115,55,o),
(118,67,o),
(123,82,cs),
(279,526,l),
(212,526,l),
(62,110,ls),
(53,85,o),
(47,61,o),
(47,42,cs),
(47,9,o),
(63,-14,o),
(102,-14,cs)
);
},
{
closed = 1;
nodes = (
(333,416,l),
(341,440,l),
(115,440,l),
(107,416,l)
);
}
);
width = 308;
}
);
unicode = 116;
},
{
color = 6;
glyphname = u;
kernLeft = u;
kernRight = u;
layers = (
{
anchors = (
{
name = bottom;
pos = (187,0);
},
{
name = ogonek;
pos = (429,0);
},
{
name = top;
pos = (321,440);
},
{
name = topright;
pos = (499,440);
}
);
backgroundImage = {
imagePath = "../../../../1878 Limprimerie Berger Levrault Notice historique/Italique/Reglu.jpg";
locked = 1;
pos = (-3051,-389);
scale = (12.998,12.998);
slant = (36.0524,0);
};
guides = (
{
angle = 70;
pos = (308,539);
},
{
angle = 70;
pos = (232,540);
},
{
angle = 70;
pos = (558,522);
},
{
angle = 70;
pos = (488,522);
}
);
layerId = "9372F035-DA38-4B54-966C-CEBA9B53DD02";
shapes = (
{
closed = 1;
nodes = (
(218,-14,o),
(284,45,o),
(327,107,c),
(322,113,l),
(313,87,o),
(307,61,o),
(307,41,cs),
(307,8,o),
(322,-14,o),
(363,-14,cs),
(420,-14,o),
(460,33,o),
(485,75,c),
(467,87,l),
(450,57,o),
(419,19,o),
(390,19,cs),
(379,19,o),
(374,26,o),
(374,39,cs),
(374,50,o),
(378,65,o),
(384,85,cs),
(509,440,l),
(443,440,l),
(348,186,ls),
(318,107,o),
(225,11,o),
(158,11,cs),
(115,11,o),
(108,51,o),
(129,108,cs),
(249,443,l),
(85,440,l),
(78,416,l),
(115,416,o),
(153,419,o),
(153,383,cs),
(153,373,o),
(151,361,o),
(145,346,cs),
(66,137,ls),
(27,35,o),
(54,-14,o),
(139,-14,cs)
);
}
);
width = 533;
}
);
metricLeft = i;
unicode = 117;
},
{
color = 6;
glyphname = v;
kernLeft = v;
kernRight = v;
layers = (
{
anchors = (
{
name = bottom;
pos = (146,0);
},
{
name = top;
pos = (306,440);
}
);
guides = (
{
angle = 249.5863;
pos = (170,286);
}
);
layerId = "9372F035-DA38-4B54-966C-CEBA9B53DD02";
shapes = (
{
closed = 1;
nodes = (
(192,-11,l),
(370,192,ls),
(431,261,o),
(481,318,o),
(481,379,cs),
(481,426,o),
(456,454,o),
(425,454,cs),
(398,454,o),
(379,431,o),
(379,413,cs),
(379,389,o),
(408,367,o),
(408,322,cs),
(408,288,o),
(383,241,o),
(340,193,cs),
(205,36,l),
(226,37,l),
(200,121,ls),
(177,199,o),
(161,254,o),
(161,309,cs),
(161,390,o),
(218,415,o),
(252,431,c),
(247,448,l),
(95,440,l),
(86,416,l),
(210,423,l),
(198,427,l),
(130,387,o),
(78,344,o),
(78,274,cs),
(78,231,o),
(95,192,o),
(115,148,cs),
(136,102,o),
(162,51,o),
(175,-11,c)
);
}
);
width = 483;
}
);
unicode = 118;
},
{
color = 6;
glyphname = w;
kernLeft = v;
kernRight = v;
layers = (
{
anchors = (
{
name = bottom;
pos = (331,0);
},
{
name = top;
pos = (431,440);
}
);
layerId = "9372F035-DA38-4B54-966C-CEBA9B53DD02";
shapes = (
{
closed = 1;
nodes = (
(192,-11,l),
(360,192,ls),
(416,261,o),
(441,318,o),
(441,371,cs),
(441,426,o),
(413,454,o),
(384,454,cs),
(362,454,o),
(342,432,o),
(342,411,cs),
(342,384,o),
(380,352,o),
(380,302,cs),
(380,261,o),
(357,223,o),
(328,188,cs),
(205,36,l),
(226,37,l),
(200,121,ls),
(177,199,o),
(161,254,o),
(161,309,cs),
(161,390,o),
(220,415,o),
(252,431,c),
(247,448,l),
(95,440,l),
(86,416,l),
(210,423,l),
(198,427,l),
(130,387,o),
(78,344,o),
(78,274,cs),
(78,231,o),
(95,192,o),
(115,148,cs),
(136,102,o),
(162,51,o),
(175,-11,c)
);
},
{
closed = 1;
nodes = (
(470,-11,l),
(638,192,ls),
(695,260,o),
(719,318,o),
(719,371,cs),
(719,426,o),
(691,454,o),
(664,454,cs),
(640,454,o),
(621,430,o),
(621,410,cs),
(621,385,o),
(657,352,o),
(657,302,cs),
(657,261,o),
(635,223,o),
(606,188,cs),
(483,36,l),
(506,37,l),
(476,121,ls),
(448,199,o),
(434,240,o),
(434,294,cs),
(434,384,o),
(497,415,o),
(533,432,c),
(525,448,l),
(473,431,o),
(429,388,o),
(412,353,c),
(378,250,l),
(378,203,o),
(388,175,o),
(396,152,cs),
(416,93,o),
(440,51,o),
(453,-11,c)
);
}
);
width = 728;
}
);
metricLeft = v;
metricRight = v;
unicode = 119;
},
{
color = 6;
glyphname = x;
kernLeft = x;
kernRight = x;
layers = (
{
anchors = (
{
name = bottom;
pos = (197,0);
},
{
name = top;
pos = (357,440);
}
);
backgroundImage = {
imagePath = "../../../../1878 Limprimerie Berger Levrault Notice historique/Italique/Beaux-A Societe.JPG";
locked = 1;
pos = (-6496,-4640);
scale = (3.1169,3.1169);
slant = (20,0);
};
guides = (
{
angle = 249.5863;
pos = (417,286);
}
);
layerId = "9372F035-DA38-4B54-966C-CEBA9B53DD02";
shapes = (
{
closed = 1;
nodes = (
(142,-11,o),
(207,36,o),
(255,107,cs),
(292,163,o),
(322,235,o),
(322,310,cs),
(322,396,o),
(290,454,o),
(217,454,cs),
(148,454,o),
(97,405,o),
(70,346,c),
(86,334,l),
(108,384,o),
(154,424,o),
(199,424,cs),
(247,424,o),
(252,370,o),
(252,317,cs),
(252,165,o),
(162,11,o),
(91,11,cs),
(55,11,o),
(62,44,o),
(62,70,cs),
(62,98,o),
(50,116,o),
(23,116,cs),
(-7,116,o),
(-24,91,o),
(-24,65,cs),
(-24,38,o),
(-8,-11,o),
(77,-11,cs)
);
},
{
closed = 1;
nodes = (
(406,-11,o),
(456,37,o),
(484,94,c),
(467,106,l),
(446,58,o),
(398,19,o),
(355,19,cs),
(313,19,o),
(299,66,o),
(299,127,cs),
(299,135,o),
(300,143,o),
(300,152,cs),
(308,276,o),
(395,432,o),
(463,432,cs),
(499,432,o),
(492,402,o),
(492,367,cs),
(492,349,o),
(502,327,o),
(533,327,cs),
(559,327,o),
(578,349,o),
(578,381,cs),
(578,405,o),
(561,454,o),
(477,454,cs),
(418,454,o),
(357,412,o),
(308,347,cs),
(289,322,o),
(231,127,o),
(234,101,cs),
(244,40,o),
(275,-11,o),
(342,-11,cs)
);
}
);
width = 553;
}
);
unicode = 120;
},
{
color = 6;
glyphname = y;
kernLeft = y;
kernRight = y;
layers = (
{
anchors = (
{
name = bottom;
pos = (215,0);
},
{
name = top;
pos = (300,440);
}
);
layerId = "9372F035-DA38-4B54-966C-CEBA9B53DD02";
shapes = (
{
closed = 1;
nodes = (
(28,-290,o),
(84,-259,o),
(203,-110,cs),
(345,66,ls),
(440,185,o),
(462,277,o),
(462,354,cs),
(462,426,o),
(432,454,o),
(406,454,cs),
(378,454,o),
(359,426,o),
(359,409,cs),
(359,388,o),
(372,377,o),
(387,362,cs),
(408,341,o),
(415,319,o),
(415,290,cs),
(415,257,o),
(413,186,o),
(317,66,cs),
(251,-17,l),
(276,-3,l),
(229,112,ls),
(204,173,o),
(166,253,o),
(166,316,cs),
(166,364,o),
(185,398,o),
(253,431,c),
(248,448,l),
(95,440,l),
(87,416,l),
(218,423,l),
(209,433,l),
(144,394,o),
(84,356,o),
(84,278,cs),
(84,222,o),
(123,160,o),
(160,101,cs),
(190,54,o),
(215,9,o),
(215,-31,cs),
(215,-61,o),
(197,-89,o),
(175,-112,cs),
(93,-199,ls),
(72,-222,o),
(49,-234,o),
(29,-234,cs),
(-17,-234,o),
(-35,-189,o),
(-73,-189,cs),
(-102,-189,o),
(-126,-208,o),
(-126,-238,cs),
(-126,-268,o),
(-98,-290,o),
(-55,-290,cs)
);
}
);
width = 481;
}
);
metricLeft = v;
unicode = 121;
},
{
color = 6;
glyphname = z;
kernLeft = z;
kernRight = z;
layers = (
{
anchors = (
{
name = bottom;
pos = (168,0);
},
{
name = top;
pos = (297,454);
}
);
backgroundImage = {
angle = -2.05234;
imagePath = "../../../../1878 Limprimerie Berger Levrault Notice historique/Italique/rez-de-.JPG";
locked = 1;
pos = (-5223,-4305);
scale = (2.8574,3.009);
slant = (20.8697,0);
};
layerId = "9372F035-DA38-4B54-966C-CEBA9B53DD02";
shapes = (
{
closed = 1;
nodes = (
(75,-14,o),
(74,68,o),
(144,68,cs),
(203,68,o),
(229,-14,o),
(310,-14,cs),
(361,-14,o),
(413,25,o),
(413,119,cs),
(413,129,o),
(412,140,o),
(411,151,c),
(384,148,l),
(385,140,o),
(386,133,o),
(386,126,cs),
(386,79,o),
(360,55,o),
(333,55,cs),
(278,55,o),
(228,97,o),
(164,97,cs),
(131,97,o),
(104,86,o),
(79,71,c),
(70,54,l),
(404,351,l),
(434,362,o),
(501,390,o),
(501,432,cs),
(501,452,o),
(485,462,o),
(470,462,cs),
(434,462,o),
(423,425,o),
(401,388,cs),
(394,376,o),
(391,372,o),
(377,372,cs),
(306,372,o),
(277,454,o),
(201,454,cs),
(138,454,o),
(86,399,o),
(81,316,c),
(105,315,l),
(106,351,o),
(121,380,o),
(170,380,cs),
(207,380,o),
(252,343,o),
(343,343,cs),
(371,343,o),
(389,352,o),
(399,362,c),
(404,382,l),
(113,123,ls),
(91,103,o),
(72,82,o),
(43,71,cs),
(10,57,o),
(-5,42,o),
(-5,20,cs),
(-5,-1,o),
(9,-14,o),
(26,-14,cs)
);
}
);
width = 488;
}
);
unicode = 122;
},
{
color = 6;
glyphname = f.calt;
kernLeft = j;
kernRight = f;
layers = (
{
anchors = (
{
name = bottom;
pos = (68,0);
},
{
name = top;
pos = (228,440);
}
);
guides = (
{
angle = 72;
pos = (88,194);
}
);
layerId = "9372F035-DA38-4B54-966C-CEBA9B53DD02";
shapes = (
{
closed = 1;
nodes = (
(-40,-290,o),
(24,-221,o),
(52,-136,cs),
(296,607,ls),
(320,680,o),
(358,698,o),
(384,698,cs),
(410,698,o),
(419,685,o),
(419,647,cs),
(419,618,o),
(429,597,o),
(460,597,cs),
(493,597,o),
(506,623,o),
(506,650,cs),
(506,685,o),
(475,720,o),
(402,720,cs),
(316,720,o),
(251,681,o),
(203,548,cs),
(-18,-131,ls),
(-33,-176,o),
(-70,-265,o),
(-144,-265,cs),
(-181,-265,o),
(-204,-249,o),
(-220,-226,c),
(-267,-262,l),
(-243,-279,o),
(-206,-290,o),
(-158,-290,cs)
);
},
{
closed = 1;
nodes = (
(341,416,l),
(348,440,l),
(101,440,l),
(94,416,l)
);
}
);
width = 309;
}
);
metricRight = f;
},
{
color = 6;
glyphname = jdotless.calt;
kernLeft = j;
kernRight = u;
layers = (
{
anchors = (
{
name = bottom;
pos = (80,0);
},
{
name = top;
pos = (226,440);
}
);
layerId = "9372F035-DA38-4B54-966C-CEBA9B53DD02";
shapes = (
{
closed = 1;
nodes = (
(-18,-290,o),
(45,-226,o),
(74,-136,cs),
(262,443,l),
(100,440,l),
(93,416,l),
(130,416,o),
(169,417,o),
(169,384,cs),
(169,378,o),
(168,370,o),
(164,360,cs),
(4,-131,ls),
(-9,-169,o),
(-48,-265,o),
(-122,-265,cs),
(-156,-265,o),
(-178,-251,o),
(-205,-209,c),
(-253,-249,l),
(-221,-279,o),
(-184,-290,o),
(-136,-290,cs)
);
}
);
width = 278;
}
);
},
{
color = 6;
glyphname = q.calt;
kernLeft = o;
kernRight = q;
layers = (
{
anchors = (
{
name = bottom;
pos = (185,0);
},
{
name = top;
pos = (335,440);
}
);
backgroundImage = {
imagePath = "../../../../1878 Limprimerie Berger Levrault Notice historique/Italique/ilboquet.JPG";
locked = 1;
pos = (-5713,-3929);
scale = (3.0573,2.7567);
slant = (16.4834,0);
};
layerId = "9372F035-DA38-4B54-966C-CEBA9B53DD02";
shapes = (
{
closed = 1;
nodes = (
(264,-280,l),
(511,440,l),
(441,440,l),
(404,329,l),
(417,334,l),
(415,403,o),
(385,454,o),
(319,454,cs),
(189,454,o),
(27,296,o),
(27,127,cs),
(27,52,o),
(68,-14,o),
(162,-14,cs),
(225,-14,o),
(281,26,o),
(330,98,c),
(328,103,l),
(195,-280,l)
);
},
{
closed = 1;
nodes = (
(129,12,o),
(102,44,o),
(102,107,cs),
(102,242,o),
(219,428,o),
(325,428,cs),
(372,428,o),
(394,390,o),
(394,336,cs),
(394,306,o),
(387,270,o),
(374,234,cs),
(327,103,o),
(253,12,o),
(172,12,cs)
);
}
);
width = 501;
}
);
metricLeft = o;
},
{
color = 6;
export = 0;
glyphname = w.ss01;
kernLeft = v;
kernRight = v;
layers = (
{
anchors = (
{
name = bottom;
pos = (341,0);
},
{
name = top;
pos = (441,440);
}
);
layerId = "9372F035-DA38-4B54-966C-CEBA9B53DD02";
shapes = (
{
closed = 1;
nodes = (
(194,-11,l),
(343,161,ls),
(451,286,o),
(484,359,o),
(484,395,cs),
(484,432,o),
(463,454,o),
(432,454,cs),
(400,454,o),
(333,424,o),
(333,313,cs),
(333,258,o),
(347,219,o),
(363,177,cs),
(382,128,o),
(402,75,o),
(424,-11,c),
(443,-11,l),
(603,185,ls),
(661,257,o),
(720,318,o),
(720,380,cs),
(720,427,o),
(691,454,o),
(662,454,cs),
(634,454,o),
(616,436,o),
(616,413,cs),
(616,398,o),
(623,390,o),
(629,379,cs),
(639,361,o),
(645,350,o),
(645,326,cs),
(645,288,o),
(624,248,o),
(585,199,cs),
(454,35,l),
(474,43,l),
(455,108,ls),
(409,267,o),
(396,328,o),
(399,385,cs),
(401,418,o),
(417,432,o),
(434,432,cs),
(452,432,o),
(462,416,o),
(462,395,cs),
(462,338,o),
(373,229,o),
(326,175,cs),
(206,36,l),
(225,43,l),
(203,114,ls),
(176,201,o),
(162,254,o),
(162,302,cs),
(162,378,o),
(198,406,o),
(253,431,c),
(248,448,l),
(95,440,l),
(88,417,l),
(207,423,l),
(200,428,l),
(158,402,o),
(79,358,o),
(79,280,cs),
(79,237,o),
(91,204,o),
(106,171,cs),
(127,121,o),
(157,72,o),
(176,-11,c)
);
}
);
width = 721;
}
);
metricLeft = v;
metricRight = v;
},
{
color = 6;
glyphname = f_b.liga;
layers = (
{
anchors = (
{
name = bottom_1;
pos = (139,0);
},
{
name = bottom_2;
pos = (574,0);
},
{
name = caret_1;
pos = (445,0);
},
{
name = top_1;
pos = (299,440);
},
{
name = top_2;
pos = (734,440);
}
);
layerId = "9372F035-DA38-4B54-966C-CEBA9B53DD02";
shapes = (
{
closed = 1;
nodes = (
(-13,-290,o),
(42,-261,o),
(84,-133,cs),
(294,504,ls),
(327,597,o),
(367,699,o),
(473,699,cs),
(523,699,o),
(587,678,o),
(609,604,c),
(669,678,l),
(641,702,o),
(545,724,o),
(482,724,cs),
(327,724,o),
(279,656,o),
(230,520,cs),
(12,-132,ls),
(-16,-214,o),
(-47,-268,o),
(-82,-268,cs),
(-126,-268,o),
(-103,-174,o),
(-162,-174,cs),
(-190,-174,o),
(-211,-194,o),
(-211,-221,cs),
(-211,-255,o),
(-182,-290,o),
(-100,-290,cs)
);
},
{
closed = 1;
nodes = (
(375,416,l),
(382,440,l),
(115,440,l),
(108,416,l)
);
},
{
closed = 1;
nodes = (
(516,10,o),
(491,41,o),
(491,96,cs),
(491,129,o),
(500,171,o),
(518,221,cs),
(537,274,ls),
(567,358,o),
(612,430,o),
(688,430,cs),
(729,430,o),
(769,397,o),
(769,326,cs),
(769,184,o),
(672,10,o),
(573,10,cs)
);
},
{
closed = 1;
nodes = (
(701,-14,o),
(841,122,o),
(841,287,cs),
(841,380,o),
(780,454,o),
(694,454,cs),
(644,454,o),
(593,430,o),
(567,383,c),
(567,368,l),
(669,678,l),
(604,694,l),
(452,233,ls),
(437,188,o),
(427,149,o),
(427,116,cs),
(427,30,o),
(482,-14,o),
(573,-14,cs)
);
}
);
width = 878;
}
);
metricLeft = f;
metricRight = b;
},
{
color = 6;
glyphname = f_f.liga;
layers = (
{
anchors = (
{
name = caret_1;
pos = (319,0);
}
);
layerId = "9372F035-DA38-4B54-966C-CEBA9B53DD02";
shapes = (
{
closed = 1;
nodes = (
(-13,-290,o),
(37,-260,o),
(84,-131,cs),
(290,504,ls),
(322,597,o),
(358,699,o),
(441,699,cs),
(509,699,o),
(543,640,o),
(549,582,c),
(614,665,l),
(573,713,o),
(503,724,o),
(449,724,cs),
(327,724,o),
(274,656,o),
(226,520,cs),
(12,-131,ls),
(-18,-214,o),
(-47,-268,o),
(-82,-268,cs),
(-126,-268,o),
(-103,-174,o),
(-162,-174,cs),
(-190,-174,o),
(-211,-194,o),
(-211,-221,cs),
(-211,-255,o),
(-182,-290,o),
(-100,-290,cs)
);
},
{
closed = 1;
nodes = (
(284,-290,o),
(345,-225,o),
(390,-90,cs),
(624,615,ls),
(643,675,o),
(678,702,o),
(711,702,cs),
(735,702,o),
(744,688,o),
(744,647,cs),
(744,618,o),
(754,597,o),
(783,597,cs),
(814,597,o),
(831,623,o),
(831,650,cs),
(831,682,o),
(810,724,o),
(719,724,cs),
(642,724,o),
(574,684,o),
(546,596,cs),
(322,-74,ls),
(291,-168,o),
(254,-265,o),
(180,-265,cs),
(120,-265,o),
(97,-209,o),
(81,-126,c),
(37,-208,l),
(37,-251,o),
(89,-290,o),
(160,-290,cs)
);
},
{
closed = 1;
nodes = (
(421,416,l),
(428,440,l),
(101,440,l),
(94,416,l)
);
},
{
closed = 1;
nodes = (
(668,416,l),
(675,440,l),
(385,440,l),
(378,416,l)
);
}
);
width = 634;
}
);
metricLeft = f;
metricRight = f;
},
{
color = 6;
glyphname = f_f_b.liga;
layers = (
{
layerId = "9372F035-DA38-4B54-966C-CEBA9B53DD02";
shapes = (
{
closed = 1;
nodes = (
(253,-290,o),
(334,-247,o),
(386,-88,cs),
(579,504,ls),
(609,598,o),
(652,699,o),
(758,699,cs),
(799,699,o),
(850,678,o),
(868,604,c),
(928,678,l),
(904,700,o),
(822,724,o),
(760,724,cs),
(612,724,o),
(559,657,o),
(515,520,cs),
(303,-120,ls),
(272,-214,o),
(219,-265,o),
(164,-265,cs),
(103,-265,o),
(73,-170,o),
(63,-126,c),
(25,-208,l),
(25,-242,o),
(66,-290,o),
(143,-290,cs)
);
},
{
closed = 1;
nodes = (
(-13,-290,o),
(41,-262,o),
(84,-131,cs),
(291,504,ls),
(321,598,o),
(359,699,o),
(446,699,cs),
(510,699,o),
(544,640,o),
(550,582,c),
(615,665,l),
(574,713,o),
(504,724,o),
(453,724,cs),
(328,724,o),
(271,657,o),
(227,520,cs),
(12,-131,ls),
(-16,-215,o),
(-47,-268,o),
(-82,-268,cs),
(-126,-268,o),
(-103,-174,o),
(-162,-174,cs),
(-190,-174,o),
(-211,-194,o),
(-211,-221,cs),
(-211,-255,o),
(-182,-290,o),
(-100,-290,cs)
);
},
{
closed = 1;
nodes = (
(660,416,l),
(667,440,l),
(96,440,l),
(89,416,l)
);
},
{
closed = 1;
nodes = (
(775,10,o),
(750,41,o),
(750,96,cs),
(750,129,o),
(759,171,o),
(777,221,cs),
(796,274,ls),
(826,358,o),
(871,430,o),
(947,430,cs),
(988,430,o),
(1028,397,o),
(1028,326,cs),
(1028,184,o),
(931,10,o),
(832,10,cs)
);
},
{
closed = 1;
nodes = (
(960,-14,o),
(1100,122,o),
(1100,287,cs),
(1100,380,o),
(1039,454,o),
(953,454,cs),
(903,454,o),
(852,430,o),
(826,383,c),
(826,368,l),
(928,678,l),
(863,694,l),
(711,233,ls),
(696,188,o),
(686,149,o),
(686,116,cs),
(686,30,o),
(741,-14,o),
(832,-14,cs)
);
}
);
width = 1137;
}
);
metricLeft = f;
metricRight = b;
},
{
color = 6;
glyphname = f_f_h.liga;
layers = (
{
layerId = "9372F035-DA38-4B54-966C-CEBA9B53DD02";
shapes = (
{
closed = 1;
nodes = (
(-13,-290,o),
(41,-262,o),
(84,-131,cs),
(291,504,ls),
(321,598,o),
(359,699,o),
(442,699,cs),
(510,699,o),
(544,640,o),
(550,582,c),
(615,665,l),
(574,713,o),
(504,724,o),
(450,724,cs),
(328,724,o),
(271,657,o),
(227,520,cs),
(12,-131,ls),
(-16,-215,o),
(-47,-268,o),
(-82,-268,cs),
(-126,-268,o),
(-103,-174,o),
(-162,-174,cs),
(-190,-174,o),
(-211,-194,o),
(-211,-221,cs),
(-211,-255,o),
(-182,-290,o),
(-100,-290,cs)
);
},
{
closed = 1;
nodes = (
(660,416,l),
(667,440,l),
(96,440,l),
(89,416,l)
);
},
{
closed = 1;
nodes = (
(716,0,l),
(930,657,l),
(859,663,l),
(644,0,l)
);
},
{
closed = 1;
nodes = (
(272,-290,o),
(337,-225,o),
(382,-90,cs),
(578,504,ls),
(608,598,o),
(651,699,o),
(751,699,cs),
(809,699,o),
(859,666,o),
(885,581,c),
(930,657,l),
(901,700,o),
(836,724,o),
(757,724,cs),
(611,724,o),
(558,657,o),
(514,520,cs),
(318,-74,ls),
(287,-168,o),
(242,-265,o),
(168,-265,cs),
(108,-265,o),
(85,-204,o),
(63,-126,c),
(25,-208,l),
(25,-251,o),
(77,-290,o),
(148,-290,cs)
);
},
{
closed = 1;
nodes = (
(1039,-14,o),
(1079,31,o),
(1104,72,c),
(1086,84,l),
(1069,55,o),
(1038,19,o),
(1009,19,cs),
(998,19,o),
(993,26,o),
(993,39,cs),
(993,49,o),
(996,63,o),
(1002,80,cs),
(1092,331,ls),
(1099,351,o),
(1103,370,o),
(1103,388,cs),
(1103,426,o),
(1082,454,o),
(1016,454,cs),
(892,454,o),
(801,323,o),
(776,255,c),
(799,257,l),
(826,329,o),
(921,429,o),
(997,429,cs),
(1018,429,o),
(1035,417,o),
(1035,391,cs),
(1035,381,o),
(1033,370,o),
(1028,356,cs),
(941,110,ls),
(932,84,o),
(926,60,o),
(926,40,cs),
(926,8,o),
(941,-14,o),
(982,-14,cs)
);
}
);
width = 1156;
}
);
metricLeft = f;
metricRight = h;
},
{
color = 3;
glyphname = f_f_i.liga;
layers = (
{
anchors = (
{
name = caret_1;
pos = (20,0);
},
{
name = caret_2;
pos = (316,0);
}
);
layerId = "9372F035-DA38-4B54-966C-CEBA9B53DD02";
shapes = (
{
closed = 1;
nodes = (
(-13,-290,o),
(37,-260,o),
(84,-131,cs),
(290,504,ls),
(322,597,o),
(358,699,o),
(441,699,cs),
(509,699,o),
(543,640,o),
(549,582,c),
(614,665,l),
(573,713,o),
(503,724,o),
(449,724,cs),
(327,724,o),
(274,656,o),
(226,520,cs),
(12,-131,ls),
(-18,-214,o),
(-47,-268,o),
(-82,-268,cs),
(-126,-268,o),
(-103,-174,o),
(-162,-174,cs),
(-190,-174,o),
(-211,-194,o),
(-211,-221,cs),
(-211,-255,o),
(-182,-290,o),
(-100,-290,cs)
);
},
{
closed = 1;
nodes = (
(421,416,l),
(428,440,l),
(101,440,l),
(94,416,l)
);
},
{
closed = 1;
nodes = (
(668,416,l),
(675,440,l),
(385,440,l),
(378,416,l)
);
},
{
closed = 1;
nodes = (
(606,581,ls),
(633,664,o),
(681,702,o),
(730,702,cs),
(768,702,o),
(787,686,o),
(787,633,cs),
(787,603,o),
(804,582,o),
(834,582,cs),
(871,582,o),
(893,610,o),
(893,638,cs),
(893,665,o),
(874,724,o),
(742,724,cs),
(641,724,o),
(568,685,o),
(520,541,cs),
(312,-74,ls),
(278,-174,o),
(244,-265,o),
(170,-265,cs),
(110,-265,o),
(87,-209,o),
(71,-126,c),
(27,-208,l),
(27,-251,o),
(79,-290,o),
(150,-290,cs),
(274,-290,o),
(335,-223,o),
(380,-90,cs)
);
},
{
alignment = -1;
pos = (589,0);
ref = idotless;
}
);
width = 868;
}
);
metricLeft = f;
metricRight = i;
},
{
color = 6;
glyphname = f_f_j.liga;
layers = (
{
layerId = "9372F035-DA38-4B54-966C-CEBA9B53DD02";
shapes = (
{
closed = 1;
nodes = (
(-13,-290,o),
(42,-262,o),
(84,-131,cs),
(290,504,ls),
(320,598,o),
(358,699,o),
(441,699,cs),
(509,699,o),
(543,640,o),
(549,582,c),
(614,665,l),
(573,713,o),
(503,724,o),
(449,724,cs),
(327,724,o),
(270,657,o),
(226,520,cs),
(12,-131,ls),
(-16,-215,o),
(-47,-268,o),
(-82,-268,cs),
(-126,-268,o),
(-103,-174,o),
(-162,-174,cs),
(-190,-174,o),
(-211,-194,o),
(-211,-221,cs),
(-211,-255,o),
(-182,-290,o),
(-100,-290,cs)
);
},
{
closed = 1;
nodes = (
(421,416,l),
(428,440,l),
(101,440,l),
(94,416,l)
);
},
{
closed = 1;
nodes = (
(688,416,l),
(695,440,l),
(385,440,l),
(378,416,l)
);
},
{
closed = 1;
nodes = (
(606,581,ls),
(633,664,o),
(681,702,o),
(725,702,cs),
(768,702,o),
(787,686,o),
(787,633,cs),
(787,603,o),
(804,582,o),
(834,582,cs),
(871,582,o),
(893,610,o),
(893,638,cs),
(893,665,o),
(874,724,o),
(738,724,cs),
(630,724,o),
(568,685,o),
(520,541,cs),
(312,-74,ls),
(278,-174,o),
(244,-265,o),
(170,-265,cs),
(110,-265,o),
(87,-209,o),
(71,-126,c),
(27,-208,l),
(27,-251,o),
(79,-290,o),
(150,-290,cs),
(274,-290,o),
(335,-223,o),
(380,-90,cs)
);
},
{
closed = 1;
nodes = (
(857,443,l),
(695,440,l),
(688,416,l),
(725,416,o),
(764,417,o),
(764,384,cs),
(764,378,o),
(762,370,o),
(759,360,cs),
(619,-74,ls),
(586,-176,o),
(541,-265,o),
(460,-265,cs),
(400,-265,o),
(377,-209,o),
(361,-126,c),
(317,-208,l),
(317,-251,o),
(369,-290,o),
(449,-290,cs),
(571,-290,o),
(634,-222,o),
(683,-90,cs)
);
}
);
width = 871;
}
);
metricLeft = f;
metricRight = j;
},
{
color = 6;
glyphname = f_f_k.liga;
layers = (
{
layerId = "9372F035-DA38-4B54-966C-CEBA9B53DD02";
shapes = (
{
closed = 1;
nodes = (
(-13,-290,o),
(41,-262,o),
(84,-131,cs),
(291,504,ls),
(321,598,o),
(359,699,o),
(442,699,cs),
(510,699,o),
(544,640,o),
(550,582,c),
(615,665,l),
(574,713,o),
(504,724,o),
(450,724,cs),
(328,724,o),
(271,657,o),
(227,520,cs),
(12,-131,ls),
(-16,-215,o),
(-47,-268,o),
(-82,-268,cs),
(-126,-268,o),
(-103,-174,o),
(-162,-174,cs),
(-190,-174,o),
(-211,-194,o),
(-211,-221,cs),
(-211,-255,o),
(-182,-290,o),
(-100,-290,cs)
);
},
{
closed = 1;
nodes = (
(660,416,l),
(667,440,l),
(96,440,l),
(89,416,l)
);
},
{
closed = 1;
nodes = (
(716,0,l),
(930,657,l),
(859,657,l),
(644,0,l)
);
},
{
closed = 1;
nodes = (
(272,-290,o),
(337,-225,o),
(382,-90,cs),
(578,504,ls),
(608,598,o),
(651,699,o),
(751,699,cs),
(809,699,o),
(859,666,o),
(885,581,c),
(930,657,l),
(901,700,o),
(836,724,o),
(757,724,cs),
(611,724,o),
(558,657,o),
(514,520,cs),
(318,-74,ls),
(287,-168,o),
(242,-265,o),
(168,-265,cs),
(108,-265,o),
(85,-204,o),
(63,-126,c),
(25,-208,l),
(25,-251,o),
(77,-290,o),
(148,-290,cs)
);
},
{
closed = 1;
nodes = (
(1010,-14,o),
(1058,9,o),
(1093,72,c),
(1076,84,l),
(1049,39,o),
(1019,19,o),
(1002,19,cs),
(975,19,o),
(975,37,o),
(973,136,cs),
(971,249,o),
(938,284,o),
(803,284,c),
(801,269,l),
(885,269,o),
(905,236,o),
(905,132,cs),
(905,22,o),
(915,-14,o),
(972,-14,cs)
);
},
{
closed = 1;
nodes = (
(873,270,o),
(895,295,o),
(938,340,cs),
(979,383,ls),
(998,402,o),
(1009,414,o),
(1023,414,cs),
(1027,414,o),
(1031,412,o),
(1033,409,cs),
(1037,404,o),
(1038,396,o),
(1038,373,cs),
(1038,348,o),
(1057,337,o),
(1075,337,cs),
(1101,337,o),
(1118,362,o),
(1118,392,cs),
(1118,411,o),
(1111,454,o),
(1058,454,cs),
(1024,454,o),
(1000,433,o),
(963,394,cs),
(926,355,ls),
(883,310,o),
(854,284,o),
(783,284,c),
(783,270,l)
);
}
);
width = 1126;
}
);
metricLeft = f;
metricRight = k;
},
{
color = 6;
glyphname = f_f_l.liga;
layers = (
{
layerId = "9372F035-DA38-4B54-966C-CEBA9B53DD02";
shapes = (
{
closed = 1;
nodes = (
(272,-290,o),
(337,-225,o),
(382,-90,cs),
(578,504,ls),
(608,598,o),
(651,699,o),
(751,699,cs),
(809,699,o),
(859,666,o),
(885,581,c),
(930,657,l),
(901,700,o),
(836,724,o),
(757,724,cs),
(611,724,o),
(558,657,o),
(514,520,cs),
(318,-74,ls),
(287,-168,o),
(242,-265,o),
(168,-265,cs),
(108,-265,o),
(85,-204,o),
(63,-126,c),
(25,-208,l),
(25,-251,o),
(77,-290,o),
(148,-290,cs)
);
},
{
closed = 1;
nodes = (
(-13,-290,o),
(41,-262,o),
(84,-131,cs),
(291,504,ls),
(321,598,o),
(359,699,o),
(442,699,cs),
(510,699,o),
(544,640,o),
(550,582,c),
(615,665,l),
(574,713,o),
(504,724,o),
(450,724,cs),
(328,724,o),
(271,657,o),
(227,520,cs),
(12,-131,ls),
(-16,-215,o),
(-47,-268,o),
(-82,-268,cs),
(-126,-268,o),
(-103,-174,o),
(-162,-174,cs),
(-190,-174,o),
(-211,-194,o),
(-211,-221,cs),
(-211,-255,o),
(-182,-290,o),
(-100,-290,cs)
);
},
{
closed = 1;
nodes = (
(436,416,l),
(443,440,l),
(96,440,l),
(89,416,l)
);
},
{
closed = 1;
nodes = (
(654,416,l),
(661,440,l),
(394,440,l),
(387,416,l)
);
},
{
closed = 1;
nodes = (
(738,19,o),
(731,24,o),
(731,38,cs),
(731,46,o),
(734,56,o),
(738,69,cs),
(930,657,l),
(861,664,l),
(675,94,ls),
(669,74,o),
(664,57,o),
(664,43,cs),
(664,5,o),
(688,-14,o),
(718,-14,cs),
(772,-14,o),
(810,21,o),
(843,75,c),
(825,87,l),
(808,55,o),
(777,19,o),
(747,19,cs)
);
}
);
width = 896;
}
);
metricLeft = f;
metricRight = l;
},
{
color = 6;
glyphname = f_h.liga;
layers = (
{
layerId = "9372F035-DA38-4B54-966C-CEBA9B53DD02";
shapes = (
{
closed = 1;
nodes = (
(-13,-290,o),
(43,-261,o),
(86,-131,cs),
(296,504,ls),
(326,598,o),
(368,700,o),
(474,700,cs),
(522,700,o),
(574,667,o),
(598,581,c),
(643,657,l),
(616,700,o),
(556,725,o),
(483,725,cs),
(328,725,o),
(280,656,o),
(231,520,cs),
(12,-131,ls),
(-18,-214,o),
(-47,-268,o),
(-82,-268,cs),
(-126,-268,o),
(-103,-174,o),
(-162,-174,cs),
(-190,-174,o),
(-211,-194,o),
(-211,-221,cs),
(-211,-255,o),
(-182,-290,o),
(-100,-290,cs)
);
},
{
closed = 1;
nodes = (
(376,416,l),
(383,440,l),
(116,440,l),
(109,416,l)
);
},
{
closed = 1;
nodes = (
(406,0,l),
(643,657,l),
(579,664,l),
(334,0,l)
);
},
{
closed = 1;
nodes = (
(739,-14,o),
(779,31,o),
(804,72,c),
(786,84,l),
(769,55,o),
(738,19,o),
(709,19,cs),
(698,19,o),
(693,26,o),
(693,39,cs),
(693,49,o),
(696,63,o),
(702,80,cs),
(792,331,ls),
(799,351,o),
(803,370,o),
(803,388,cs),
(803,426,o),
(782,454,o),
(716,454,cs),
(592,454,o),
(501,323,o),
(476,255,c),
(499,257,l),
(526,329,o),
(621,429,o),
(697,429,cs),
(718,429,o),
(735,417,o),
(735,391,cs),
(735,381,o),
(733,370,o),
(728,356,cs),
(641,110,ls),
(632,84,o),
(626,60,o),
(626,40,cs),
(626,8,o),
(641,-14,o),
(682,-14,cs)
);
}
);
width = 856;
}
);
metricLeft = f;
metricRight = h;
},
{
color = 6;
glyphname = f_j.liga;
layers = (
{
anchors = (
{
name = top;
pos = (521,440);
}
);
guides = (
{
angle = 70;
pos = (609,539);
}
);
layerId = "9372F035-DA38-4B54-966C-CEBA9B53DD02";
shapes = (
{
closed = 1;
nodes = (
(-13,-290,o),
(37,-260,o),
(84,-131,cs),
(350,615,ls),
(370,675,o),
(413,702,o),
(457,702,cs),
(496,702,o),
(515,686,o),
(515,633,cs),
(515,603,o),
(532,582,o),
(562,582,cs),
(599,582,o),
(621,613,o),
(621,642,cs),
(621,665,o),
(615,724,o),
(470,724,cs),
(362,724,o),
(302,683,o),
(272,596,cs),
(12,-131,ls),
(-18,-214,o),
(-47,-268,o),
(-82,-268,cs),
(-126,-268,o),
(-103,-174,o),
(-162,-174,cs),
(-190,-174,o),
(-211,-194,o),
(-211,-221,cs),
(-211,-255,o),
(-182,-290,o),
(-100,-290,cs)
);
},
{
closed = 1;
nodes = (
(429,416,l),
(429,440,l),
(132,440,l),
(125,416,l)
);
},
{
closed = 1;
nodes = (
(582,443,l),
(420,440,l),
(413,416,l),
(450,416,o),
(489,417,o),
(489,384,cs),
(489,378,o),
(488,370,o),
(484,360,cs),
(327,-74,ls),
(291,-174,o),
(259,-265,o),
(185,-265,cs),
(125,-265,o),
(102,-209,o),
(86,-126,c),
(42,-208,l),
(42,-251,o),
(94,-290,o),
(165,-290,cs),
(289,-290,o),
(350,-223,o),
(395,-90,cs)
);
}
);
width = 583;
}
);
metricLeft = f;
metricRight = j;
},
{
color = 6;
glyphname = f_k.liga;
layers = (
{
anchors = (
{
name = bottom_1;
pos = (133,0);
},
{
name = bottom_2;
pos = (550,0);
},
{
name = caret_1;
pos = (410,0);
},
{
name = top_1;
pos = (293,440);
},
{
name = top_2;
pos = (710,440);
}
);
layerId = "9372F035-DA38-4B54-966C-CEBA9B53DD02";
shapes = (
{
closed = 1;
nodes = (
(-13,-290,o),
(37,-260,o),
(84,-131,cs),
(296,504,ls),
(329,597,o),
(369,699,o),
(475,699,cs),
(523,699,o),
(575,666,o),
(599,581,c),
(644,657,l),
(617,700,o),
(557,724,o),
(484,724,cs),
(329,724,o),
(281,656,o),
(232,520,cs),
(12,-131,ls),
(-18,-214,o),
(-47,-268,o),
(-82,-268,cs),
(-126,-268,o),
(-103,-174,o),
(-162,-174,cs),
(-190,-174,o),
(-211,-194,o),
(-211,-221,cs),
(-211,-255,o),
(-182,-290,o),
(-100,-290,cs)
);
},
{
closed = 1;
nodes = (
(359,416,l),
(366,440,l),
(99,440,l),
(92,416,l)
);
},
{
closed = 1;
nodes = (
(700,-14,o),
(748,9,o),
(783,72,c),
(766,84,l),
(739,39,o),
(709,19,o),
(692,19,cs),
(660,19,o),
(664,64,o),
(663,114,cs),
(662,166,ls),
(660,261,o),
(596,284,o),
(493,284,c),
(491,269,l),
(569,269,o),
(595,233,o),
(595,159,cs),
(595,111,ls),
(595,27,o),
(606,-14,o),
(662,-14,cs)
);
},
{
closed = 1;
nodes = (
(407,0,l),
(644,657,l),
(580,664,l),
(335,0,l)
);
},
{
closed = 1;
nodes = (
(563,270,o),
(585,295,o),
(628,340,cs),
(669,383,ls),
(689,403,o),
(702,414,o),
(718,414,cs),
(723,414,o),
(727,412,o),
(729,409,cs),
(733,404,o),
(734,396,o),
(734,387,cs),
(734,365,o),
(750,357,o),
(765,357,cs),
(791,357,o),
(802,382,o),
(802,407,cs),
(802,428,o),
(789,454,o),
(753,454,cs),
(714,454,o),
(690,433,o),
(653,394,cs),
(616,355,ls),
(573,310,o),
(544,284,o),
(473,284,c),
(473,270,l)
);
}
);
width = 816;
}
);
metricLeft = f;
metricRight = k;
},
{
color = 3;
glyphname = f_t.liga;
layers = (
{
anchors = (
{
name = bottom_1;
pos = (82,0);
},
{
name = bottom_2;
pos = (407,0);
},
{
name = caret_1;
pos = (308.5,0);
},
{
name = top_1;
pos = (242,440);
},
{
name = top_2;
pos = (567,440);
}
);
layerId = "9372F035-DA38-4B54-966C-CEBA9B53DD02";
shapes = (
{
closed = 1;
nodes = (
(562,416,l),
(570,440,l),
(354,440,l),
(346,416,l)
);
},
{
ref = f;
},
{
pos = (299,0);
ref = t;
}
);
width = 607;
}
);
metricLeft = f;
metricRight = t;
},
{
color = 3;
glyphname = fi;
layers = (
{
anchors = (
{
name = caret_1;
pos = (306,0);
}
);
guides = (
{
angle = 70;
pos = (596,539);
}
);
layerId = "9372F035-DA38-4B54-966C-CEBA9B53DD02";
shapes = (
{
closed = 1;
nodes = (
(-12,-290,o),
(41,-258,o),
(85,-127,cs),
(321,581,ls),
(348,664,o),
(400,702,o),
(449,702,cs),
(487,702,o),
(506,686,o),
(506,633,cs),
(506,603,o),
(523,582,o),
(553,582,cs),
(590,582,o),
(612,610,o),
(612,638,cs),
(612,665,o),
(593,724,o),
(457,724,cs),
(349,724,o),
(282,684,o),
(235,541,cs),
(13,-127,ls),
(-16,-213,o),
(-46,-268,o),
(-81,-268,cs),
(-125,-268,o),
(-102,-170,o),
(-161,-170,cs),
(-189,-170,o),
(-210,-190,o),
(-210,-216,cs),
(-210,-255,o),
(-181,-290,o),
(-99,-290,cs)
);
},
{
closed = 1;
nodes = (
(396,416,l),
(406,440,l),
(119,440,l),
(112,416,l)
);
},
{
pos = (306,0);
ref = idotless;
}
);
width = 585;
}
);
metricLeft = f;
metricRight = i;
unicode = 64257;
},
{
color = 6;
glyphname = fl;
layers = (
{
layerId = "9372F035-DA38-4B54-966C-CEBA9B53DD02";
shapes = (
{
closed = 1;
nodes = (
(-13,-290,o),
(41,-262,o),
(84,-131,cs),
(292,504,ls),
(322,598,o),
(365,699,o),
(465,699,cs),
(523,699,o),
(573,666,o),
(599,581,c),
(644,657,l),
(615,700,o),
(550,724,o),
(471,724,cs),
(325,724,o),
(273,658,o),
(228,520,cs),
(12,-131,ls),
(-16,-214,o),
(-47,-268,o),
(-82,-268,cs),
(-126,-268,o),
(-103,-174,o),
(-162,-174,cs),
(-190,-174,o),
(-211,-194,o),
(-211,-221,cs),
(-211,-255,o),
(-182,-290,o),
(-100,-290,cs)
);
},
{
closed = 1;
nodes = (
(373,416,l),
(380,440,l),
(113,440,l),
(106,416,l)
);
},
{
closed = 1;
nodes = (
(452,19,o),
(445,24,o),
(445,38,cs),
(445,46,o),
(448,56,o),
(452,69,cs),
(644,657,l),
(575,664,l),
(389,94,ls),
(382,74,o),
(378,57,o),
(378,43,cs),
(378,5,o),
(402,-14,o),
(432,-14,cs),
(486,-14,o),
(524,21,o),
(557,75,c),
(539,87,l),
(522,55,o),
(491,19,o),
(461,19,cs)
);
}
);
width = 610;
}
);
metricLeft = f;
metricRight = l;
unicode = 64258;
},
{
color = 3;
glyphname = t_t.liga;
layers = (
{
layerId = "9372F035-DA38-4B54-966C-CEBA9B53DD02";
shapes = (
{
closed = 1;
nodes = (
(167,-14,o),
(207,31,o),
(232,72,c),
(214,84,l),
(197,55,o),
(166,19,o),
(136,19,cs),
(121,19,o),
(112,28,o),
(112,46,cs),
(112,55,o),
(115,67,o),
(120,82,cs),
(279,526,l),
(212,526,l),
(126,289,l),
(59,110,ls),
(50,85,o),
(44,61,o),
(44,42,cs),
(44,9,o),
(60,-14,o),
(104,-14,cs)
);
},
{
closed = 1;
nodes = (
(463,416,l),
(471,440,l),
(115,440,l),
(107,416,l)
);
},
{
alignment = -1;
pos = (276,0);
ref = t;
}
);
width = 584;
}
);
metricLeft = t;
metricRight = t;
},
{
color = 6;
glyphname = a.sups;
kernLeft = sups;
kernRight = sups;
layers = (
{
layerId = "9372F035-DA38-4B54-966C-CEBA9B53DD02";
shapes = (
{
closed = 1;
nodes = (
(285,290,o),
(327,328,o),
(363,381,c),
(429,554,l),
(429,611,o),
(412,653,o),
(343,653,cs),
(234,653,o),
(98,531,o),
(98,400,cs),
(98,342,o),
(132,290,o),
(211,290,cs)
);
},
{
closed = 1;
nodes = (
(187,312,o),
(168,336,o),
(168,384,cs),
(168,489,o),
(262,633,o),
(348,633,cs),
(385,633,o),
(403,604,o),
(403,563,cs),
(403,540,o),
(398,512,o),
(388,484,cs),
(351,381,o),
(288,312,o),
(219,312,cs)
);
},
{
closed = 1;
nodes = (
(437,290,o),
(472,326,o),
(493,358,c),
(477,371,l),
(462,348,o),
(434,318,o),
(412,318,cs),
(405,318,o),
(402,322,o),
(402,331,cs),
(402,340,o),
(404,352,o),
(410,367,cs),
(516,644,l),
(453,644,l),
(352,390,ls),
(344,369,o),
(340,349,o),
(340,333,cs),
(340,307,o),
(354,290,o),
(393,290,cs)
);
}
);
width = 443;
}
);
metricLeft = o.sups;
metricRight = d.sups;
},
{
color = 6;
glyphname = d.sups;
kernLeft = sups;
kernRight = sups;
layers = (
{
anchors = (
{
name = bottom;
pos = (234,290);
}
);
layerId = "9372F035-DA38-4B54-966C-CEBA9B53DD02";
shapes = (
{
closed = 1;
nodes = (
(440,290,o),
(474,327,o),
(494,358,c),
(478,370,l),
(457,341,o),
(432,318,o),
(413,318,cs),
(406,318,o),
(403,322,o),
(403,331,cs),
(403,339,o),
(405,351,o),
(411,366,cs),
(597,856,l),
(460,855,l),
(454,835,l),
(486,835,o),
(514,835,o),
(514,809,cs),
(514,801,o),
(512,790,o),
(506,776,cs),
(354,389,ls),
(345,367,o),
(341,348,o),
(341,333,cs),
(341,305,o),
(357,290,o),
(390,290,cs)
);
},
{
closed = 1;
nodes = (
(286,290,o),
(330,330,o),
(364,381,c),
(430,551,l),
(431,557,o),
(431,562,o),
(431,567,cs),
(431,624,o),
(401,653,o),
(346,653,cs),
(236,653,o),
(99,530,o),
(99,405,cs),
(99,349,o),
(134,290,o),
(219,290,cs)
);
},
{
closed = 1;
nodes = (
(189,312,o),
(169,337,o),
(169,383,cs),
(169,489,o),
(265,633,o),
(350,633,cs),
(385,633,o),
(404,605,o),
(404,561,cs),
(404,539,o),
(399,512,o),
(388,483,cs),
(349,375,o),
(285,312,o),
(223,312,cs)
);
}
);
width = 444;
}
);
metricLeft = o.sups;
},
{
color = 6;
glyphname = e.sups;
kernLeft = sups;
kernRight = sups;
layers = (
{
layerId = "9372F035-DA38-4B54-966C-CEBA9B53DD02";
shapes = (
{
closed = 1;
nodes = (
(284,290,o),
(314,313,o),
(341,337,cs),
(349,344,o),
(355,350,o),
(361,358,c),
(346,372,l),
(309,336,o),
(277,312,o),
(244,312,cs),
(190,312,o),
(173,358,o),
(173,403,cs),
(173,509,o),
(261,634,o),
(335,634,cs),
(355,634,o),
(365,620,o),
(365,595,cs),
(365,569,o),
(347,510,o),
(232,495,cs),
(178,488,l),
(176,469,l),
(249,476,ls),
(358,487,o),
(420,524,o),
(420,583,cs),
(420,624,o),
(387,652,o),
(332,652,cs),
(225,652,o),
(105,546,o),
(105,418,cs),
(105,353,o),
(144,290,o),
(236,290,cs)
);
}
);
width = 321;
}
);
metricLeft = o.sups;
},
{
color = 6;
glyphname = h.sups;
kernLeft = sups;
kernRight = sups;
layers = (
{
layerId = "9372F035-DA38-4B54-966C-CEBA9B53DD02";
shapes = (
{
closed = 1;
nodes = (
(165,299,l),
(378,855,l),
(241,854,l),
(235,834,l),
(267,834,o),
(294,834,o),
(294,807,cs),
(294,798,o),
(291,786,o),
(285,770,cs),
(100,299,l)
);
},
{
closed = 1;
nodes = (
(441,290,o),
(475,326,o),
(496,358,c),
(479,370,l),
(456,339,o),
(432,318,o),
(414,318,cs),
(407,318,o),
(404,323,o),
(404,333,cs),
(404,341,o),
(406,351,o),
(411,364,cs),
(486,556,ls),
(492,571,o),
(496,587,o),
(496,600,cs),
(496,630,o),
(477,653,o),
(420,653,cs),
(315,653,o),
(241,553,o),
(220,501,c),
(243,502,l),
(265,557,o),
(343,632,o),
(404,632,cs),
(423,632,o),
(432,621,o),
(432,603,cs),
(432,595,o),
(431,586,o),
(427,576,cs),
(355,388,ls),
(347,366,o),
(343,348,o),
(343,333,cs),
(343,305,o),
(359,290,o),
(392,290,cs)
);
}
);
width = 446;
}
);
metricRight = n.sups;
},
{
color = 6;
glyphname = m.sups;
kernLeft = sups;
kernRight = sups;
layers = (
{
layerId = "9372F035-DA38-4B54-966C-CEBA9B53DD02";
shapes = (
{
closed = 1;
nodes = (
(641,290,o),
(676,325,o),
(696,356,c),
(679,367,l),
(662,344,o),
(638,318,o),
(620,318,cs),
(611,318,o),
(606,324,o),
(606,336,cs),
(606,344,o),
(608,354,o),
(613,367,cs),
(686,558,ls),
(692,573,o),
(695,586,o),
(695,598,cs),
(695,633,o),
(669,653,o),
(621,653,cs),
(520,653,o),
(448,551,o),
(428,499,c),
(453,500,l),
(474,556,o),
(548,632,o),
(605,632,cs),
(624,632,o),
(634,621,o),
(634,604,cs),
(634,597,o),
(632,588,o),
(628,578,cs),
(560,406,ls),
(550,380,o),
(543,356,o),
(543,337,cs),
(543,308,o),
(558,290,o),
(602,290,cs)
);
},
{
closed = 1;
nodes = (
(166,300,l),
(268,565,l),
(263,568,l),
(289,645,l),
(164,644,l),
(158,624,l),
(189,624,o),
(211,623,o),
(211,603,cs),
(211,595,o),
(209,584,o),
(203,569,cs),
(100,300,l)
);
},
{
closed = 1;
nodes = (
(376,300,l),
(476,558,l),
(479,571,o),
(481,584,o),
(481,596,cs),
(481,629,o),
(465,653,o),
(410,653,cs),
(310,653,o),
(240,551,o),
(221,499,c),
(242,500,l),
(263,556,o),
(337,632,o),
(394,632,cs),
(413,632,o),
(423,621,o),
(423,604,cs),
(423,597,o),
(421,588,o),
(417,578,cs),
(309,300,l)
);
}
);
width = 647;
}
);
metricRight = n.sups;
},
{
color = 6;
glyphname = n.sups;
kernLeft = sups;
kernRight = sups;
layers = (
{
layerId = "9372F035-DA38-4B54-966C-CEBA9B53DD02";
shapes = (
{
closed = 1;
nodes = (
(444,290,o),
(478,326,o),
(499,358,c),
(498,359,l),
(483,368,l),
(479,368,l),
(464,345,o),
(439,318,o),
(417,318,cs),
(410,318,o),
(407,323,o),
(407,333,cs),
(407,341,o),
(409,351,o),
(414,364,cs),
(489,560,ls),
(495,575,o),
(499,591,o),
(499,604,cs),
(499,634,o),
(480,657,o),
(423,657,cs),
(318,657,o),
(242,554,o),
(221,501,c),
(246,502,l),
(268,559,o),
(346,636,o),
(407,636,cs),
(426,636,o),
(435,625,o),
(435,607,cs),
(435,599,o),
(434,590,o),
(430,580,cs),
(358,388,ls),
(350,366,o),
(346,348,o),
(346,333,cs),
(346,305,o),
(362,290,o),
(395,290,cs)
);
},
{
closed = 1;
nodes = (
(166,301,l),
(169,302,l),
(271,567,l),
(267,568,l),
(293,649,l),
(165,646,l),
(157,625,l),
(188,625,o),
(214,624,o),
(214,604,cs),
(214,596,o),
(212,586,o),
(206,571,cs),
(103,302,l),
(106,301,l)
);
}
);
width = 449;
}
);
},
{
color = 6;
glyphname = o.sups;
kernLeft = sups;
kernRight = sups;
layers = (
{
layerId = "9372F035-DA38-4B54-966C-CEBA9B53DD02";
shapes = (
{
closed = 1;
nodes = (
(367,290,o),
(477,404,o),
(477,527,cs),
(477,595,o),
(433,653,o),
(342,653,cs),
(216,653,o),
(105,539,o),
(105,414,cs),
(105,348,o),
(150,290,o),
(240,290,cs)
);
},
{
closed = 1;
nodes = (
(197,313,o),
(174,341,o),
(174,392,cs),
(174,479,o),
(246,633,o),
(344,633,cs),
(386,633,o),
(409,604,o),
(409,549,cs),
(409,464,o),
(336,313,o),
(240,313,cs)
);
}
);
width = 399;
}
);
},
{
color = 6;
glyphname = r.sups;
kernLeft = sups;
kernRight = sups;
layers = (
{
anchors = (
{
name = top;
pos = (392,637);
}
);
layerId = "9372F035-DA38-4B54-966C-CEBA9B53DD02";
shapes = (
{
closed = 1;
nodes = (
(206,398,l),
(207,399,l),
(219,429,ls),
(243,489,o),
(265,533,o),
(285,563,cs),
(312,604,o),
(335,621,o),
(355,621,cs),
(365,621,o),
(371,616,o),
(378,598,cs),
(388,573,o),
(398,564,o),
(417,564,cs),
(444,564,o),
(455,584,o),
(455,600,cs),
(455,636,o),
(418,653,o),
(389,653,cs),
(276,653,o),
(216,471,o),
(178,389,c),
(182,388,l)
);
},
{
closed = 1;
nodes = (
(166,299,l),
(169,300,l),
(248,504,l),
(242,512,l),
(285,647,l),
(165,644,l),
(157,623,l),
(188,623,o),
(215,623,o),
(215,602,cs),
(215,594,o),
(212,583,o),
(207,569,cs),
(104,300,l),
(106,299,l)
);
}
);
width = 339;
}
);
metricLeft = n.sups;
},
{
color = 6;
glyphname = s.sups;
kernLeft = sups;
kernRight = sups;
layers = (
{
layerId = "9372F035-DA38-4B54-966C-CEBA9B53DD02";
shapes = (
{
closed = 1;
nodes = (
(275,290,o),
(329,345,o),
(329,397,cs),
(329,437,o),
(302,465,o),
(281,486,cs),
(246,521,ls),
(230,537,o),
(222,556,o),
(222,578,cs),
(222,609,o),
(245,634,o),
(278,634,cs),
(314,634,o),
(314,604,o),
(314,587,cs),
(314,570,o),
(327,558,o),
(346,558,cs),
(369,558,o),
(386,573,o),
(386,594,cs),
(386,615,o),
(368,653,o),
(289,653,cs),
(206,653,o),
(169,602,o),
(169,555,cs),
(169,520,o),
(180,495,o),
(206,469,cs),
(237,438,ls),
(262,413,o),
(268,399,o),
(268,379,cs),
(268,344,o),
(241,309,o),
(193,309,cs),
(163,309,o),
(143,323,o),
(143,343,cs),
(143,361,o),
(154,370,o),
(154,387,cs),
(154,404,o),
(141,416,o),
(122,416,cs),
(96,416,o),
(79,399,o),
(79,373,cs),
(79,340,o),
(108,290,o),
(197,290,cs)
);
}
);
width = 290;
}
);
},
{
color = 6;
glyphname = t.sups;
kernLeft = sups;
kernRight = sups;
layers = (
{
layerId = "9372F035-DA38-4B54-966C-CEBA9B53DD02";
shapes = (
{
closed = 1;
nodes = (
(242,290,o),
(276,325,o),
(297,356,c),
(281,368,l),
(260,340,o),
(233,318,o),
(214,318,cs),
(203,318,o),
(198,325,o),
(198,337,cs),
(198,344,o),
(200,353,o),
(204,364,cs),
(336,711,l),
(275,711,l),
(148,386,ls),
(140,365,o),
(136,348,o),
(136,333,cs),
(136,305,o),
(153,290,o),
(189,290,cs)
);
},
{
closed = 1;
nodes = (
(378,623,l),
(385,643,l),
(194,643,l),
(187,623,l)
);
}
);
width = 278;
}
);
},
{
color = 6;
glyphname = zero;
kernLeft = o;
kernRight = o;
layers = (
{
layerId = "9372F035-DA38-4B54-966C-CEBA9B53DD02";
shapes = (
{
closed = 1;
nodes = (
(338,-11,o),
(479,169,o),
(479,328,cs),
(479,409,o),
(438,469,o),
(340,469,cs),
(189,469,o),
(42,288,o),
(42,131,cs),
(42,52,o),
(87,-11,o),
(185,-11,cs)
);
},
{
closed = 1;
nodes = (
(144,14,o),
(114,49,o),
(114,109,cs),
(114,239,o),
(208,444,o),
(331,444,cs),
(386,444,o),
(407,406,o),
(407,351,cs),
(407,204,o),
(314,14,o),
(196,14,cs)
);
}
);
width = 490;
}
);
unicode = 48;
},
{
color = 6;
glyphname = one;
kernLeft = n;
kernRight = one;
layers = (
{
layerId = "9372F035-DA38-4B54-966C-CEBA9B53DD02";
shapes = (
{
closed = 1;
nodes = (
(83,0,l),
(205,-3,l),
(213,20,l),
(198,22,ls),
(162,26,o),
(144,29,o),
(144,53,cs),
(144,67,o),
(150,88,o),
(162,121,cs),
(291,475,l),
(251,458,o),
(175,450,o),
(128,450,c),
(117,420,l),
(156,420,o),
(182,416,o),
(182,384,cs),
(182,372,o),
(178,357,o),
(171,337,cs),
(92,121,ls),
(59,31,o),
(44,29,o),
(-16,22,cs),
(-33,20,l),
(-41,-3,l)
);
}
);
width = 306;
}
);
unicode = 49;
},
{
color = 6;
glyphname = two;
kernLeft = o;
layers = (
{
layerId = "9372F035-DA38-4B54-966C-CEBA9B53DD02";
shapes = (
{
closed = 1;
nodes = (
(231,-88,l),
(265,10,l),
(298,79,l),
(94,64,l),
(154,100,ls),
(254,160,o),
(403,250,o),
(403,357,cs),
(403,426,o),
(350,469,o),
(270,469,cs),
(152,469,o),
(78,380,o),
(78,293,cs),
(78,261,o),
(93,232,o),
(118,218,c),
(136,240,l),
(121,246,o),
(108,265,o),
(108,294,cs),
(108,353,o),
(160,438,o),
(245,438,cs),
(289,438,o),
(322,414,o),
(322,354,cs),
(322,252,o),
(190,156,o),
(86,81,cs),
(2,20,l),
(-5,0,l),
(139,0,ls),
(202,0,o),
(219,-7,o),
(219,-31,cs),
(219,-41,o),
(216,-55,o),
(212,-72,cs),
(208,-88,l)
);
}
);
width = 427;
}
);
unicode = 50;
},
{
color = 6;
glyphname = three;
kernLeft = o;
kernRight = o;
layers = (
{
layerId = "9372F035-DA38-4B54-966C-CEBA9B53DD02";
shapes = (
{
closed = 1;
nodes = (
(139,-294,o),
(297,-146,o),
(297,8,cs),
(297,71,o),
(258,120,o),
(187,120,cs),
(162,120,o),
(153,117,o),
(148,116,c),
(128,105,l),
(232,153,ls),
(339,203,o),
(412,277,o),
(412,356,cs),
(412,418,o),
(368,469,o),
(271,469,cs),
(159,469,o),
(76,387,o),
(76,293,cs),
(76,261,o),
(94,229,o),
(125,213,c),
(142,236,l),
(124,244,o),
(106,264,o),
(106,297,cs),
(106,363,o),
(164,438,o),
(245,438,cs),
(303,438,o),
(331,403,o),
(331,356,cs),
(331,248,o),
(221,176,o),
(129,124,cs),
(107,111,o),
(98,107,o),
(77,99,c),
(77,73,l),
(97,82,o),
(124,92,o),
(149,92,cs),
(190,92,o),
(220,71,o),
(220,8,cs),
(220,-92,o),
(114,-267,o),
(-19,-267,cs),
(-65,-267,o),
(-91,-243,o),
(-91,-226,cs),
(-91,-199,o),
(-60,-195,o),
(-60,-162,cs),
(-60,-127,o),
(-88,-117,o),
(-102,-117,cs),
(-140,-117,o),
(-159,-146,o),
(-159,-180,cs),
(-159,-262,o),
(-86,-294,o),
(-19,-294,cs)
);
}
);
width = 426;
}
);
unicode = 51;
},
{
color = 6;
glyphname = four;
kernLeft = four.lf;
kernRight = four.lf;
layers = (
{
layerId = "9372F035-DA38-4B54-966C-CEBA9B53DD02";
shapes = (
{
closed = 1;
nodes = (
(393,20,l),
(378,22,ls),
(342,26,o),
(324,29,o),
(324,53,cs),
(324,67,o),
(330,88,o),
(342,121,cs),
(375,212,l),
(487,212,l),
(499,245,l),
(387,245,l),
(546,681,l),
(524,681,l),
(23,241,l),
(12,212,l),
(307,212,l),
(273,121,ls),
(239,31,o),
(224,29,o),
(164,22,c),
(148,21,l),
(139,-2,l),
(263,0,l),
(385,-3,l)
);
},
{
closed = 1;
nodes = (
(442,575,l),
(319,245,l),
(65,245,l)
);
}
);
width = 512;
}
);
unicode = 52;
},
{
color = 6;
glyphname = five;
kernLeft = five.lf;
kernRight = six.lf;
layers = (
{
guides = (
{
angle = 86;
pos = (-7617,-1673);
}
);
layerId = "9372F035-DA38-4B54-966C-CEBA9B53DD02";
shapes = (
{
closed = 1;
nodes = (
(270,-14,o),
(416,173,o),
(416,321,cs),
(416,412,o),
(367,454,o),
(297,454,cs),
(248,454,o),
(197,430,o),
(162,395,c),
(176,392,l),
(291,652,l),
(255,615,l),
(311,615,ls),
(415,615,o),
(494,624,o),
(520,696,cs),
(524,706,l),
(514,706,l),
(482,691,o),
(430,688,o),
(375,688,cs),
(365,688,o),
(354,688,o),
(344,688,cs),
(305,689,l),
(317,716,l),
(291,716,l),
(133,354,l),
(152,354,l),
(181,389,o),
(224,421,o),
(269,421,cs),
(305,421,o),
(335,398,o),
(335,336,cs),
(335,204,o),
(232,12,o),
(108,12,cs),
(69,12,o),
(48,32,o),
(48,54,cs),
(48,85,o),
(79,83,o),
(79,120,cs),
(79,135,o),
(66,158,o),
(34,158,cs),
(5,158,o),
(-21,136,o),
(-21,97,cs),
(-21,28,o),
(34,-14,o),
(105,-14,cs)
);
}
);
width = 453;
}
);
unicode = 53;
},
{
color = 6;
glyphname = six;
kernLeft = zero.lf;
kernRight = six.lf;
layers = (
{
layerId = "9372F035-DA38-4B54-966C-CEBA9B53DD02";
shapes = (
{
closed = 1;
nodes = (
(331,-14,o),
(470,156,o),
(470,305,cs),
(470,394,o),
(412,431,o),
(348,431,cs),
(286,431,o),
(213,393,o),
(147,278,c),
(156,278,l),
(244,570,o),
(367,693,o),
(445,693,cs),
(471,693,o),
(483,681,o),
(483,652,cs),
(483,627,o),
(497,609,o),
(527,609,cs),
(559,609,o),
(580,636,o),
(580,664,cs),
(580,710,o),
(528,724,o),
(487,724,cs),
(318,724,o),
(164,547,o),
(89,307,cs),
(67,236,o),
(54,172,o),
(54,128,cs),
(54,38,o),
(105,-14,o),
(190,-14,cs)
);
},
{
closed = 1;
nodes = (
(154,11,o),
(123,39,o),
(123,92,cs),
(123,212,o),
(227,403,o),
(326,403,cs),
(368,403,o),
(389,375,o),
(389,318,cs),
(389,198,o),
(303,11,o),
(195,11,cs)
);
}
);
width = 515;
}
);
metricLeft = zero;
unicode = 54;
},
{
color = 6;
glyphname = seven;
kernLeft = seven;
kernRight = seven;
layers = (
{
guides = (
{
pos = (-9890,-1757);
}
);
layerId = "9372F035-DA38-4B54-966C-CEBA9B53DD02";
shapes = (
{
closed = 1;
nodes = (
(-4,-294,o),
(24,-282,o),
(58,-231,cs),
(492,434,l),
(498,450,l),
(141,450,l),
(159,500,l),
(137,500,l),
(52,268,l),
(74,268,l),
(111,368,l),
(425,368,l),
(-12,-197,ls),
(-36,-227,o),
(-47,-253,o),
(-47,-271,cs),
(-47,-285,o),
(-39,-294,o),
(-24,-294,cs)
);
}
);
width = 468;
}
);
unicode = 55;
},
{
color = 6;
glyphname = eight;
kernLeft = zero.lf;
kernRight = zero.lf;
layers = (
{
backgroundImage = {
imagePath = "../../ANRT-Baskerwille/GLYPHS/Master/Glyphs-171013-01/chiffres/JACOB-notice-187525.jpg";
locked = 1;
pos = (0,-4521);
scale = (2.2278,3.1436);
slant = (80.6822,-1.1829);
};
layerId = "9372F035-DA38-4B54-966C-CEBA9B53DD02";
shapes = (
{
closed = 1;
nodes = (
(317,-14,o),
(444,82,o),
(444,198,cs),
(444,279,o),
(374,354,o),
(331,409,cs),
(290,467,o),
(264,505,o),
(264,554,cs),
(264,627,o),
(317,691,o),
(412,691,cs),
(471,691,o),
(512,659,o),
(512,607,cs),
(512,515,o),
(408,445,o),
(300,404,c),
(321,381,l),
(438,430,o),
(544,509,o),
(544,614,cs),
(544,678,o),
(489,723,o),
(411,723,cs),
(282,723,o),
(184,647,o),
(184,547,cs),
(184,482,o),
(232,416,o),
(268,365,cs),
(320,299,o),
(363,257,o),
(363,190,cs),
(363,94,o),
(304,17,o),
(187,17,cs),
(105,17,o),
(59,61,o),
(59,134,cs),
(59,232,o),
(152,301,o),
(294,368,c),
(275,389,l),
(125,316,o),
(27,240,o),
(27,126,cs),
(27,48,o),
(88,-14,o),
(184,-14,cs)
);
}
);
width = 491;
}
);
unicode = 56;
},
{
color = 6;
glyphname = zero.lf;
kernLeft = zero.lf;
kernRight = zero.lf;
layers = (
{
layerId = "9372F035-DA38-4B54-966C-CEBA9B53DD02";
shapes = (
{
closed = 1;
nodes = (
(467,-14,o),
(670,269,o),
(670,520,cs),
(670,649,o),
(613,724,o),
(493,724,cs),
(296,724,o),
(83,444,o),
(83,193,cs),
(83,65,o),
(145,-14,o),
(249,-14,cs)
);
},
{
closed = 1;
nodes = (
(187,13,o),
(163,65,o),
(163,141,cs),
(163,349,o),
(329,697,o),
(495,697,cs),
(567,697,o),
(591,648,o),
(591,570,cs),
(591,337,o),
(421,13,o),
(256,13,cs)
);
}
);
width = 630;
}
);
},
{
color = 6;
glyphname = one.lf;
kernLeft = one.lf;
kernRight = one.lf;
layers = (
{
layerId = "9372F035-DA38-4B54-966C-CEBA9B53DD02";
shapes = (
{
closed = 1;
nodes = (
(121,0,l),
(274,-3,l),
(283,22,l),
(264,24,ls),
(211,30,o),
(189,36,o),
(189,63,cs),
(189,78,o),
(196,100,o),
(208,133,cs),
(415,719,l),
(377,719,l),
(322,699,o),
(286,684,o),
(206,675,c),
(195,645,l),
(228,642,ls),
(276,638,o),
(292,625,o),
(292,601,cs),
(292,590,o),
(289,577,o),
(283,561,cs),
(132,133,ls),
(97,34,o),
(74,32,o),
(-2,24,cs),
(-23,22,l),
(-32,-3,l)
);
}
);
width = 374;
}
);
},
{
color = 6;
glyphname = two.lf;
kernLeft = two.lf;
kernRight = zero.lf;
layers = (
{
layerId = "9372F035-DA38-4B54-966C-CEBA9B53DD02";
shapes = (
{
closed = 1;
nodes = (
(423,0,l),
(433,29,l),
(488,177,l),
(461,177,l),
(451,157,ls),
(418,91,o),
(416,70,o),
(314,69,cs),
(63,66,l),
(22,17,l),
(299,219,ls),
(426,311,o),
(600,429,o),
(600,582,cs),
(600,669,o),
(535,724,o),
(424,724,cs),
(261,724,o),
(165,592,o),
(165,510,cs),
(165,471,o),
(178,433,o),
(220,433,cs),
(251,433,o),
(273,455,o),
(273,488,cs),
(273,511,o),
(260,521,o),
(249,532,cs),
(239,542,o),
(229,550,o),
(229,567,cs),
(229,616,o),
(301,679,o),
(389,679,cs),
(468,679,o),
(510,639,o),
(510,576,cs),
(510,440,o),
(368,319,o),
(262,236,cs),
(8,36,l),
(-4,0,l)
);
}
);
width = 564;
}
);
},
{
color = 6;
glyphname = three.lf;
kernLeft = three.lf;
kernRight = three.lf;
layers = (
{
guides = (
{
pos = (-1392,-280);
}
);
layerId = "9372F035-DA38-4B54-966C-CEBA9B53DD02";
shapes = (
{
closed = 1;
nodes = (
(352,-14,o),
(492,126,o),
(492,272,cs),
(492,351,o),
(446,400,o),
(356,400,cs),
(344,400,o),
(316,397,o),
(284,392,c),
(280,381,l),
(393,410,o),
(588,484,o),
(588,613,cs),
(588,691,o),
(516,724,o),
(435,724,cs),
(293,724,o),
(195,646,o),
(195,578,cs),
(195,555,o),
(210,524,o),
(246,524,cs),
(276,524,o),
(300,542,o),
(300,571,cs),
(300,587,o),
(294,594,o),
(288,599,cs),
(281,605,o),
(272,612,o),
(272,623,cs),
(272,658,o),
(331,694,o),
(399,694,cs),
(466,694,o),
(498,663,o),
(498,615,cs),
(498,501,o),
(369,428,o),
(246,392,c),
(232,357,l),
(262,367,o),
(291,374,o),
(316,374,cs),
(376,374,o),
(411,343,o),
(411,282,cs),
(411,149,o),
(293,15,o),
(168,15,cs),
(111,15,o),
(85,37,o),
(85,54,cs),
(85,81,o),
(116,85,o),
(116,118,cs),
(116,153,o),
(88,163,o),
(74,163,cs),
(36,163,o),
(17,134,o),
(17,100,cs),
(17,18,o),
(90,-14,o),
(170,-14,cs)
);
}
);
width = 537;
}
);
},
{
color = 6;
glyphname = four.lf;
kernLeft = four.lf;
kernRight = four.lf;
layers = (
{
layerId = "9372F035-DA38-4B54-966C-CEBA9B53DD02";
shapes = (
{
closed = 1;
nodes = (
(452,171,l),
(461,198,l),
(35,198,l),
(28,175,l),
(599,696,l),
(605,710,l),
(475,710,l),
(363,566,o),
(228,400,o),
(84,259,cs),
(19,196,l),
(10,171,l)
);
},
{
closed = 1;
nodes = (
(261,0,l),
(414,-3,l),
(422,22,l),
(405,24,ls),
(350,30,o),
(328,37,o),
(328,65,cs),
(328,80,o),
(335,102,o),
(346,133,cs),
(452,433,l),
(428,433,l),
(408,407,o),
(376,391,o),
(358,386,c),
(268,133,ls),
(236,44,o),
(214,32,o),
(136,24,cs),
(115,22,l),
(105,-3,l)
);
}
);
width = 509;
}
);
},
{
color = 6;
glyphname = five.lf;
kernLeft = five.lf;
kernRight = six.lf;
layers = (
{
layerId = "9372F035-DA38-4B54-966C-CEBA9B53DD02";
shapes = (
{
closed = 1;
nodes = (
(327,-14,o),
(467,131,o),
(467,305,cs),
(467,383,o),
(423,446,o),
(321,446,cs),
(269,446,o),
(213,426,o),
(169,383,c),
(180,361,l),
(285,628,l),
(416,628,ls),
(494,628,o),
(564,628,o),
(600,715,c),
(595,717,l),
(553,711,o),
(516,710,o),
(483,710,cs),
(468,710,o),
(454,710,o),
(440,710,cs),
(289,710,l),
(148,355,l),
(174,355,l),
(199,382,o),
(243,412,o),
(294,412,cs),
(361,412,o),
(378,357,o),
(378,309,cs),
(378,160,o),
(266,15,o),
(136,15,cs),
(88,15,o),
(62,34,o),
(62,54,cs),
(62,85,o),
(93,83,o),
(93,120,cs),
(93,135,o),
(80,158,o),
(48,158,cs),
(19,158,o),
(-7,136,o),
(-7,97,cs),
(-7,29,o),
(54,-14,o),
(143,-14,cs)
);
}
);
width = 497;
}
);
},
{
color = 6;
glyphname = six.lf;
kernLeft = zero.lf;
kernRight = six.lf;
layers = (
{
layerId = "9372F035-DA38-4B54-966C-CEBA9B53DD02";
shapes = (
{
closed = 1;
nodes = (
(376,-14,o),
(524,117,o),
(524,279,cs),
(524,377,o),
(455,429,o),
(377,429,cs),
(304,429,o),
(218,388,o),
(151,282,c),
(186,297,l),
(219,391,o),
(252,471,o),
(286,532,cs),
(348,644,o),
(428,696,o),
(498,696,cs),
(533,696,o),
(540,674,o),
(540,632,cs),
(540,606,o),
(557,589,o),
(584,589,cs),
(616,589,o),
(632,618,o),
(632,644,cs),
(632,670,o),
(619,724,o),
(508,724,cs),
(287,724,o),
(64,371,o),
(64,154,cs),
(64,33,o),
(139,-14,o),
(231,-14,cs)
);
},
{
closed = 1;
nodes = (
(176,14,o),
(142,57,o),
(142,126,cs),
(142,237,o),
(240,396,o),
(351,396,cs),
(405,396,o),
(442,361,o),
(442,299,cs),
(442,154,o),
(337,14,o),
(236,14,cs)
);
}
);
width = 550;
}
);
metricLeft = zero.lf;
},
{
color = 6;
glyphname = seven.lf;
kernLeft = seven.lf;
kernRight = seven.lf;
layers = (
{
layerId = "9372F035-DA38-4B54-966C-CEBA9B53DD02";
shapes = (
{
closed = 1;
nodes = (
(117,0,l),
(225,167,o),
(336,332,o),
(501,533,cs),
(627,688,l),
(636,710,l),
(225,710,l),
(212,675,l),
(157,527,l),
(183,527,l),
(192,547,ls),
(228,624,o),
(239,640,o),
(330,640,cs),
(568,640,l),
(572,664,l),
(-4,0,l)
);
}
);
width = 478;
}
);
},
{
color = 6;
glyphname = eight.lf;
kernLeft = zero.lf;
kernRight = zero.lf;
layers = (
{
layerId = "9372F035-DA38-4B54-966C-CEBA9B53DD02";
shapes = (
{
closed = 1;
nodes = (
(377,-14,o),
(508,107,o),
(508,233,cs),
(508,309,o),
(457,370,o),
(360,387,c),
(385,371,l),
(523,389,o),
(612,474,o),
(612,576,cs),
(612,665,o),
(544,724,o),
(447,724,cs),
(309,724,o),
(197,628,o),
(197,515,cs),
(197,448,o),
(244,393,o),
(316,376,c),
(296,388,l),
(158,368,o),
(53,244,o),
(53,138,cs),
(53,52,o),
(115,-14,o),
(227,-14,cs)
);
},
{
closed = 1;
nodes = (
(171,10,o),
(139,51,o),
(139,119,cs),
(139,229,o),
(225,368,o),
(329,368,cs),
(386,368,o),
(422,328,o),
(422,255,cs),
(422,143,o),
(338,10,o),
(228,10,cs)
);
},
{
closed = 1;
nodes = (
(307,392,o),
(278,439,o),
(278,497,cs),
(278,594,o),
(355,700,o),
(445,700,cs),
(496,700,o),
(530,671,o),
(530,604,cs),
(530,501,o),
(454,392,o),
(362,392,cs)
);
}
);
width = 555;
}
);
},
{
color = 6;
glyphname = fraction;
kernLeft = slash;
kernRight = slash;
layers = (
{
layerId = "9372F035-DA38-4B54-966C-CEBA9B53DD02";
shapes = (
{
closed = 1;
nodes = (
(-162,0,l),
(596,710,l),
(557,710,l),
(-200,0,l)
);
}
);
width = 283;
}
);
unicode = 8260;
},
{
color = 6;
glyphname = zero.sups;
kernLeft = sups;
kernRight = sups;
layers = (
{
layerId = "9372F035-DA38-4B54-966C-CEBA9B53DD02";
shapes = (
{
closed = 1;
nodes = (
(388,290,o),
(514,458,o),
(514,592,cs),
(514,674,o),
(475,716,o),
(396,716,cs),
(257,716,o),
(132,548,o),
(132,413,cs),
(132,336,o),
(171,290,o),
(247,290,cs)
);
},
{
closed = 1;
nodes = (
(218,315,o),
(194,334,o),
(194,389,cs),
(194,487,o),
(287,691,o),
(394,691,cs),
(428,691,o),
(452,671,o),
(452,619,cs),
(452,518,o),
(357,315,o),
(251,315,cs)
);
}
);
width = 415;
}
);
metricLeft = "=zero.lf-15";
metricRight = "=zero.lf-15";
},
{
color = 6;
glyphname = one.sups;
kernLeft = sups;
kernRight = sups;
layers = (
{
layerId = "9372F035-DA38-4B54-966C-CEBA9B53DD02";
shapes = (
{
closed = 1;
nodes = (
(161,297,l),
(262,295,l),
(270,317,l),
(251,318,ls),
(223,319,o),
(210,322,o),
(210,338,cs),
(210,346,o),
(215,361,o),
(222,380,cs),
(344,716,l),
(309,716,l),
(251,695,o),
(244,694,o),
(197,690,c),
(188,667,l),
(218,665,ls),
(242,663,o),
(252,659,o),
(252,644,cs),
(252,638,o),
(249,629,o),
(245,618,cs),
(159,380,ls),
(140,327,o),
(132,320,o),
(84,318,cs),
(63,317,l),
(55,295,l)
);
}
);
width = 240;
}
);
metricLeft = "=one-15";
metricRight = "=one-15";
},
{
color = 6;
glyphname = two.sups;
kernLeft = sups;
kernRight = sups;
layers = (
{
layerId = "9372F035-DA38-4B54-966C-CEBA9B53DD02";
shapes = (
{
closed = 1;
nodes = (
(334,297,l),
(345,332,l),
(373,400,l),
(352,400,l),
(326,362,o),
(317,356,o),
(265,355,cs),
(129,353,l),
(115,327,l),
(260,424,ls),
(352,485,o),
(450,551,o),
(450,630,cs),
(450,683,o),
(411,717,o),
(334,717,cs),
(243,717,o),
(164,662,o),
(164,598,cs),
(164,572,o),
(176,547,o),
(207,547,cs),
(229,547,o),
(248,564,o),
(248,586,cs),
(248,599,o),
(243,607,o),
(236,612,cs),
(227,619,o),
(219,626,o),
(219,634,cs),
(219,663,o),
(258,691,o),
(306,691,cs),
(348,691,o),
(378,668,o),
(378,625,cs),
(378,551,o),
(314,493,o),
(231,434,cs),
(71,320,l),
(63,297,l)
);
}
);
width = 347;
}
);
},
{
color = 6;
glyphname = three.sups;
kernLeft = sups;
kernRight = sups;
layers = (
{
layerId = "9372F035-DA38-4B54-966C-CEBA9B53DD02";
shapes = (
{
closed = 1;
nodes = (
(279,290,o),
(393,354,o),
(393,439,cs),
(393,488,o),
(354,521,o),
(286,521,cs),
(280,521,l),
(283,519,l),
(363,537,o),
(450,570,o),
(450,638,cs),
(450,691,o),
(400,717,o),
(327,717,cs),
(239,717,o),
(179,664,o),
(179,619,cs),
(179,594,o),
(196,578,o),
(216,578,cs),
(241,578,o),
(254,593,o),
(254,614,cs),
(254,618,o),
(252,628,o),
(247,635,cs),
(242,643,o),
(239,648,o),
(239,652,cs),
(239,674,o),
(273,695,o),
(316,695,cs),
(361,695,o),
(378,671,o),
(378,642,cs),
(378,587,o),
(308,539,o),
(221,516,c),
(213,494,l),
(222,497,o),
(243,502,o),
(266,502,cs),
(308,502,o),
(327,480,o),
(327,444,cs),
(327,370,o),
(251,310,o),
(182,310,cs),
(150,310,o),
(134,319,o),
(134,332,cs),
(134,338,o),
(138,343,o),
(143,349,cs),
(148,355,o),
(153,362,o),
(153,373,cs),
(153,390,o),
(140,403,o),
(119,403,cs),
(92,403,o),
(72,383,o),
(72,357,cs),
(72,314,o),
(117,290,o),
(183,290,cs)
);
}
);
width = 348;
}
);
},
{
color = 6;
glyphname = four.sups;
kernLeft = sups;
kernRight = sups;
layers = (
{
layerId = "9372F035-DA38-4B54-966C-CEBA9B53DD02";
shapes = (
{
closed = 1;
nodes = (
(255,395,l),
(263,417,l),
(108,417,l),
(100,401,l),
(441,710,l),
(330,710,l),
(272,630,o),
(164,484,o),
(82,406,c),
(78,395,l)
);
},
{
closed = 1;
nodes = (
(246,296,l),
(331,294,l),
(341,314,l),
(329,315,ls),
(307,317,o),
(296,319,o),
(296,335,cs),
(296,343,o),
(301,358,o),
(307,373,cs),
(371,547,l),
(349,547,l),
(330,534,o),
(310,524,o),
(295,520,c),
(241,373,ls),
(223,325,o),
(218,317,o),
(169,315,cs),
(147,314,l),
(139,294,l)
);
},
{
closed = 1;
nodes = (
(364,395,l),
(372,417,l),
(317,417,l),
(309,395,l)
);
}
);
width = 325;
}
);
},
{
color = 6;
glyphname = five.sups;
kernLeft = sups;
kernRight = sups;
layers = (
{
layerId = "9372F035-DA38-4B54-966C-CEBA9B53DD02";
shapes = (
{
closed = 1;
nodes = (
(279,290,o),
(391,371,o),
(391,473,cs),
(391,522,o),
(361,558,o),
(301,558,cs),
(246,558,o),
(201,530,o),
(179,498,c),
(201,506,l),
(263,678,l),
(239,648,l),
(338,648,ls),
(394,648,o),
(442,652,o),
(466,713,c),
(443,712,o),
(391,710,o),
(356,710,cs),
(252,710,l),
(168,485,l),
(187,485,l),
(209,510,o),
(246,534,o),
(278,534,cs),
(304,534,o),
(322,518,o),
(322,485,cs),
(322,395,o),
(253,311,o),
(175,311,cs),
(150,311,o),
(134,320,o),
(134,331,cs),
(134,338,o),
(139,347,o),
(143,353,cs),
(148,361,o),
(153,371,o),
(153,380,cs),
(153,393,o),
(143,407,o),
(120,407,cs),
(91,407,o),
(72,383,o),
(72,357,cs),
(72,322,o),
(107,290,o),
(175,290,cs)
);
}
);
width = 342;
}
);
},
{
color = 6;
glyphname = six.sups;
kernLeft = sups;
kernRight = sups;
layers = (
{
layerId = "9372F035-DA38-4B54-966C-CEBA9B53DD02";
shapes = (
{
closed = 1;
nodes = (
(315,290,o),
(416,359,o),
(416,462,cs),
(416,514,o),
(373,546,o),
(316,546,cs),
(265,546,o),
(230,526,o),
(198,495,c),
(212,495,l),
(248,591,o),
(304,701,o),
(385,701,cs),
(401,701,o),
(413,696,o),
(413,683,cs),
(413,675,o),
(408,668,o),
(403,662,cs),
(396,654,o),
(389,645,o),
(389,633,cs),
(389,614,o),
(403,603,o),
(423,603,cs),
(452,603,o),
(469,627,o),
(469,652,cs),
(469,691,o),
(438,717,o),
(391,717,cs),
(245,717,o),
(115,527,o),
(115,391,cs),
(115,333,o),
(146,290,o),
(219,290,cs)
);
},
{
closed = 1;
nodes = (
(193,310,o),
(175,331,o),
(175,368,cs),
(175,434,o),
(240,526,o),
(304,526,cs),
(330,526,o),
(349,510,o),
(349,471,cs),
(349,399,o),
(294,310,o),
(223,310,cs)
);
}
);
width = 363;
}
);
},
{
color = 6;
glyphname = seven.sups;
kernLeft = sups;
kernRight = sups;
layers = (
{
layerId = "9372F035-DA38-4B54-966C-CEBA9B53DD02";
shapes = (
{
closed = 1;
nodes = (
(163,297,l),
(234,403,o),
(297,495,o),
(397,608,cs),
(476,697,l),
(476,710,l),
(205,710,l),
(157,584,l),
(178,584,l),
(189,602,ls),
(212,639,o),
(224,650,o),
(275,650,cs),
(415,650,l),
(424,666,l),
(68,297,l)
);
}
);
width = 304;
}
);
},
{
color = 6;
glyphname = eight.sups;
kernLeft = sups;
kernRight = sups;
layers = (
{
layerId = "9372F035-DA38-4B54-966C-CEBA9B53DD02";
shapes = (
{
closed = 1;
nodes = (
(312,290,o),
(407,358,o),
(407,440,cs),
(407,476,o),
(384,505,o),
(341,518,c),
(407,529,o),
(471,575,o),
(471,641,cs),
(471,683,o),
(439,717,o),
(368,717,cs),
(286,717,o),
(189,662,o),
(189,588,cs),
(189,560,o),
(209,531,o),
(245,519,c),
(171,501,o),
(97,442,o),
(97,374,cs),
(97,331,o),
(131,290,o),
(209,290,cs)
);
},
{
closed = 1;
nodes = (
(183,309,o),
(163,330,o),
(163,366,cs),
(163,420,o),
(217,508,o),
(288,508,cs),
(323,508,o),
(340,489,o),
(340,455,cs),
(340,391,o),
(291,309,o),
(219,309,cs)
);
},
{
closed = 1;
nodes = (
(274,527,o),
(255,541,o),
(255,574,cs),
(255,626,o),
(298,697,o),
(360,697,cs),
(392,697,o),
(406,679,o),
(406,650,cs),
(406,602,o),
(360,527,o),
(302,527,cs)
);
}
);
width = 368;
}
);
},
{
color = 6;
glyphname = .notdef;
layers = (
{
layerId = "9372F035-DA38-4B54-966C-CEBA9B53DD02";
shapes = (
{
closed = 1;
nodes = (
(719,0,l),
(950,710,l),
(240,710,l),
(9,0,l)
);
},
{
closed = 1;
nodes = (
(475,336,l),
(682,30,l),
(72,30,l)
);
},
{
closed = 1;
nodes = (
(254,663,l),
(459,360,l),
(59,58,l)
);
},
{
closed = 1;
nodes = (
(500,354,l),
(902,658,l),
(705,49,l)
);
},
{
closed = 1;
nodes = (
(280,680,l),
(881,680,l),
(483,379,l)
);
}
);
width = 870;
}
);
},
{
color = 6;
glyphname = period;
kernLeft = period;
kernRight = period;
layers = (
{
layerId = "9372F035-DA38-4B54-966C-CEBA9B53DD02";
shapes = (
{
closed = 1;
nodes = (
(93,-11,o),
(119,16,o),
(119,49,cs),
(119,80,o),
(93,107,o),
(61,107,cs),
(26,107,o),
(1,80,o),
(1,49,cs),
(1,16,o),
(26,-11,o),
(61,-11,cs)
);
}
);
width = 245;
}
);
unicode = 46;
},
{
color = 6;
glyphname = comma;
kernLeft = period;
kernRight = period;
layers = (
{
layerId = "9372F035-DA38-4B54-966C-CEBA9B53DD02";
shapes = (
{
closed = 1;
nodes = (
(-30,-173,o),
(15,-162,o),
(54,-138,cs),
(112,-103,o),
(150,-45,o),
(145,20,cs),
(142,70,o),
(104,107,o),
(63,107,cs),
(26,107,o),
(1,79,o),
(1,46,cs),
(1,12,o),
(25,-18,o),
(59,-18,cs),
(91,-18,o),
(107,5,o),
(105,32,cs),
(105,36,o),
(104,40,o),
(103,42,c),
(106,46,l),
(114,38,o),
(116,25,o),
(116,13,cs),
(116,-2,o),
(113,-19,o),
(109,-31,cs),
(82,-107,o),
(3,-136,o),
(-68,-151,c),
(-63,-179,l)
);
}
);
width = 292;
}
);
metricLeft = period;
metricRight = period;
unicode = 44;
},
{
color = 6;
glyphname = exclam;
layers = (
{
hints = (
{
horizontal = 1;
place = (-11,118);
type = Stem;
},
{
horizontal = 1;
place = (720,-20);
target = down;
type = TopGhost;
},
{
place = (31,118);
type = Stem;
}
);
layerId = "9372F035-DA38-4B54-966C-CEBA9B53DD02";
shapes = (
{
closed = 1;
nodes = (
(322,642,ls),
(327,654,o),
(329,665,o),
(329,675,cs),
(329,705,o),
(307,720,o),
(286,720,cs),
(256,720,o),
(231,705,o),
(221,660,cs),
(118,208,l),
(146,199,l)
);
},
{
closed = 1;
nodes = (
(123,-11,o),
(149,16,o),
(149,49,cs),
(149,80,o),
(123,107,o),
(91,107,cs),
(56,107,o),
(31,80,o),
(31,49,cs),
(31,16,o),
(56,-11,o),
(91,-11,cs)
);
}
);
width = 275;
}
);
note = exclam;
unicode = 33;
},
{
color = 6;
glyphname = exclamdown;
layers = (
{
hints = (
{
horizontal = 1;
place = (-4,21);
target = up;
type = BottomGhost;
},
{
horizontal = 1;
place = (606,118);
type = Stem;
},
{
place = (225,118);
type = Stem;
}
);
layerId = "9372F035-DA38-4B54-966C-CEBA9B53DD02";
shapes = (
{
closed = 1;
nodes = (
(106,-4,o),
(132,10,o),
(143,55,cs),
(253,505,l),
(226,515,l),
(42,75,ls),
(37,62,o),
(34,50,o),
(34,41,cs),
(34,11,o),
(56,-3,o),
(76,-4,c)
);
},
{
closed = 1;
nodes = (
(319,606,o),
(343,634,o),
(343,665,cs),
(343,697,o),
(318,723,o),
(284,724,cs),
(252,724,o),
(226,698,o),
(225,665,cs),
(225,633,o),
(251,606,o),
(284,606,cs)
);
}
);
width = 264;
}
);
note = exclamdown;
unicode = 161;
},
{
color = 3;
glyphname = question;
kernLeft = question;
layers = (
{
layerId = "9372F035-DA38-4B54-966C-CEBA9B53DD02";
shapes = (
{
closed = 1;
nodes = (
(402,350,o),
(524,474,o),
(524,597,cs),
(524,675,o),
(459,720,o),
(377,720,cs),
(296,720,o),
(210,681,o),
(210,620,cs),
(210,595,o),
(228,581,o),
(253,581,cs),
(281,581,o),
(305,597,o),
(303,638,cs),
(302,674,o),
(325,694,o),
(377,694,cs),
(423,694,o),
(452,670,o),
(452,620,cs),
(452,526,o),
(372,377,o),
(275,377,cs),
(228,377,o),
(203,404,o),
(202,448,cs),
(202,453,o),
(202,459,o),
(202,464,c),
(180,463,l),
(178,453,o),
(176,443,o),
(176,433,cs),
(178,387,o),
(216,350,o),
(276,350,cs)
);
},
{
closed = 1;
nodes = (
(164,172,o),
(182,188,o),
(184,217,cs),
(202,464,l),
(180,463,l),
(114,226,ls),
(112,219,o),
(111,213,o),
(111,207,cs),
(111,187,o),
(121,172,o),
(143,172,cs)
);
},
{
pos = (70,0);
ref = period;
}
);
width = 460;
}
);
metricLeft = period;
metricRight = period;
unicode = 63;
},
{
color = 6;
glyphname = questiondown;
layers = (
{
layerId = "9372F035-DA38-4B54-966C-CEBA9B53DD02";
shapes = (
{
closed = 1;
nodes = (
(45,90,o),
(-77,-34,o),
(-77,-157,cs),
(-77,-235,o),
(-12,-280,o),
(70,-280,cs),
(151,-280,o),
(237,-241,o),
(237,-180,cs),
(237,-155,o),
(219,-141,o),
(194,-141,cs),
(166,-141,o),
(142,-157,o),
(144,-198,cs),
(145,-234,o),
(122,-254,o),
(70,-254,cs),
(24,-254,o),
(-5,-230,o),
(-5,-180,cs),
(-5,-86,o),
(75,63,o),
(172,63,cs),
(219,63,o),
(244,36,o),
(245,-8,cs),
(245,-13,o),
(245,-19,o),
(245,-24,c),
(267,-23,l),
(269,-13,o),
(271,-3,o),
(271,7,cs),
(269,53,o),
(231,90,o),
(171,90,cs)
);
},
{
closed = 1;
nodes = (
(283,268,o),
(265,252,o),
(263,223,cs),
(245,-24,l),
(267,-23,l),
(333,214,ls),
(335,221,o),
(336,227,o),
(336,233,cs),
(336,253,o),
(326,268,o),
(304,268,cs)
);
},
{
closed = 1;
nodes = (
(284,451,o),
(258,424,o),
(258,391,cs),
(258,360,o),
(284,333,o),
(316,333,cs),
(351,333,o),
(376,360,o),
(376,391,cs),
(376,424,o),
(351,451,o),
(316,451,cs)
);
}
);
width = 454;
}
);
unicode = 191;
},
{
color = 6;
glyphname = asterisk;
kernLeft = sups;
kernRight = sups;
layers = (
{
layerId = "9372F035-DA38-4B54-966C-CEBA9B53DD02";
shapes = (
{
closed = 1;
nodes = (
(388,305,o),
(402,325,o),
(402,355,cs),
(402,392,o),
(375,437,o),
(375,498,c),
(428,468,o),
(454,421,o),
(486,402,cs),
(497,395,o),
(508,392,o),
(517,392,cs),
(530,392,o),
(541,399,o),
(548,411,cs),
(553,420,o),
(555,427,o),
(555,434,cs),
(555,449,o),
(544,460,o),
(525,471,cs),
(494,489,o),
(438,485,o),
(385,515,c),
(435,550,o),
(489,551,o),
(520,572,cs),
(536,583,o),
(547,595,o),
(547,610,cs),
(547,617,o),
(544,625,o),
(538,633,cs),
(530,644,o),
(520,650,o),
(508,650,cs),
(498,650,o),
(486,645,o),
(474,636,cs),
(446,615,o),
(424,566,o),
(375,531,c),
(375,592,o),
(404,637,o),
(404,674,cs),
(404,704,o),
(390,724,o),
(365,724,cs),
(334,724,o),
(325,703,o),
(325,674,cs),
(325,637,o),
(356,592,o),
(356,531,c),
(307,566,o),
(286,615,o),
(257,636,cs),
(245,645,o),
(233,650,o),
(223,650,cs),
(211,650,o),
(201,644,o),
(193,633,cs),
(187,625,o),
(184,617,o),
(184,610,cs),
(184,595,o),
(195,583,o),
(211,572,cs),
(242,551,o),
(296,550,o),
(346,515,c),
(293,485,o),
(238,489,o),
(206,471,cs),
(188,460,o),
(176,449,o),
(176,433,cs),
(176,427,o),
(179,419,o),
(183,411,cs),
(190,398,o),
(201,392,o),
(214,392,cs),
(223,392,o),
(234,395,o),
(245,402,cs),
(277,421,o),
(303,468,o),
(356,498,c),
(356,437,o),
(323,392,o),
(323,355,cs),
(323,326,o),
(332,305,o),
(363,305,cs)
);
}
);
width = 520;
}
);
unicode = 42;
},
{
color = 6;
glyphname = numbersign;
layers = (
{
guides = (
{
angle = 73.8967;
pos = (160,315);
}
);
layerId = "9372F035-DA38-4B54-966C-CEBA9B53DD02";
shapes = (
{
closed = 1;
nodes = (
(432,0,l),
(637,710,l),
(600,710,l),
(395,0,l)
);
},
{
closed = 1;
nodes = (
(239,237,l),
(248,268,l),
(65,268,l),
(56,237,l)
);
},
{
closed = 1;
nodes = (
(472,237,l),
(481,268,l),
(268,268,l),
(261,237,l)
);
},
{
closed = 1;
nodes = (
(199,0,l),
(404,710,l),
(368,710,l),
(162,0,l)
);
},
{
closed = 1;
nodes = (
(299,447,l),
(308,479,l),
(124,479,l),
(115,447,l)
);
},
{
closed = 1;
nodes = (
(693,237,l),
(702,268,l),
(501,268,l),
(493,237,l)
);
},
{
closed = 1;
nodes = (
(532,447,l),
(541,479,l),
(329,479,l),
(321,447,l)
);
},
{
closed = 1;
nodes = (
(753,447,l),
(762,479,l),
(561,479,l),
(554,447,l)
);
}
);
width = 707;
}
);
unicode = 35;
},
{
color = 6;
glyphname = slash;
layers = (
{
layerId = "9372F035-DA38-4B54-966C-CEBA9B53DD02";
shapes = (
{
closed = 1;
nodes = (
(-94,-135,l),
(480,834,l),
(445,834,l),
(-129,-135,l)
);
}
);
width = 257;
}
);
unicode = 47;
},
{
color = 6;
glyphname = backslash;
layers = (
{
layerId = "9372F035-DA38-4B54-966C-CEBA9B53DD02";
shapes = (
{
closed = 1;
nodes = (
(348,-135,l),
(108,834,l),
(73,834,l),
(313,-135,l)
);
}
);
width = 477;
}
);
unicode = 92;
},
{
color = 6;
glyphname = hyphen;
kernLeft = hyphen;
kernRight = hyphen;
layers = (
{
backgroundImage = {
imagePath = "../../../../1878 Limprimerie Berger Levrault Notice historique/Romain/JACOB-notice-187513.jpg";
locked = 1;
pos = (-3119,-3990);
scale = (2.7,2.7);
};
layerId = "9372F035-DA38-4B54-966C-CEBA9B53DD02";
shapes = (
{
closed = 1;
nodes = (
(320,196,l),
(332,232,l),
(65,232,l),
(53,196,l)
);
}
);
width = 388;
}
);
unicode = 45;
},
{
color = 6;
glyphname = endash;
kernLeft = hyphen;
kernRight = hyphen;
layers = (
{
layerId = "9372F035-DA38-4B54-966C-CEBA9B53DD02";
shapes = (
{
closed = 1;
nodes = (
(465,196,l),
(478,232,l),
(24,232,l),
(11,196,l)
);
}
);
width = 494;
}
);
unicode = 8211;
},
{
color = 6;
glyphname = emdash;
kernLeft = hyphen;
kernRight = hyphen;
layers = (
{
layerId = "9372F035-DA38-4B54-966C-CEBA9B53DD02";
shapes = (
{
closed = 1;
nodes = (
(709,196,l),
(725,232,l),
(30,232,l),
(14,196,l)
);
}
);
width = 736;
}
);
unicode = 8212;
},
{
color = 6;
glyphname = parenleft;
kernLeft = parent;
kernRight = parent;
layers = (
{
layerId = "9372F035-DA38-4B54-966C-CEBA9B53DD02";
shapes = (
{
closed = 1;
nodes = (
(455,784,l),
(297,669,o),
(42,382,o),
(42,109,cs),
(42,7,o),
(97,-106,o),
(128,-142,c),
(151,-142,l),
(139,-106,o),
(109,-23,o),
(109,89,cs),
(109,355,o),
(294,629,o),
(497,784,c)
);
}
);
width = 337;
}
);
unicode = 40;
},
{
color = 6;
glyphname = parenright;
kernLeft = parent;
kernRight = parent;
layers = (
{
layerId = "9372F035-DA38-4B54-966C-CEBA9B53DD02";
shapes = (
{
closed = 1;
nodes = (
(-56,-142,l),
(102,-27,o),
(357,260,o),
(357,533,cs),
(357,635,o),
(302,748,o),
(271,784,c),
(248,784,l),
(260,748,o),
(290,665,o),
(290,553,cs),
(290,287,o),
(105,13,o),
(-98,-142,c)
);
}
);
width = 337;
}
);
unicode = 41;
},
{
color = 6;
glyphname = braceleft;
kernLeft = parent;
kernRight = parent;
layers = (
{
layerId = "9372F035-DA38-4B54-966C-CEBA9B53DD02";
shapes = (
{
closed = 1;
nodes = (
(206,-124,l),
(153,-124,o),
(120,-87,o),
(120,-49,cs),
(120,32,o),
(220,99,o),
(220,216,cs),
(220,273,o),
(188,318,o),
(134,318,c),
(136,324,l),
(208,324,o),
(299,403,o),
(328,483,cs),
(353,552,o),
(356,608,o),
(376,667,cs),
(393,718,o),
(466,766,o),
(527,766,c),
(532,784,l),
(427,784,o),
(309,680,o),
(280,601,cs),
(258,540,o),
(269,501,o),
(246,438,cs),
(226,383,o),
(153,331,o),
(91,331,c),
(83,311,l),
(133,311,o),
(166,277,o),
(166,235,cs),
(166,163,o),
(67,83,o),
(67,-10,cs),
(67,-76,o),
(111,-142,o),
(198,-142,c)
);
}
);
width = 376;
}
);
metricLeft = parenleft;
metricRight = parenleft;
unicode = 123;
},
{
color = 6;
glyphname = braceright;
kernLeft = parent;
kernRight = parent;
layers = (
{
layerId = "9372F035-DA38-4B54-966C-CEBA9B53DD02";
shapes = (
{
closed = 1;
nodes = (
(233,766,l),
(286,766,o),
(319,729,o),
(319,691,cs),
(319,610,o),
(219,543,o),
(219,426,cs),
(219,369,o),
(251,324,o),
(305,324,c),
(303,318,l),
(231,318,o),
(140,239,o),
(111,159,cs),
(86,90,o),
(83,34,o),
(63,-25,cs),
(46,-76,o),
(-27,-124,o),
(-88,-124,c),
(-93,-142,l),
(12,-142,o),
(130,-38,o),
(159,41,cs),
(181,102,o),
(170,141,o),
(193,204,cs),
(213,259,o),
(286,311,o),
(348,311,c),
(356,331,l),
(306,331,o),
(273,365,o),
(273,407,cs),
(273,479,o),
(372,559,o),
(372,652,cs),
(372,718,o),
(328,784,o),
(241,784,c)
);
}
);
width = 378;
}
);
metricLeft = parenright;
metricRight = parenright;
unicode = 125;
},
{
color = 6;
glyphname = bracketleft;
kernLeft = parent;
kernRight = parent;
layers = (
{
guides = (
{
pos = (-1753,-192);
}
);
layerId = "9372F035-DA38-4B54-966C-CEBA9B53DD02";
shapes = (
{
closed = 1;
nodes = (
(111,-119,l),
(121,-90,l),
(48,-83,o),
(11,-78,o),
(-4,-54,c),
(276,718,l),
(310,744,o),
(351,750,o),
(428,754,c),
(439,784,l),
(255,784,l),
(-73,-119,l)
);
}
);
width = 279;
}
);
metricLeft = parenleft;
metricRight = parenleft;
unicode = 91;
},
{
color = 6;
glyphname = bracketright;
kernLeft = parent;
kernRight = parent;
layers = (
{
layerId = "9372F035-DA38-4B54-966C-CEBA9B53DD02";
shapes = (
{
closed = 1;
nodes = (
(240,785,l),
(230,756,l),
(303,749,o),
(340,744,o),
(355,720,c),
(75,-52,l),
(41,-78,o),
(0,-84,o),
(-77,-88,c),
(-88,-118,l),
(96,-118,l),
(424,785,l)
);
}
);
width = 281;
}
);
metricLeft = parenright;
metricRight = parenright;
unicode = 93;
},
{
color = 6;
glyphname = quoteright;
kernLeft = quote;
kernRight = quote;
layers = (
{
layerId = "9372F035-DA38-4B54-966C-CEBA9B53DD02";
shapes = (
{
closed = 1;
nodes = (
(208,475,o),
(267,501,o),
(303,576,cs),
(313,597,o),
(319,618,o),
(319,638,cs),
(319,683,o),
(295,718,o),
(249,718,cs),
(212,718,o),
(184,691,o),
(184,652,cs),
(184,621,o),
(207,597,o),
(240,597,cs),
(260,597,o),
(273,607,o),
(280,623,cs),
(283,630,o),
(284,634,o),
(288,634,cs),
(290,634,o),
(294,633,o),
(294,624,cs),
(294,615,o),
(289,597,o),
(282,584,cs),
(251,526,o),
(195,499,o),
(138,495,c),
(141,467,l)
);
}
);
width = 234;
}
);
metricRight = period;
unicode = 8217;
},
{
color = 6;
glyphname = guilsinglleft;
kernLeft = guillemets;
kernRight = guillemets;
layers = (
{
layerId = "9372F035-DA38-4B54-966C-CEBA9B53DD02";
shapes = (
{
closed = 1;
nodes = (
(168,69,l),
(127,91,o),
(110,126,o),
(110,170,cs),
(110,252,o),
(183,339,o),
(258,374,c),
(249,399,l),
(163,375,o),
(56,285,o),
(56,179,cs),
(56,123,o),
(89,64,o),
(159,44,c)
);
}
);
width = 273;
}
);
unicode = 8249;
},
{
color = 6;
glyphname = quotesingle;
kernLeft = quote;
kernRight = quote;
layers = (
{
layerId = "9372F035-DA38-4B54-966C-CEBA9B53DD02";
shapes = (
{
closed = 1;
nodes = (
(282,648,ls),
(289,663,o),
(292,678,o),
(292,690,cs),
(292,708,o),
(285,720,o),
(268,720,cs),
(241,720,o),
(227,691,o),
(220,648,cs),
(199,511,l),
(222,507,l)
);
}
);
width = 187;
}
);
metricLeft = period;
metricRight = period;
unicode = 39;
},
{
color = 6;
glyphname = quotedblright.case;
kernLeft = hyphen;
kernRight = hyphen;
layers = (
{
layerId = "9372F035-DA38-4B54-966C-CEBA9B53DD02";
shapes = (
{
closed = 1;
nodes = (
(479,154,o),
(567,184,o),
(600,288,cs),
(608,313,o),
(610,336,o),
(610,349,cs),
(610,423,o),
(572,471,o),
(513,471,cs),
(462,471,o),
(427,433,o),
(427,383,cs),
(427,339,o),
(455,307,o),
(497,307,cs),
(539,307,o),
(568,332,o),
(568,373,cs),
(568,383,o),
(571,385,o),
(574,385,cs),
(579,385,o),
(579,377,o),
(579,365,cs),
(579,347,o),
(577,318,o),
(568,294,cs),
(539,214,o),
(460,177,o),
(384,163,c),
(389,133,l)
);
},
{
closed = 1;
nodes = (
(168,154,o),
(256,184,o),
(289,288,cs),
(297,313,o),
(299,336,o),
(299,349,cs),
(299,423,o),
(261,471,o),
(202,471,cs),
(151,471,o),
(116,433,o),
(116,383,cs),
(116,339,o),
(144,307,o),
(186,307,cs),
(228,307,o),
(257,332,o),
(257,373,cs),
(257,383,o),
(260,385,o),
(263,385,cs),
(268,385,o),
(268,377,o),
(268,365,cs),
(268,347,o),
(266,318,o),
(257,294,cs),
(228,214,o),
(149,177,o),
(73,163,c),
(78,133,l)
);
}
);
width = 635;
}
);
metricLeft = guilsinglright;
metricRight = guilsinglright;
},
{
color = 6;
glyphname = at;
layers = (
{
layerId = "9372F035-DA38-4B54-966C-CEBA9B53DD02";
shapes = (
{
closed = 1;
nodes = (
(490,-139,o),
(567,-122,o),
(617,-97,c),
(606,-72,l),
(557,-92,o),
(488,-107,o),
(424,-107,cs),
(226,-107,o),
(116,28,o),
(116,203,cs),
(116,442,o),
(298,584,o),
(486,584,cs),
(658,584,o),
(768,483,o),
(768,323,cs),
(768,184,o),
(670,88,o),
(588,88,cs),
(563,88,o),
(549,104,o),
(549,131,cs),
(549,143,o),
(551,157,o),
(557,172,cs),
(653,427,l),
(588,427,l),
(563,364,l),
(559,414,o),
(531,438,o),
(489,438,cs),
(385,438,o),
(239,323,o),
(239,187,cs),
(239,126,o),
(273,59,o),
(352,59,cs),
(403,59,o),
(444,92,o),
(476,137,c),
(475,131,o),
(474,125,o),
(474,120,cs),
(474,84,o),
(499,59,o),
(562,59,cs),
(717,59,o),
(798,184,o),
(798,323,cs),
(798,505,o),
(668,614,o),
(487,614,cs),
(260,614,o),
(60,455,o),
(60,205,cs),
(60,-10,o),
(210,-139,o),
(416,-139,cs)
);
},
{
closed = 1;
nodes = (
(322,84,o),
(311,119,o),
(311,157,cs),
(311,286,o),
(401,413,o),
(489,413,cs),
(524,413,o),
(540,385,o),
(540,347,cs),
(540,319,o),
(532,287,o),
(518,254,cs),
(487,181,o),
(423,84,o),
(363,84,cs)
);
}
);
width = 843;
}
);
unicode = 64;
},
{
color = 6;
glyphname = ampersand;
layers = (
{
layerId = "9372F035-DA38-4B54-966C-CEBA9B53DD02";
shapes = (
{
closed = 1;
nodes = (
(715,-14,o),
(771,16,o),
(833,103,c),
(815,117,l),
(777,67,o),
(751,44,o),
(710,44,cs),
(592,44,o),
(510,170,o),
(439,300,cs),
(391,385,o),
(348,473,o),
(348,530,cs),
(348,620,o),
(399,692,o),
(479,692,cs),
(516,692,o),
(543,669,o),
(543,639,cs),
(543,567,o),
(454,500,o),
(357,454,c),
(368,430,l),
(442,467,o),
(574,545,o),
(574,639,cs),
(574,681,o),
(533,724,o),
(462,724,cs),
(350,724,o),
(257,642,o),
(257,524,cs),
(257,440,o),
(303,347,o),
(367,250,cs),
(478,65,o),
(542,-14,o),
(642,-14,cs)
);
},
{
closed = 1;
nodes = (
(346,-14,o),
(418,47,o),
(540,250,cs),
(588,330,o),
(633,384,o),
(677,384,cs),
(703,384,o),
(699,364,o),
(699,328,cs),
(699,298,o),
(715,278,o),
(740,278,cs),
(777,278,o),
(795,310,o),
(795,340,cs),
(795,366,o),
(781,415,o),
(703,415,cs),
(623,415,o),
(572,356,o),
(520,270,cs),
(412,91,o),
(350,18,o),
(252,18,cs),
(169,18,o),
(123,82,o),
(123,170,cs),
(123,278,o),
(183,352,o),
(303,410,c),
(295,433,l),
(174,387,o),
(33,312,o),
(33,162,cs),
(33,33,o),
(136,-14,o),
(227,-14,cs)
);
}
);
width = 793;
}
);
unicode = 38;
},
{
color = 6;
glyphname = paragraph;
layers = (
{
layerId = "9372F035-DA38-4B54-966C-CEBA9B53DD02";
shapes = (
{
closed = 1;
nodes = (
(189,-186,l),
(472,676,l),
(562,676,l),
(279,-186,l),
(320,-186,l),
(583,607,ls),
(606,677,o),
(653,683,o),
(716,688,c),
(724,713,l),
(510,710,l),
(419,712,ls),
(266,715,o),
(132,597,o),
(132,455,cs),
(132,372,o),
(199,329,o),
(316,329,c),
(147,-186,l)
);
}
);
width = 574;
}
);
metricLeft = I;
metricRight = I;
unicode = 182;
},
{
color = 6;
glyphname = section;
layers = (
{
layerId = "9372F035-DA38-4B54-966C-CEBA9B53DD02";
shapes = (
{
closed = 1;
nodes = (
(238,-294,o),
(351,-230,o),
(351,-116,cs),
(351,-54,o),
(322,-13,o),
(275,38,cs),
(229,87,l),
(373,92,o),
(466,145,o),
(466,244,cs),
(466,306,o),
(437,347,o),
(390,398,cs),
(359,431,ls),
(320,472,o),
(296,511,o),
(296,563,cs),
(296,638,o),
(339,694,o),
(408,694,cs),
(453,694,o),
(485,666,o),
(485,618,cs),
(485,577,o),
(502,555,o),
(536,555,cs),
(567,555,o),
(584,580,o),
(584,608,cs),
(584,677,o),
(513,724,o),
(429,724,cs),
(313,724,o),
(212,654,o),
(212,546,cs),
(212,488,o),
(239,440,o),
(292,384,cs),
(311,364,l),
(169,352,o),
(97,268,o),
(97,183,cs),
(97,128,o),
(124,80,o),
(177,24,cs),
(221,-23,ls),
(250,-54,o),
(265,-95,o),
(265,-131,cs),
(265,-213,o),
(188,-262,o),
(115,-262,cs),
(67,-262,o),
(38,-254,o),
(38,-191,cs),
(38,-150,o),
(20,-125,o),
(-11,-125,cs),
(-44,-125,o),
(-61,-150,o),
(-61,-178,cs),
(-61,-231,o),
(-5,-294,o),
(121,-294,cs)
);
},
{
closed = 1;
nodes = (
(224,117,o),
(181,149,o),
(181,206,cs),
(181,273,o),
(225,335,o),
(291,335,cs),
(354,335,o),
(380,280,o),
(380,237,cs),
(380,168,o),
(332,117,o),
(275,117,cs)
);
}
);
width = 529;
}
);
unicode = 167;
},
{
color = 6;
glyphname = copyright;
layers = (
{
guides = (
{
angle = 90;
pos = (494,703);
showMeasurement = 1;
}
);
layerId = "9372F035-DA38-4B54-966C-CEBA9B53DD02";
shapes = (
{
closed = 1;
nodes = (
(716,-11,o),
(860,153,o),
(860,357,cs),
(860,560,o),
(706,724,o),
(494,724,cs),
(279,724,o),
(125,560,o),
(125,357,cs),
(125,153,o),
(279,-11,o),
(494,-11,cs)
);
},
{
closed = 1;
nodes = (
(558,167,o),
(627,193,o),
(652,272,c),
(628,281,l),
(611,228,o),
(565,196,o),
(517,196,cs),
(437,196,o),
(387,257,o),
(387,358,cs),
(387,448,o),
(432,521,o),
(514,521,cs),
(565,521,o),
(612,488,o),
(623,421,c),
(642,421,l),
(640,482,l),
(642,543,l),
(626,543,l),
(624,528,o),
(620,523,o),
(612,523,cs),
(599,523,o),
(565,550,o),
(502,550,cs),
(389,550,o),
(306,468,o),
(306,358,cs),
(306,246,o),
(380,167,o),
(502,167,cs)
);
},
{
closed = 1;
nodes = (
(303,28,o),
(167,179,o),
(167,357,cs),
(167,534,o),
(303,685,o),
(494,685,cs),
(682,685,o),
(818,534,o),
(818,357,cs),
(818,179,o),
(692,28,o),
(494,28,cs)
);
}
);
width = 886;
}
);
metricLeft = O;
metricRight = O;
unicode = 169;
},
{
color = 6;
glyphname = registered;
layers = (
{
anchors = (
{
name = bottom;
pos = (494,179);
},
{
name = top;
pos = (494,539);
}
);
layerId = "9372F035-DA38-4B54-966C-CEBA9B53DD02";
shapes = (
{
closed = 1;
nodes = (
(706,-11,o),
(860,153,o),
(860,357,cs),
(860,560,o),
(706,724,o),
(494,724,cs),
(279,724,o),
(125,560,o),
(125,357,cs),
(125,153,o),
(279,-11,o),
(494,-11,cs)
);
},
{
closed = 1;
nodes = (
(303,28,o),
(167,179,o),
(167,357,cs),
(167,534,o),
(303,685,o),
(494,685,cs),
(682,685,o),
(818,534,o),
(818,357,cs),
(818,179,o),
(682,28,o),
(494,28,cs)
);
},
{
closed = 1;
nodes = (
(657,173,o),
(679,180,o),
(691,185,c),
(688,204,l),
(671,202,ls),
(653,200,o),
(639,219,o),
(629,268,c),
(621,321,o),
(580,351,o),
(522,355,c),
(581,363,o),
(633,388,o),
(633,451,cs),
(633,519,o),
(561,539,o),
(480,539,cs),
(402,539,l),
(320,541,l),
(319,523,l),
(330,521,l),
(369,517,o),
(379,517,o),
(379,472,cs),
(378,247,ls),
(378,202,o),
(369,201,o),
(330,197,cs),
(319,196,l),
(319,177,l),
(410,179,l),
(503,177,l),
(503,196,l),
(492,197,ls),
(450,201,o),
(440,202,o),
(440,247,cs),
(440,351,l),
(450,351,ls),
(547,349,o),
(562,292,o),
(571,239,cs),
(576,202,o),
(595,173,o),
(636,173,cs)
);
},
{
closed = 1;
nodes = (
(440,519,l),
(481,519,ls),
(540,519,o),
(560,493,o),
(560,448,cs),
(560,397,o),
(538,372,o),
(473,372,cs),
(440,372,l)
);
}
);
width = 885;
}
);
metricLeft = O;
metricRight = O;
unicode = 174;
},
{
color = 6;
glyphname = trademark;
layers = (
{
layerId = "9372F035-DA38-4B54-966C-CEBA9B53DD02";
shapes = (
{
closed = 1;
nodes = (
(583,348,l),
(650,346,l),
(657,365,l),
(646,366,ls),
(623,368,o),
(613,370,o),
(613,384,cs),
(613,390,o),
(615,403,o),
(619,416,cs),
(714,707,l),
(693,706,l),
(733,348,l),
(744,348,l),
(1037,707,l),
(1014,706,l),
(919,416,ls),
(904,371,o),
(896,370,o),
(857,366,cs),
(846,365,l),
(839,346,l),
(921,348,l),
(1016,346,l),
(1023,365,l),
(1012,366,ls),
(986,368,o),
(974,370,o),
(974,385,cs),
(974,391,o),
(976,404,o),
(980,416,cs),
(1054,642,ls),
(1068,685,o),
(1080,688,o),
(1119,691,cs),
(1130,692,l),
(1134,712,l),
(1043,710,l),
(1010,710,l),
(762,405,l),
(791,427,l),
(756,710,l),
(714,710,l),
(635,712,l),
(631,693,l),
(642,692,ls),
(664,690,o),
(675,688,o),
(675,675,cs),
(675,667,o),
(670,651,o),
(667,642,cs),
(593,416,ls),
(578,371,o),
(570,369,o),
(535,366,cs),
(524,365,l),
(517,346,l)
);
},
{
closed = 1;
nodes = (
(300,348,l),
(397,346,l),
(404,365,l),
(392,366,ls),
(361,369,o),
(345,371,o),
(345,387,cs),
(345,393,o),
(348,405,o),
(352,416,cs),
(441,689,l),
(378,689,l),
(289,416,ls),
(274,371,o),
(265,370,o),
(218,366,cs),
(206,365,l),
(199,346,l)
);
},
{
closed = 1;
nodes = (
(587,608,l),
(593,671,l),
(600,712,l),
(442,710,l),
(390,710,l),
(233,712,l),
(214,671,l),
(181,608,l),
(191,606,l),
(242,665,o),
(262,687,o),
(307,687,cs),
(513,687,ls),
(560,687,o),
(565,658,o),
(573,605,c)
);
}
);
width = 1000;
}
);
unicode = 8482;
},
{
color = 6;
glyphname = degree;
layers = (
{
layerId = "9372F035-DA38-4B54-966C-CEBA9B53DD02";
shapes = (
{
closed = 1;
nodes = (
(361,442,o),
(420,501,o),
(420,574,cs),
(420,646,o),
(361,705,o),
(289,705,cs),
(216,705,o),
(157,646,o),
(157,574,cs),
(157,501,o),
(216,442,o),
(289,442,cs)
);
},
{
closed = 1;
nodes = (
(236,479,o),
(194,521,o),
(194,574,cs),
(194,626,o),
(236,668,o),
(289,668,cs),
(341,668,o),
(383,626,o),
(383,574,cs),
(383,521,o),
(341,479,o),
(289,479,cs)
);
}
);
width = 320;
}
);
unicode = 176;
},
{
color = 6;
glyphname = bar;
layers = (
{
layerId = "9372F035-DA38-4B54-966C-CEBA9B53DD02";
shapes = (
{
closed = 1;
nodes = (
(14,-135,l),
(328,834,l),
(293,834,l),
(-21,-135,l)
);
}
);
width = 213;
}
);
unicode = 124;
},
{
color = 6;
glyphname = brokenbar;
layers = (
{
layerId = "9372F035-DA38-4B54-966C-CEBA9B53DD02";
shapes = (
{
closed = 1;
nodes = (
(187,400,l),
(328,834,l),
(293,834,l),
(152,400,l)
);
},
{
closed = 1;
nodes = (
(14,-135,l),
(155,299,l),
(120,299,l),
(-21,-135,l)
);
}
);
width = 213;
}
);
unicode = 166;
},
{
color = 6;
glyphname = dagger;
layers = (
{
layerId = "9372F035-DA38-4B54-966C-CEBA9B53DD02";
shapes = (
{
closed = 1;
nodes = (
(76,-280,l),
(181,10,o),
(260,188,o),
(296,286,cs),
(341,413,o),
(326,478,o),
(395,565,cs),
(425,603,o),
(454,642,o),
(454,675,cs),
(454,694,o),
(444,710,o),
(421,710,cs),
(372,710,o),
(343,660,o),
(343,608,cs),
(343,595,o),
(344,575,o),
(344,563,cs),
(344,478,o),
(286,410,o),
(243,292,cs),
(209,198,o),
(161,18,o),
(53,-280,c)
);
},
{
closed = 1;
nodes = (
(225,441,o),
(270,470,o),
(333,470,c),
(334,489,l),
(271,489,o),
(225,520,o),
(188,520,cs),
(159,520,o),
(138,511,o),
(138,480,cs),
(138,455,o),
(158,441,o),
(188,441,cs)
);
},
{
closed = 1;
nodes = (
(521,441,o),
(541,455,o),
(541,480,cs),
(541,511,o),
(520,520,o),
(491,520,cs),
(454,520,o),
(408,489,o),
(345,489,c),
(341,470,l),
(403,470,o),
(454,441,o),
(491,441,cs)
);
}
);
width = 489;
}
);
unicode = 8224;
},
{
color = 6;
glyphname = daggerdbl;
layers = (
{
layerId = "9372F035-DA38-4B54-966C-CEBA9B53DD02";
shapes = (
{
closed = 1;
nodes = (
(106,-294,o),
(128,-241,o),
(132,-166,cs),
(132,-144,o),
(132,-120,o),
(143,-90,c),
(145,-82,ls),
(160,-46,o),
(183,-15,o),
(193,13,cs),
(204,42,o),
(218,112,o),
(236,162,c),
(213,162,l),
(193,107,o),
(154,40,o),
(144,14,cs),
(134,-15,o),
(135,-45,o),
(123,-82,cs),
(120,-90,ls),
(109,-118,o),
(93,-140,o),
(77,-160,cs),
(54,-191,o),
(25,-228,o),
(25,-261,cs),
(25,-282,o),
(41,-294,o),
(60,-294,cs)
);
},
{
closed = 1;
nodes = (
(18,-126,o),
(64,-95,o),
(127,-96,c),
(127,-77,l),
(64,-78,o),
(18,-49,o),
(-17,-49,cs),
(-48,-49,o),
(-68,-63,o),
(-68,-87,cs),
(-68,-117,o),
(-47,-126,o),
(-17,-126,cs)
);
},
{
closed = 1;
nodes = (
(312,-126,o),
(333,-117,o),
(333,-87,cs),
(333,-63,o),
(313,-49,o),
(282,-49,cs),
(247,-49,o),
(201,-78,o),
(138,-77,c),
(138,-96,l),
(201,-95,o),
(247,-126,o),
(282,-126,cs)
);
},
{
closed = 1;
nodes = (
(232,465,o),
(278,494,o),
(341,493,c),
(341,512,l),
(278,511,o),
(232,542,o),
(197,542,cs),
(167,542,o),
(146,533,o),
(146,503,cs),
(146,479,o),
(166,465,o),
(197,465,cs)
);
},
{
closed = 1;
nodes = (
(270,254,l),
(289,309,o),
(325,375,o),
(335,403,cs),
(345,431,o),
(344,462,o),
(357,498,c),
(359,506,ls),
(371,536,o),
(388,559,o),
(404,582,cs),
(428,613,o),
(451,645,o),
(451,674,cs),
(451,696,o),
(437,710,o),
(414,710,cs),
(366,710,o),
(345,652,o),
(345,598,cs),
(345,587,o),
(346,577,o),
(346,566,cs),
(346,548,o),
(344,529,o),
(337,506,cs),
(334,498,ls),
(319,461,o),
(296,431,o),
(286,402,cs),
(276,376,o),
(267,309,o),
(247,254,c)
);
},
{
closed = 1;
nodes = (
(527,465,o),
(547,479,o),
(547,503,cs),
(547,533,o),
(526,542,o),
(496,542,cs),
(461,542,o),
(415,511,o),
(352,512,c),
(352,493,l),
(415,494,o),
(461,465,o),
(496,465,cs)
);
}
);
width = 488;
}
);
unicode = 8225;
},
{
color = 3;
glyphname = cent;
layers = (
{
layerId = "9372F035-DA38-4B54-966C-CEBA9B53DD02";
shapes = (
{
closed = 1;
nodes = (
(128,-115,l),
(373,558,l),
(348,558,l),
(103,-115,l)
);
},
{
locked = 1;
ref = c;
}
);
width = 438;
}
);
metricLeft = c;
metricRight = c;
unicode = 162;
},
{
color = 6;
glyphname = currency;
layers = (
{
layerId = "9372F035-DA38-4B54-966C-CEBA9B53DD02";
shapes = (
{
closed = 1;
nodes = (
(428,197,o),
(502,271,o),
(502,366,cs),
(502,461,o),
(428,535,o),
(333,535,cs),
(237,535,o),
(163,461,o),
(163,366,cs),
(163,271,o),
(237,197,o),
(333,197,cs)
);
},
{
closed = 1;
nodes = (
(253,260,l),
(227,286,l),
(150,209,l),
(176,183,l)
);
},
{
closed = 1;
nodes = (
(260,237,o),
(203,293,o),
(203,366,cs),
(203,439,o),
(260,495,o),
(333,495,cs),
(406,495,o),
(462,439,o),
(462,366,cs),
(462,293,o),
(406,237,o),
(333,237,cs)
);
},
{
closed = 1;
nodes = (
(515,209,l),
(439,285,l),
(414,259,l),
(490,183,l)
);
},
{
closed = 1;
nodes = (
(251,473,l),
(175,549,l),
(150,523,l),
(225,448,l)
);
},
{
closed = 1;
nodes = (
(515,523,l),
(490,548,l),
(414,473,l),
(439,447,l)
);
}
);
width = 559;
}
);
unicode = 164;
},
{
color = 3;
glyphname = dollar;
layers = (
{
layerId = "9372F035-DA38-4B54-966C-CEBA9B53DD02";
shapes = (
{
closed = 1;
nodes = (
(196,-115,l),
(503,830,l),
(478,830,l),
(171,-115,l)
);
},
{
ref = S;
}
);
width = 589;
}
);
metricLeft = S;
metricRight = S;
unicode = 36;
},
{
color = 6;
glyphname = euro;
layers = (
{
anchors = (
{
name = bottom;
pos = (338,0);
},
{
name = top;
pos = (526,710);
}
);
layerId = "9372F035-DA38-4B54-966C-CEBA9B53DD02";
shapes = (
{
closed = 1;
nodes = (
(428,-11,o),
(500,48,o),
(555,110,cs),
(602,164,o),
(630,222,o),
(640,247,c),
(614,247,l),
(595,205,o),
(569,164,o),
(538,130,cs),
(481,65,o),
(410,20,o),
(326,20,cs),
(217,20,o),
(170,104,o),
(170,234,cs),
(170,462,o),
(358,690,o),
(538,690,cs),
(623,690,o),
(680,640,o),
(680,543,cs),
(680,525,o),
(678,506,o),
(674,485,c),
(700,485,l),
(738,594,l),
(780,697,l),
(754,697,l),
(743,683,o),
(727,663,o),
(716,663,cs),
(690,663,o),
(648,720,o),
(531,720,cs),
(287,720,o),
(80,466,o),
(80,221,cs),
(80,59,o),
(182,-11,o),
(306,-11,cs)
);
},
{
closed = 1;
nodes = (
(83,259,l),
(90,291,l),
(-11,291,l),
(-22,259,l)
);
},
{
closed = 1;
nodes = (
(120,377,l),
(133,409,l),
(32,409,l),
(21,377,l)
);
},
{
closed = 1;
nodes = (
(441,259,l),
(466,291,l),
(144,291,l),
(137,259,l)
);
},
{
closed = 1;
nodes = (
(524,377,l),
(549,409,l),
(186,409,l),
(173,377,l)
);
}
);
width = 686;
}
);
unicode = 8364;
},
{
color = 6;
glyphname = sterling;
layers = (
{
layerId = "9372F035-DA38-4B54-966C-CEBA9B53DD02";
shapes = (
{
closed = 1;
nodes = (
(59,-14,o),
(169,119,o),
(245,257,cs),
(273,308,o),
(293,344,o),
(312,378,cs),
(400,536,o),
(491,699,o),
(587,699,cs),
(606,699,o),
(619,694,o),
(619,683,cs),
(619,677,o),
(614,673,o),
(607,668,cs),
(596,660,o),
(580,648,o),
(580,626,cs),
(580,602,o),
(599,590,o),
(621,590,cs),
(653,590,o),
(682,615,o),
(682,652,cs),
(682,701,o),
(640,724,o),
(593,724,cs),
(426,724,o),
(302,516,o),
(218,358,cs),
(201,326,o),
(184,293,o),
(169,256,cs),
(117,131,o),
(112,121,o),
(93,87,c),
(119,98,l),
(55,98,o),
(-53,65,o),
(-53,10,cs),
(-53,-2,o),
(-41,-14,o),
(-15,-14,cs)
);
},
{
closed = 1;
nodes = (
(418,-14,o),
(484,62,o),
(516,153,c),
(494,153,l),
(466,88,o),
(418,55,o),
(361,55,cs),
(325,55,o),
(296,64,o),
(265,74,cs),
(228,86,o),
(187,95,o),
(127,95,c),
(110,76,l),
(136,76,o),
(175,51,o),
(202,32,cs),
(235,9,o),
(270,-14,o),
(317,-14,cs)
);
},
{
closed = 1;
nodes = (
(224,313,l),
(235,337,l),
(112,337,l),
(99,313,l)
);
},
{
closed = 1;
nodes = (
(439,309,l),
(452,333,l),
(263,333,l),
(249,309,l)
);
}
);
width = 560;
}
);
unicode = 163;
},
{
color = 3;
glyphname = plus;
layers = (
{
layerId = "9372F035-DA38-4B54-966C-CEBA9B53DD02";
shapes = (
{
closed = 1;
nodes = (
(256,106,l),
(410,529,l),
(374,529,l),
(220,106,l)
);
},
{
ref = minus;
}
);
width = 600;
}
);
metricWidth = "=600";
unicode = 43;
},
{
color = 6;
glyphname = minus;
layers = (
{
layerId = "9372F035-DA38-4B54-966C-CEBA9B53DD02";
shapes = (
{
closed = 1;
nodes = (
(547,300,l),
(560,336,l),
(124,336,l),
(111,300,l)
);
}
);
width = 600;
}
);
metricWidth = "=600";
unicode = 8722;
},
{
color = 6;
glyphname = multiply;
layers = (
{
layerId = "9372F035-DA38-4B54-966C-CEBA9B53DD02";
shapes = (
{
closed = 1;
nodes = (
(599,483,l),
(579,513,l),
(69,139,l),
(89,109,l)
);
},
{
closed = 1;
nodes = (
(471,133,l),
(353,320,l),
(324,297,l),
(443,110,l)
);
},
{
closed = 1;
nodes = (
(348,327,l),
(230,512,l),
(202,489,l),
(319,305,l)
);
}
);
width = 600;
}
);
metricWidth = "=600";
unicode = 215;
},
{
color = 3;
glyphname = divide;
layers = (
{
layerId = "9372F035-DA38-4B54-966C-CEBA9B53DD02";
shapes = (
{
closed = 1;
nodes = (
(390,425,o),
(414,449,o),
(414,478,cs),
(414,504,o),
(394,526,o),
(369,526,cs),
(343,526,o),
(319,501,o),
(319,472,cs),
(319,446,o),
(339,425,o),
(364,425,cs)
);
},
{
closed = 1;
nodes = (
(289,81,o),
(313,105,o),
(313,134,cs),
(313,160,o),
(293,182,o),
(268,182,cs),
(242,182,o),
(218,157,o),
(218,128,cs),
(218,102,o),
(238,81,o),
(263,81,cs)
);
},
{
ref = minus;
}
);
width = 600;
}
);
metricWidth = "=600";
unicode = 247;
},
{
color = 6;
glyphname = equal;
layers = (
{
layerId = "9372F035-DA38-4B54-966C-CEBA9B53DD02";
shapes = (
{
closed = 1;
nodes = (
(523,226,l),
(538,261,l),
(94,261,l),
(79,226,l)
);
},
{
closed = 1;
nodes = (
(571,357,l),
(585,392,l),
(141,392,l),
(127,357,l)
);
}
);
width = 600;
}
);
metricWidth = "=600";
unicode = 61;
},
{
color = 3;
glyphname = notequal;
layers = (
{
layerId = "9372F035-DA38-4B54-966C-CEBA9B53DD02";
shapes = (
{
closed = 1;
nodes = (
(128,120,l),
(524,483,l),
(480,483,l),
(83,120,l)
);
},
{
ref = equal;
}
);
width = 600;
}
);
metricWidth = "=600";
unicode = 8800;
},
{
color = 6;
glyphname = greater;
layers = (
{
layerId = "9372F035-DA38-4B54-966C-CEBA9B53DD02";
shapes = (
{
closed = 1;
nodes = (
(513,308,l),
(521,329,l),
(218,492,l),
(210,455,l),
(478,311,l),
(479,333,l),
(126,193,l),
(120,152,l)
);
}
);
width = 600;
}
);
metricWidth = "=600";
unicode = 62;
},
{
color = 6;
glyphname = plusminus;
layers = (
{
layerId = "9372F035-DA38-4B54-966C-CEBA9B53DD02";
shapes = (
{
closed = 1;
nodes = (
(320,223,l),
(412,476,l),
(374,476,l),
(282,223,l)
);
},
{
closed = 1;
nodes = (
(424,101,l),
(438,137,l),
(105,137,l),
(91,101,l)
);
},
{
closed = 1;
nodes = (
(326,332,l),
(342,368,l),
(189,368,l),
(173,332,l)
);
},
{
closed = 1;
nodes = (
(505,332,l),
(521,368,l),
(368,368,l),
(352,332,l)
);
}
);
width = 600;
}
);
metricWidth = "=600";
unicode = 177;
},
{
color = 6;
glyphname = asciitilde;
layers = (
{
layerId = "9372F035-DA38-4B54-966C-CEBA9B53DD02";
shapes = (
{
closed = 1;
nodes = (
(98,253,l),
(132,316,o),
(180,347,o),
(232,347,cs),
(266,347,o),
(303,323,o),
(338,300,cs),
(372,277,o),
(410,253,o),
(452,253,cs),
(502,253,o),
(565,317,o),
(594,378,c),
(577,378,l),
(555,338,o),
(514,296,o),
(464,296,cs),
(433,296,o),
(395,319,o),
(358,343,cs),
(320,367,o),
(281,391,o),
(244,391,cs),
(153,391,o),
(92,283,o),
(83,253,c)
);
}
);
width = 600;
}
);
metricWidth = "=600";
unicode = 126;
},
{
color = 6;
glyphname = logicalnot;
layers = (
{
layerId = "9372F035-DA38-4B54-966C-CEBA9B53DD02";
shapes = (
{
closed = 1;
nodes = (
(537,247,l),
(607,441,l),
(568,441,l),
(498,247,l)
);
},
{
closed = 1;
nodes = (
(593,402,l),
(607,441,l),
(153,441,l),
(139,402,l)
);
}
);
width = 600;
}
);
metricWidth = "=600";
unicode = 172;
},
{
color = 6;
glyphname = asciicircum;
layers = (
{
layerId = "9372F035-DA38-4B54-966C-CEBA9B53DD02";
shapes = (
{
closed = 1;
nodes = (
(190,348,l),
(474,678,l),
(464,685,l),
(516,348,l),
(552,348,l),
(496,710,l),
(456,710,l),
(142,348,l)
);
}
);
width = 600;
}
);
metricWidth = "=600";
unicode = 94;
},
{
color = 6;
glyphname = infinity;
layers = (
{
layerId = "9372F035-DA38-4B54-966C-CEBA9B53DD02";
shapes = (
{
closed = 1;
nodes = (
(271,166,o),
(341,198,o),
(420,278,cs),
(499,358,ls),
(541,401,o),
(626,487,o),
(701,487,cs),
(750,487,o),
(780,449,o),
(780,401,cs),
(780,312,o),
(686,225,o),
(590,225,cs),
(507,225,o),
(478,257,o),
(463,334,c),
(432,300,l),
(446,232,o),
(475,168,o),
(573,168,cs),
(707,168,o),
(811,309,o),
(811,427,cs),
(811,494,o),
(771,547,o),
(686,547,cs),
(621,547,o),
(554,511,o),
(490,446,cs),
(374,329,ls),
(328,283,o),
(266,225,o),
(195,225,cs),
(147,225,o),
(114,260,o),
(114,314,cs),
(114,410,o),
(208,487,o),
(306,487,cs),
(377,487,o),
(423,440,o),
(423,367,c),
(455,403,l),
(455,471,o),
(426,547,o),
(332,547,cs),
(205,547,o),
(84,420,o),
(84,295,cs),
(84,230,o),
(123,166,o),
(200,166,cs)
);
}
);
width = 792;
}
);
metricLeft = o;
metricRight = o;
unicode = 8734;
},
{
color = 6;
glyphname = emptyset;
layers = (
{
layerId = "9372F035-DA38-4B54-966C-CEBA9B53DD02";
shapes = (
{
closed = 1;
nodes = (
(234,35,l),
(280,6,o),
(334,-10,o),
(392,-10,cs),
(558,-10,o),
(694,126,o),
(694,294,cs),
(694,389,o),
(649,474,o),
(579,530,c),
(630,603,l),
(600,622,l),
(550,550,l),
(504,579,o),
(450,595,o),
(392,595,cs),
(225,595,o),
(89,459,o),
(89,294,cs),
(89,197,o),
(134,112,o),
(204,56,c),
(150,-21,l),
(180,-42,l)
);
},
{
closed = 1;
nodes = (
(166,135,o),
(129,210,o),
(129,294,cs),
(129,440,o),
(246,558,o),
(392,558,cs),
(442,558,o),
(489,544,o),
(528,520,c),
(225,87,l)
);
},
{
closed = 1;
nodes = (
(342,27,o),
(295,41,o),
(255,65,c),
(557,499,l),
(616,451,o),
(654,377,o),
(654,294,cs),
(654,145,o),
(537,27,o),
(392,27,cs)
);
}
);
width = 729;
}
);
metricLeft = o;
metricRight = o;
unicode = 8709;
},
{
color = 6;
glyphname = micro;
kernLeft = u;
kernRight = u;
layers = (
{
anchors = (
{
name = bottom;
pos = (187,0);
},
{
name = ogonek;
pos = (429,0);
},
{
name = top;
pos = (321,440);
},
{
name = topright;
pos = (499,440);
}
);
backgroundImage = {
imagePath = "../../../../1878 Limprimerie Berger Levrault Notice historique/Italique/Reglu.jpg";
locked = 1;
pos = (-3051,-389);
scale = (12.998,12.998);
};
guides = (
{
angle = 70;
pos = (308,539);
},
{
angle = 70;
pos = (232,540);
},
{
angle = 70;
pos = (558,522);
},
{
angle = 70;
pos = (488,522);
}
);
layerId = "9372F035-DA38-4B54-966C-CEBA9B53DD02";
shapes = (
{
closed = 1;
nodes = (
(211,-14,o),
(272,35,o),
(315,91,c),
(310,72,o),
(307,55,o),
(307,41,cs),
(307,8,o),
(322,-14,o),
(363,-14,cs),
(420,-14,o),
(460,33,o),
(485,75,c),
(467,87,l),
(450,57,o),
(419,19,o),
(390,19,cs),
(379,19,o),
(374,26,o),
(374,39,cs),
(374,50,o),
(377,65,o),
(384,85,cs),
(509,440,l),
(443,440,l),
(348,186,ls),
(318,107,o),
(225,11,o),
(158,11,cs),
(115,11,o),
(109,51,o),
(129,108,cs),
(249,443,l),
(85,440,l),
(78,416,l),
(115,416,o),
(153,419,o),
(153,383,cs),
(153,373,o),
(151,361,o),
(145,346,cs),
(66,137,ls),
(51,97,o),
(43,71,o),
(29,21,cs),
(-62,-300,l),
(-29,-293,o),
(-1,-288,o),
(25,-285,c),
(82,29,l),
(66,8,l),
(83,-7,o),
(105,-14,o),
(139,-14,cs)
);
}
);
width = 533;
}
);
metricLeft = i;
unicode = 181;
},
{
color = 6;
glyphname = percent;
layers = (
{
anchors = (
{
name = _center;
pos = (493,356);
}
);
layerId = "9372F035-DA38-4B54-966C-CEBA9B53DD02";
shapes = (
{
closed = 1;
nodes = (
(116,0,l),
(798,575,l),
(743,575,l),
(61,0,l)
);
},
{
closed = 1;
nodes = (
(326,309,o),
(424,401,o),
(424,496,cs),
(424,549,o),
(387,586,o),
(317,586,cs),
(215,586,o),
(118,493,o),
(118,402,cs),
(118,345,o),
(155,309,o),
(224,309,cs)
);
},
{
closed = 1;
nodes = (
(192,336,o),
(175,357,o),
(175,393,cs),
(175,456,o),
(232,559,o),
(309,559,cs),
(348,559,o),
(366,540,o),
(366,502,cs),
(366,439,o),
(308,336,o),
(229,336,cs)
);
},
{
closed = 1;
nodes = (
(652,-14,o),
(750,78,o),
(750,173,cs),
(750,226,o),
(713,263,o),
(643,263,cs),
(541,263,o),
(444,170,o),
(444,79,cs),
(444,22,o),
(481,-14,o),
(550,-14,cs)
);
},
{
closed = 1;
nodes = (
(518,13,o),
(501,34,o),
(501,70,cs),
(501,133,o),
(558,236,o),
(635,236,cs),
(674,236,o),
(692,217,o),
(692,179,cs),
(692,116,o),
(634,13,o),
(555,13,cs)
);
}
);
width = 819;
}
);
metricLeft = o;
metricRight = o;
unicode = 37;
},
{
color = 3;
glyphname = perthousand;
layers = (
{
anchors = (
{
name = _center;
pos = (422,356);
}
);
layerId = "9372F035-DA38-4B54-966C-CEBA9B53DD02";
shapes = (
{
closed = 1;
nodes = (
(882,-14,o),
(980,78,o),
(980,173,cs),
(980,226,o),
(943,263,o),
(873,263,cs),
(771,263,o),
(674,170,o),
(674,79,cs),
(674,22,o),
(711,-14,o),
(780,-14,cs)
);
},
{
closed = 1;
nodes = (
(748,13,o),
(731,34,o),
(731,70,cs),
(731,133,o),
(788,236,o),
(865,236,cs),
(904,236,o),
(922,217,o),
(922,179,cs),
(922,116,o),
(864,13,o),
(785,13,cs)
);
},
{
ref = percent;
}
);
width = 1049;
}
);
metricLeft = o;
metricRight = o;
unicode = 8240;
},
{
color = 6;
glyphname = percent.lf;
layers = (
{
layerId = "9372F035-DA38-4B54-966C-CEBA9B53DD02";
shapes = (
{
closed = 1;
nodes = (
(156,0,l),
(861,710,l),
(806,710,l),
(101,0,l)
);
},
{
closed = 1;
nodes = (
(692,-14,o),
(790,78,o),
(790,173,cs),
(790,226,o),
(753,263,o),
(683,263,cs),
(581,263,o),
(484,170,o),
(484,79,cs),
(484,22,o),
(521,-14,o),
(590,-14,cs)
);
},
{
closed = 1;
nodes = (
(558,13,o),
(541,34,o),
(541,70,cs),
(541,133,o),
(598,236,o),
(675,236,cs),
(714,236,o),
(732,217,o),
(732,179,cs),
(732,116,o),
(674,13,o),
(595,13,cs)
);
},
{
closed = 1;
nodes = (
(376,447,o),
(474,539,o),
(474,634,cs),
(474,687,o),
(437,724,o),
(367,724,cs),
(265,724,o),
(168,631,o),
(168,540,cs),
(168,483,o),
(205,447,o),
(274,447,cs)
);
},
{
closed = 1;
nodes = (
(242,474,o),
(225,495,o),
(225,531,cs),
(225,594,o),
(282,697,o),
(359,697,cs),
(398,697,o),
(416,678,o),
(416,640,cs),
(416,577,o),
(358,474,o),
(279,474,cs)
);
}
);
width = 859;
}
);
metricLeft = o;
metricRight = o;
},
{
color = 3;
glyphname = perthousand.lf;
layers = (
{
layerId = "9372F035-DA38-4B54-966C-CEBA9B53DD02";
shapes = (
{
closed = 1;
nodes = (
(922,-14,o),
(1020,78,o),
(1020,173,cs),
(1020,226,o),
(983,263,o),
(913,263,cs),
(811,263,o),
(714,170,o),
(714,79,cs),
(714,22,o),
(751,-14,o),
(820,-14,cs)
);
},
{
closed = 1;
nodes = (
(788,13,o),
(771,34,o),
(771,70,cs),
(771,133,o),
(828,236,o),
(905,236,cs),
(944,236,o),
(962,217,o),
(962,179,cs),
(962,116,o),
(904,13,o),
(825,13,cs)
);
},
{
ref = percent.lf;
}
);
width = 1089;
}
);
metricLeft = o;
metricRight = o;
},
{
color = 6;
glyphname = lozenge;
layers = (
{
layerId = "9372F035-DA38-4B54-966C-CEBA9B53DD02";
shapes = (
{
closed = 1;
nodes = (
(479,746,l),
(104,373,l),
(200,-11,l),
(250,-11,l),
(628,373,l),
(528,746,l)
);
},
{
closed = 1;
nodes = (
(144,361,l),
(498,714,l),
(588,385,l),
(230,18,l)
);
}
);
width = 620;
}
);
unicode = 9674;
},
{
color = 6;
glyphname = dieresiscomb;
layers = (
{
anchors = (
{
name = _top;
pos = (293,440);
},
{
name = top;
pos = (330,585);
}
);
layerId = "9372F035-DA38-4B54-966C-CEBA9B53DD02";
shapes = (
{
closed = 1;
nodes = (
(271,557,o),
(293,580,o),
(293,607,cs),
(293,632,o),
(271,655,o),
(245,655,cs),
(216,655,o),
(195,632,o),
(195,607,cs),
(195,580,o),
(216,557,o),
(245,557,cs)
);
},
{
closed = 1;
nodes = (
(465,557,o),
(487,580,o),
(487,607,cs),
(487,632,o),
(465,655,o),
(439,655,cs),
(410,655,o),
(389,632,o),
(389,607,cs),
(389,580,o),
(410,557,o),
(439,557,cs)
);
}
);
width = 400;
}
);
unicode = 776;
},
{
color = 6;
glyphname = dotaccentcomb;
layers = (
{
anchors = (
{
name = _top;
pos = (215,440);
},
{
name = top;
pos = (251,652);
}
);
layerId = "9372F035-DA38-4B54-966C-CEBA9B53DD02";
shapes = (
{
closed = 1;
nodes = (
(280,553,o),
(304,578,o),
(304,607,cs),
(304,635,o),
(280,660,o),
(252,660,cs),
(220,660,o),
(197,635,o),
(197,607,cs),
(197,578,o),
(220,553,o),
(252,553,cs)
);
}
);
width = 216;
}
);
unicode = 775;
},
{
color = 6;
glyphname = gravecomb;
layers = (
{
anchors = (
{
name = _top;
pos = (278,440);
},
{
name = top;
pos = (277,652);
}
);
layerId = "9372F035-DA38-4B54-966C-CEBA9B53DD02";
shapes = (
{
closed = 1;
nodes = (
(311,520,l),
(308,656,ls),
(307,702,o),
(294,720,o),
(275,720,cs),
(249,720,o),
(237,701,o),
(237,678,cs),
(237,659,o),
(242,642,o),
(251,617,cs),
(287,520,l)
);
}
);
width = 276;
}
);
unicode = 768;
},
{
color = 6;
glyphname = acutecomb;
layers = (
{
anchors = (
{
name = _top;
pos = (169,440);
},
{
name = _topright;
pos = (97,440);
},
{
name = top;
pos = (269,652);
}
);
backgroundImage = {
imagePath = "../../../../1878 Limprimerie Berger Levrault Notice historique/Romain/JACOB-notice-187509.jpg";
locked = 1;
pos = (-5195,-4198);
scale = (2.7,2.7);
};
layerId = "9372F035-DA38-4B54-966C-CEBA9B53DD02";
shapes = (
{
closed = 1;
nodes = (
(192,520,l),
(260,615,ls),
(285,651,o),
(289,668,o),
(289,684,cs),
(289,703,o),
(279,719,o),
(259,719,cs),
(232,719,o),
(221,696,o),
(212,664,cs),
(170,520,l)
);
}
);
width = 218;
}
);
unicode = 769;
},
{
color = 6;
glyphname = hungarumlautcomb;
layers = (
{
anchors = (
{
name = _top;
pos = (246,440);
},
{
name = top;
pos = (339,652);
}
);
layerId = "9372F035-DA38-4B54-966C-CEBA9B53DD02";
shapes = (
{
closed = 1;
nodes = (
(192,520,l),
(260,615,ls),
(285,651,o),
(289,668,o),
(289,684,cs),
(289,703,o),
(279,719,o),
(259,719,cs),
(232,719,o),
(221,696,o),
(212,664,cs),
(170,520,l)
);
},
{
closed = 1;
nodes = (
(322,520,l),
(390,615,ls),
(415,651,o),
(419,668,o),
(419,684,cs),
(419,703,o),
(409,719,o),
(389,719,cs),
(362,719,o),
(351,696,o),
(342,664,cs),
(300,520,l)
);
}
);
width = 348;
}
);
unicode = 779;
},
{
color = 6;
glyphname = caroncomb.alt;
layers = (
{
anchors = (
{
name = _topright;
pos = (248,710);
}
);
layerId = "9372F035-DA38-4B54-966C-CEBA9B53DD02";
shapes = (
{
closed = 1;
nodes = (
(281,566,l),
(372,710,l),
(299,710,l),
(250,566,l)
);
}
);
width = 265;
}
);
},
{
color = 6;
glyphname = circumflexcomb;
layers = (
{
anchors = (
{
name = _top;
pos = (244,440);
},
{
name = top;
pos = (309,710);
}
);
layerId = "9372F035-DA38-4B54-966C-CEBA9B53DD02";
shapes = (
{
closed = 1;
nodes = (
(189,521,l),
(341,658,l),
(304,661,l),
(323,521,l),
(352,521,l),
(356,710,l),
(317,710,l),
(155,521,l)
);
}
);
width = 287;
}
);
unicode = 770;
},
{
color = 6;
glyphname = caroncomb;
layers = (
{
anchors = (
{
name = _top;
pos = (248,440);
},
{
name = top;
pos = (314,652);
}
);
layerId = "9372F035-DA38-4B54-966C-CEBA9B53DD02";
shapes = (
{
closed = 1;
nodes = (
(272,522,l),
(433,710,l),
(399,710,l),
(254,577,l),
(290,564,l),
(265,710,l),
(236,710,l),
(242,522,l)
);
}
);
width = 310;
}
);
unicode = 780;
},
{
color = 6;
glyphname = brevecomb;
layers = (
{
anchors = (
{
name = _top;
pos = (224,440);
},
{
name = top;
pos = (300,649);
}
);
layerId = "9372F035-DA38-4B54-966C-CEBA9B53DD02";
shapes = (
{
closed = 1;
nodes = (
(309,535,o),
(367,570,o),
(396,651,c),
(371,651,l),
(350,610,o),
(319,595,o),
(278,595,cs),
(238,595,o),
(220,608,o),
(220,634,cs),
(220,639,o),
(221,645,o),
(222,651,c),
(197,651,l),
(190,632,o),
(186,615,o),
(186,599,cs),
(186,561,o),
(208,535,o),
(256,535,cs)
);
}
);
width = 279;
}
);
unicode = 774;
},
{
color = 6;
glyphname = ringcomb;
layers = (
{
anchors = (
{
name = _top;
pos = (216,440);
},
{
name = top;
pos = (261,652);
}
);
layerId = "9372F035-DA38-4B54-966C-CEBA9B53DD02";
shapes = (
{
closed = 1;
nodes = (
(306,528,o),
(349,554,o),
(349,613,cs),
(349,650,o),
(324,698,o),
(265,698,cs),
(210,698,o),
(180,655,o),
(180,613,cs),
(180,566,o),
(214,528,o),
(266,528,cs)
);
},
{
closed = 1;
nodes = (
(235,554,o),
(209,576,o),
(209,613,cs),
(209,655,o),
(240,672,o),
(265,672,cs),
(294,672,o),
(320,651,o),
(320,613,cs),
(320,574,o),
(294,554,o),
(266,554,cs)
);
}
);
width = 281;
}
);
unicode = 778;
},
{
color = 6;
glyphname = tildecomb;
layers = (
{
anchors = (
{
name = _top;
pos = (287,440);
},
{
name = top;
pos = (371,652);
}
);
layerId = "9372F035-DA38-4B54-966C-CEBA9B53DD02";
shapes = (
{
closed = 1;
nodes = (
(433,553,o),
(481,592,o),
(510,652,c),
(491,652,l),
(472,624,o),
(446,601,o),
(419,601,cs),
(401,601,o),
(382,614,o),
(374,620,cs),
(345,642,ls),
(335,650,o),
(313,668,o),
(288,668,cs),
(227,668,o),
(175,593,o),
(164,564,c),
(183,564,l),
(198,588,o),
(233,620,o),
(262,620,cs),
(280,620,o),
(295,609,o),
(314,594,cs),
(334,578,ls),
(347,568,o),
(368,553,o),
(393,553,cs)
);
}
);
width = 393;
}
);
unicode = 771;
},
{
color = 6;
glyphname = macroncomb;
layers = (
{
anchors = (
{
name = _top;
pos = (262,440);
},
{
name = top;
pos = (319,652);
}
);
layerId = "9372F035-DA38-4B54-966C-CEBA9B53DD02";
shapes = (
{
closed = 1;
nodes = (
(406,581,l),
(420,621,l),
(193,621,l),
(179,581,l)
);
}
);
width = 322;
}
);
unicode = 772;
},
{
color = 6;
glyphname = commaturnedabovecomb;
layers = (
{
anchors = (
{
name = _top;
pos = (184,440);
},
{
name = top;
pos = (256,652);
}
);
layerId = "9372F035-DA38-4B54-966C-CEBA9B53DD02";
shapes = (
{
closed = 1;
nodes = (
(296,696,o),
(252,677,o),
(225,620,cs),
(217,604,o),
(213,589,o),
(213,574,cs),
(213,540,o),
(231,513,o),
(265,513,cs),
(293,513,o),
(314,534,o),
(314,563,cs),
(314,586,o),
(297,604,o),
(272,604,cs),
(257,604,o),
(247,597,o),
(242,585,cs),
(240,580,o),
(239,577,o),
(236,577,cs),
(235,577,o),
(232,577,o),
(232,584,cs),
(232,591,o),
(235,604,o),
(241,614,cs),
(264,658,o),
(306,678,o),
(349,681,c),
(347,702,l)
);
}
);
width = 233;
}
);
unicode = 786;
},
{
color = 6;
glyphname = commaaccentcomb;
layers = (
{
anchors = (
{
name = _bottom;
pos = (-1,0);
},
{
name = bottom;
pos = (-28,-280);
}
);
layerId = "9372F035-DA38-4B54-966C-CEBA9B53DD02";
shapes = (
{
closed = 1;
nodes = (
(-56,-273,o),
(-12,-254,o),
(15,-197,cs),
(23,-181,o),
(27,-166,o),
(27,-151,cs),
(27,-117,o),
(9,-90,o),
(-25,-90,cs),
(-53,-90,o),
(-74,-111,o),
(-74,-140,cs),
(-74,-163,o),
(-57,-181,o),
(-32,-181,cs),
(-17,-181,o),
(-7,-174,o),
(-2,-162,cs),
(0,-157,o),
(1,-154,o),
(4,-154,cs),
(5,-154,o),
(8,-154,o),
(8,-161,cs),
(8,-168,o),
(5,-181,o),
(-1,-191,cs),
(-24,-235,o),
(-66,-255,o),
(-109,-258,c),
(-107,-279,l)
);
}
);
width = 202;
}
);
unicode = 806;
},
{
color = 6;
glyphname = cedillacomb;
layers = (
{
anchors = (
{
name = _bottom;
pos = (91,0);
},
{
name = bottom;
pos = (-31,-280);
}
);
layerId = "9372F035-DA38-4B54-966C-CEBA9B53DD02";
shapes = (
{
closed = 1;
nodes = (
(56,-294,o),
(133,-205,o),
(133,-133,cs),
(133,-86,o),
(103,-57,o),
(54,-57,cs),
(17,-57,o),
(-23,-75,o),
(-55,-109,c),
(-39,-122,l),
(-16,-99,o),
(14,-82,o),
(37,-82,cs),
(68,-82,o),
(82,-101,o),
(82,-128,cs),
(82,-196,o),
(24,-266,o),
(-31,-266,cs),
(-62,-266,o),
(-77,-245,o),
(-84,-219,c),
(-110,-224,l),
(-105,-256,o),
(-86,-294,o),
(-36,-294,cs)
);
},
{
closed = 1;
nodes = (
(106,0,l),
(76,0,l),
(51,-64,l),
(78,-67,l)
);
}
);
width = 306;
}
);
unicode = 807;
},
{
color = 6;
glyphname = ogonekcomb;
layers = (
{
anchors = (
{
name = _ogonek;
pos = (131,0);
}
);
layerId = "9372F035-DA38-4B54-966C-CEBA9B53DD02";
shapes = (
{
closed = 1;
nodes = (
(46,-294,o),
(84,-271,o),
(106,-240,c),
(94,-226,l),
(70,-248,o),
(49,-256,o),
(26,-256,cs),
(-17,-256,o),
(-44,-226,o),
(-44,-180,cs),
(-44,-107,o),
(30,-36,o),
(118,7,c),
(142,40,l),
(37,-6,o),
(-109,-108,o),
(-109,-200,cs),
(-109,-252,o),
(-73,-294,o),
(-9,-294,cs)
);
}
);
width = 298;
}
);
unicode = 808;
},
{
color = 6;
glyphname = strokeshortcomb;
layers = (
{
anchors = (
{
name = _center;
pos = (299,567);
}
);
layerId = "9372F035-DA38-4B54-966C-CEBA9B53DD02";
shapes = (
{
closed = 1;
nodes = (
(421,557,l),
(431,581,l),
(176,581,l),
(166,557,l)
);
}
);
width = 345;
}
);
unicode = 821;
},
{
color = 6;
glyphname = strokelongcomb;
layers = (
{
anchors = (
{
name = _center;
pos = (536,537);
}
);
layerId = "9372F035-DA38-4B54-966C-CEBA9B53DD02";
shapes = (
{
closed = 1;
nodes = (
(907,522,l),
(917,551,l),
(165,551,l),
(155,522,l)
);
}
);
width = 842;
}
);
unicode = 822;
},
{
color = 6;
glyphname = slashshortcomb;
layers = (
{
anchors = (
{
name = _center;
pos = (176,220);
}
);
layerId = "9372F035-DA38-4B54-966C-CEBA9B53DD02";
shapes = (
{
closed = 1;
nodes = (
(-62,-12,l),
(472,453,l),
(416,453,l),
(-119,-12,l)
);
}
);
width = 372;
}
);
unicode = 823;
},
{
color = 6;
glyphname = slashlongcomb;
layers = (
{
anchors = (
{
name = _center;
pos = (292,356);
}
);
guides = (
{
angle = 180;
pos = (-52,710);
}
);
layerId = "9372F035-DA38-4B54-966C-CEBA9B53DD02";
shapes = (
{
closed = 1;
nodes = (
(1,-14,l),
(645,726,l),
(589,726,l),
(-55,-14,l)
);
}
);
width = 491;
}
);
unicode = 824;
},
{
color = 6;
glyphname = dieresiscomb.case;
layers = (
{
anchors = (
{
name = _top;
pos = (409,710);
},
{
name = top;
pos = (427,856);
}
);
layerId = "9372F035-DA38-4B54-966C-CEBA9B53DD02";
shapes = (
{
closed = 1;
nodes = (
(360,806,o),
(382,829,o),
(382,856,cs),
(382,881,o),
(360,904,o),
(334,904,cs),
(305,904,o),
(284,881,o),
(284,856,cs),
(284,829,o),
(305,806,o),
(334,806,cs)
);
},
{
closed = 1;
nodes = (
(554,806,o),
(576,829,o),
(576,856,cs),
(576,881,o),
(554,904,o),
(528,904,cs),
(499,904,o),
(478,881,o),
(478,856,cs),
(478,829,o),
(499,806,o),
(528,806,cs)
);
}
);
width = 398;
}
);
},
{
color = 6;
glyphname = dotaccentcomb.case;
layers = (
{
anchors = (
{
name = _top;
pos = (299,710);
},
{
name = top;
pos = (321,908);
}
);
layerId = "9372F035-DA38-4B54-966C-CEBA9B53DD02";
shapes = (
{
closed = 1;
nodes = (
(330,752,o),
(354,777,o),
(354,806,cs),
(354,834,o),
(330,859,o),
(302,859,cs),
(270,859,o),
(247,834,o),
(247,806,cs),
(247,777,o),
(270,752,o),
(302,752,cs)
);
}
);
width = 184;
}
);
},
{
color = 6;
glyphname = gravecomb.case;
layers = (
{
anchors = (
{
name = _top;
pos = (256,710);
},
{
name = top;
pos = (262,908);
}
);
layerId = "9372F035-DA38-4B54-966C-CEBA9B53DD02";
shapes = (
{
closed = 1;
nodes = (
(302,940,l),
(221,940,l),
(262,760,l),
(274,760,l)
);
}
);
width = 161;
}
);
},
{
color = 6;
glyphname = acutecomb.case;
layers = (
{
anchors = (
{
name = _top;
pos = (272,710);
},
{
name = _topright;
pos = (316,710);
},
{
name = top;
pos = (355,908);
}
);
backgroundImage = {
imagePath = "../../../../1878 Limprimerie Berger Levrault Notice historique/Romain/JACOB-notice-187516.jpg";
locked = 1;
pos = (-3530,-2703);
scale = (2.644,2.644);
};
layerId = "9372F035-DA38-4B54-966C-CEBA9B53DD02";
shapes = (
{
closed = 1;
nodes = (
(281,760,l),
(410,940,l),
(329,940,l),
(269,760,l)
);
}
);
width = 201;
}
);
},
{
color = 6;
glyphname = circumflexcomb.case;
layers = (
{
anchors = (
{
name = _top;
pos = (331,710);
},
{
name = top;
pos = (383,908);
}
);
layerId = "9372F035-DA38-4B54-966C-CEBA9B53DD02";
shapes = (
{
closed = 1;
nodes = (
(271,761,l),
(413,894,l),
(366,894,l),
(405,761,l),
(434,761,l),
(418,940,l),
(379,940,l),
(237,761,l)
);
}
);
width = 277;
}
);
},
{
color = 6;
glyphname = caroncomb.case;
layers = (
{
anchors = (
{
name = _top;
pos = (325,710);
},
{
name = top;
pos = (393,908);
}
);
layerId = "9372F035-DA38-4B54-966C-CEBA9B53DD02";
shapes = (
{
closed = 1;
nodes = (
(354,761,l),
(509,940,l),
(475,940,l),
(326,807,l),
(372,807,l),
(341,940,l),
(312,940,l),
(324,761,l)
);
}
);
width = 297;
}
);
},
{
color = 6;
glyphname = brevecomb.case;
layers = (
{
anchors = (
{
name = _top;
pos = (346,710);
},
{
name = top;
pos = (393,908);
}
);
layerId = "9372F035-DA38-4B54-966C-CEBA9B53DD02";
shapes = (
{
closed = 1;
nodes = (
(411,787,o),
(469,822,o),
(498,903,c),
(473,903,l),
(452,862,o),
(421,847,o),
(380,847,cs),
(340,847,o),
(322,860,o),
(322,886,cs),
(322,891,o),
(323,897,o),
(324,903,c),
(299,903,l),
(292,884,o),
(288,867,o),
(288,851,cs),
(288,813,o),
(310,787,o),
(358,787,cs)
);
}
);
width = 299;
}
);
},
{
color = 6;
glyphname = ringcomb.case;
layers = (
{
anchors = (
{
name = _top;
pos = (327,710);
},
{
name = top;
pos = (385,908);
}
);
layerId = "9372F035-DA38-4B54-966C-CEBA9B53DD02";
shapes = (
{
closed = 1;
nodes = (
(394,784,o),
(437,810,o),
(437,869,cs),
(437,906,o),
(412,954,o),
(353,954,cs),
(298,954,o),
(268,911,o),
(268,869,cs),
(268,822,o),
(302,784,o),
(354,784,cs)
);
},
{
closed = 1;
nodes = (
(323,810,o),
(297,832,o),
(297,869,cs),
(297,911,o),
(328,928,o),
(353,928,cs),
(382,928,o),
(408,907,o),
(408,869,cs),
(408,830,o),
(382,810,o),
(354,810,cs)
);
}
);
width = 270;
}
);
},
{
color = 6;
glyphname = tildecomb.case;
layers = (
{
anchors = (
{
name = _top;
pos = (396,710);
},
{
name = top;
pos = (468,910);
}
);
layerId = "9372F035-DA38-4B54-966C-CEBA9B53DD02";
shapes = (
{
closed = 1;
nodes = (
(524,801,o),
(572,840,o),
(601,900,c),
(582,900,l),
(563,872,o),
(537,849,o),
(510,849,cs),
(492,849,o),
(473,862,o),
(465,868,cs),
(436,890,ls),
(426,898,o),
(404,916,o),
(379,916,cs),
(318,916,o),
(266,841,o),
(255,812,c),
(274,812,l),
(289,836,o),
(324,868,o),
(353,868,cs),
(371,868,o),
(386,857,o),
(405,842,cs),
(425,826,ls),
(438,816,o),
(459,801,o),
(484,801,cs)
);
}
);
width = 394;
}
);
},
{
color = 6;
glyphname = macroncomb.case;
layers = (
{
anchors = (
{
name = _top;
pos = (330,710);
},
{
name = top;
pos = (403,908);
}
);
layerId = "9372F035-DA38-4B54-966C-CEBA9B53DD02";
shapes = (
{
closed = 1;
nodes = (
(488,827,l),
(502,867,l),
(275,867,l),
(261,827,l)
);
}
);
width = 307;
}
);
},
{
color = 6;
glyphname = ogonekcomb.case;
layers = (
{
anchors = (
{
name = _ogonek;
pos = (34,0);
}
);
layerId = "9372F035-DA38-4B54-966C-CEBA9B53DD02";
shapes = (
{
closed = 1;
nodes = (
(69,-294,o),
(109,-234,o),
(116,-183,c),
(99,-178,l),
(80,-212,o),
(44,-239,o),
(7,-239,cs),
(-41,-239,o),
(-72,-210,o),
(-72,-154,cs),
(-72,-94,o),
(-8,-44,o),
(63,19,c),
(37,19,l),
(-35,-42,o),
(-122,-117,o),
(-122,-192,cs),
(-122,-250,o),
(-75,-294,o),
(-14,-294,cs)
);
}
);
width = 298;
}
);
},
{
color = 6;
glyphname = strokeshortcomb.case;
layers = (
{
anchors = (
{
name = _center;
pos = (286,355);
}
);
layerId = "9372F035-DA38-4B54-966C-CEBA9B53DD02";
shapes = (
{
closed = 1;
nodes = (
(475,342,l),
(485,371,l),
(100,371,l),
(90,342,l)
);
}
);
width = 476;
}
);
},
{
color = 6;
glyphname = slashshortcomb.case;
layers = (
{
anchors = (
{
name = _center;
pos = (244,433);
}
);
layerId = "9372F035-DA38-4B54-966C-CEBA9B53DD02";
shapes = (
{
closed = 1;
nodes = (
(433,501,l),
(418,528,l),
(57,368,l),
(75,340,l)
);
}
);
width = 332;
}
);
},
{
color = 6;
glyphname = dieresiscomb.narrow;
layers = (
{
anchors = (
{
name = _top;
pos = (308,440);
},
{
name = top;
pos = (342,652);
}
);
guides = (
{
pos = (254,656);
}
);
layerId = "9372F035-DA38-4B54-966C-CEBA9B53DD02";
shapes = (
{
closed = 1;
nodes = (
(276,559,o),
(298,582,o),
(298,609,cs),
(298,634,o),
(276,657,o),
(250,657,cs),
(221,657,o),
(200,634,o),
(200,609,cs),
(200,582,o),
(221,559,o),
(250,559,cs)
);
},
{
closed = 1;
nodes = (
(433,559,o),
(455,582,o),
(455,609,cs),
(455,634,o),
(433,657,o),
(407,657,cs),
(378,657,o),
(357,634,o),
(357,609,cs),
(357,582,o),
(378,559,o),
(407,559,cs)
);
}
);
width = 395;
}
);
},
